{
DisplayStrings = (
"\U00BF",
"!",
"?"
);
copyright = "Copyright (c) 2016 ResearchGate";
customParameters = (
{
name = license;
value = "This Font Software is licensed under the SIL Open Font License, Version 1.1. This license is available with a FAQ at: http://scripts.sil.org/OFL";
},
{
name = licenseURL;
value = "http://scripts.sil.org/OFL";
},
{
name = vendorID;
value = "STC ";
},
{
name = glyphOrder;
value = (
    ".notdef",
    uni0000,
    uni000D,
    NULL,
    HT,
    LF,
    DLE,
    DC1,
    DC2,
    DC3,
    DC4,
    RS,
    US,
    space,
    exclam,
    quotedbl,
    numbersign,
    dollar,
    percent,
    ampersand,
    quotesingle,
    parenleft,
    parenright,
    asterisk,
    plus,
    comma,
    hyphen,
    period,
    slash,
    zero,
    one,
    two,
    three,
    four,
    five,
    six,
    seven,
    eight,
    nine,
    colon,
    semicolon,
    less,
    equal,
    greater,
    question,
    at,
    A,
    B,
    C,
    D,
    E,
    F,
    G,
    H,
    I,
    J,
    K,
    L,
    M,
    N,
    O,
    P,
    Q,
    R,
    S,
    T,
    U,
    V,
    W,
    X,
    Y,
    Z,
    bracketleft,
    backslash,
    bracketright,
    asciicircum,
    underscore,
    grave,
    a,
    b,
    c,
    d,
    e,
    f,
    g,
    h,
    i,
    j,
    k,
    l,
    m,
    n,
    o,
    p,
    q,
    r,
    s,
    t,
    u,
    v,
    w,
    x,
    y,
    z,
    braceleft,
    bar,
    braceright,
    asciitilde,
    DEL,
    uni00A0,
    exclamdown,
    cent,
    sterling,
    currency,
    yen,
    brokenbar,
    section,
    dieresis,
    copyright,
    ordfeminine,
    guillemotleft,
    logicalnot,
    uni00AD,
    registered,
    macron,
    degree,
    plusminus,
    uni00B2,
    uni00B3,
    acute,
    uni00B5,
    paragraph,
    periodcentered,
    cedilla,
    uni00B9,
    ordmasculine,
    guillemotright,
    onequarter,
    onehalf,
    threequarters,
    questiondown,
    Agrave,
    Aacute,
    Acircumflex,
    Atilde,
    Adieresis,

glyphs = (
{
glyphname = A;
layers = (
{
layerId = "19CE7369-CF6C-4B47-B909-15D5A24EDA33";
name = "Regular Italic";
paths = (
{
closed = 1;
nodes = (
"791 1309 LINE",
"1009 102 LINE",
"1143 75 LINE",
"1137 0 LINE",
"694 0 LINE",
"698 75 LINE",
"832 100 LINE",
"789 374 LINE",
"302 374 LINE",
"173 101 LINE",
"310 75 LINE",
"305 0 LINE",
"-103 0 LINE",
"-95 75 LINE",
"7 100 LINE",
"615 1309 LINE"
);
},
{
closed = 1;
nodes = (
"773 479 LINE",
"684 1060 LINE",
"674 1164 LINE",
"351 479 LINE"
);
}
);
width = 1154;
}
);
note = A;
unicode = 0041;
},
{
glyphname = Aacute;
layers = (
{
layerId = "19CE7369-CF6C-4B47-B909-15D5A24EDA33";
name = "Regular Italic";
paths = (
{
closed = 1;
nodes = (
"791 1309 LINE",
"1009 102 LINE",
"1143 75 LINE",
"1137 0 LINE",
"694 0 LINE",
"698 75 LINE",
"832 100 LINE",
"789 374 LINE",
"302 374 LINE",
"173 101 LINE",
"310 75 LINE",
"305 0 LINE",
"-103 0 LINE",
"-95 75 LINE",
"7 100 LINE",
"615 1309 LINE"
);
},
{
closed = 1;
nodes = (
"773 479 LINE",
"684 1060 LINE",
"674 1164 LINE",
"351 479 LINE"
);
},
{
closed = 1;
nodes = (
"880 1721 LINE",
"989 1617 LINE",
"961 1557 OFFCURVE",
"884 1490 OFFCURVE",
"804 1440 CURVE SMOOTH",
"763 1415 OFFCURVE",
"728 1396 OFFCURVE",
"699 1385 CURVE",
"643 1427 LINE"
);
}
);
width = 1154;
}
);
note = Aacute;
unicode = 00C1;
},
{
glyphname = Abreve;
layers = (
{
layerId = "19CE7369-CF6C-4B47-B909-15D5A24EDA33";
name = "Regular Italic";
paths = (
{
closed = 1;
nodes = (
"791 1309 LINE",
"1009 102 LINE",
"1143 75 LINE",
"1137 0 LINE",
"694 0 LINE",
"698 75 LINE",
"832 100 LINE",
"789 374 LINE",
"302 374 LINE",
"173 101 LINE",
"310 75 LINE",
"305 0 LINE",
"-103 0 LINE",
"-95 75 LINE",
"7 100 LINE",
"615 1309 LINE"
);
},
{
closed = 1;
nodes = (
"773 479 LINE",
"684 1060 LINE",
"674 1164 LINE",
"351 479 LINE"
);
},
{
closed = 1;
nodes = (
"475 1678 OFFCURVE",
"476 1691 OFFCURVE",
"478 1703 CURVE",
"573 1703 LINE",
"578 1646 OFFCURVE",
"588 1598 OFFCURVE",
"633 1559 CURVE SMOOTH",
"655 1539 OFFCURVE",
"687 1529 OFFCURVE",
"730 1529 CURVE SMOOTH",
"824 1529 OFFCURVE",
"887 1587 OFFCURVE",
"919 1703 CURVE",
"1009 1703 LINE",
"1009 1607 OFFCURVE",
"952 1505 OFFCURVE",
"864 1445 CURVE SMOOTH",
"820 1415 OFFCURVE",
"774 1400 OFFCURVE",
"725 1400 CURVE SMOOTH",
"612 1400 OFFCURVE",
"536 1455 OFFCURVE",
"501 1535 CURVE SMOOTH",
"484 1574 OFFCURVE",
"475 1617 OFFCURVE",
"475 1663 CURVE SMOOTH"
);
}
);
width = 1154;
}
);
note = Abreve;
unicode = 0102;
},
{
glyphname = Acircumflex;
layers = (
{
layerId = "19CE7369-CF6C-4B47-B909-15D5A24EDA33";
name = "Regular Italic";
paths = (
{
closed = 1;
nodes = (
"791 1309 LINE",
"1009 102 LINE",
"1143 75 LINE",
"1137 0 LINE",
"694 0 LINE",
"698 75 LINE",
"832 100 LINE",
"789 374 LINE",
"302 374 LINE",
"173 101 LINE",
"310 75 LINE",
"305 0 LINE",
"-103 0 LINE",
"-95 75 LINE",
"7 100 LINE",
"615 1309 LINE"
);
},
{
closed = 1;
nodes = (
"773 479 LINE",
"684 1060 LINE",
"674 1164 LINE",
"351 479 LINE"
);
},
{
closed = 1;
nodes = (
"694 1721 LINE",
"846 1721 LINE",
"1029 1447 LINE",
"967 1396 LINE",
"762 1591 LINE",
"483 1397 LINE",
"429 1447 LINE"
);
}
);
width = 1154;
}
);
note = Acircumflex;
unicode = 00C2;
},
{
glyphname = Adieresis;
layers = (
{
layerId = "19CE7369-CF6C-4B47-B909-15D5A24EDA33";
name = "Regular Italic";
paths = (
{
closed = 1;
nodes = (
"791 1309 LINE",
"1009 102 LINE",
"1143 75 LINE",
"1137 0 LINE",
"694 0 LINE",
"698 75 LINE",
"832 100 LINE",
"789 374 LINE",
"302 374 LINE",
"173 101 LINE",
"310 75 LINE",
"305 0 LINE",
"-103 0 LINE",
"-95 75 LINE",
"7 100 LINE",
"615 1309 LINE"
);
},
{
closed = 1;
nodes = (
"773 479 LINE",
"684 1060 LINE",
"674 1164 LINE",
"351 479 LINE"
);
},
{
closed = 1;
nodes = (
"451 1627 OFFCURVE",
"479 1669 OFFCURVE",
"517 1693 CURVE SMOOTH",
"536 1705 OFFCURVE",
"555 1711 OFFCURVE",
"575 1711 CURVE SMOOTH",
"638 1711 OFFCURVE",
"681 1669 OFFCURVE",
"681 1614 CURVE SMOOTH",
"681 1569 OFFCURVE",
"654 1526 OFFCURVE",
"614 1502 CURVE SMOOTH",
"593 1489 OFFCURVE",
"572 1483 OFFCURVE",
"549 1483 CURVE SMOOTH",
"496 1483 OFFCURVE",
"451 1529 OFFCURVE",
"451 1582 CURVE SMOOTH"
);
},
{
closed = 1;
nodes = (
"811 1628 OFFCURVE",
"840 1670 OFFCURVE",
"879 1694 CURVE SMOOTH",
"898 1705 OFFCURVE",
"918 1711 OFFCURVE",
"937 1711 CURVE SMOOTH",
"1000 1711 OFFCURVE",
"1042 1670 OFFCURVE",
"1042 1615 CURVE SMOOTH",
"1042 1570 OFFCURVE",
"1016 1526 OFFCURVE",
"976 1502 CURVE SMOOTH",
"955 1489 OFFCURVE",
"933 1483 OFFCURVE",
"910 1483 CURVE SMOOTH",
"857 1483 OFFCURVE",
"811 1528 OFFCURVE",
"811 1584 CURVE SMOOTH"
);
}
);
width = 1154;
}
);
note = Adieresis;
unicode = 00C4;
},
{
glyphname = Agrave;
layers = (
{
layerId = "19CE7369-CF6C-4B47-B909-15D5A24EDA33";
name = "Regular Italic";
paths = (
{
closed = 1;
nodes = (
"791 1309 LINE",
"1009 102 LINE",
"1143 75 LINE",
"1137 0 LINE",
"694 0 LINE",
"698 75 LINE",
"832 100 LINE",
"789 374 LINE",
"302 374 LINE",
"173 101 LINE",
"310 75 LINE",
"305 0 LINE",
"-103 0 LINE",
"-95 75 LINE",
"7 100 LINE",
"615 1309 LINE"
);
},
{
closed = 1;
nodes = (
"773 479 LINE",
"684 1060 LINE",
"674 1164 LINE",
"351 479 LINE"
);
},
{
closed = 1;
nodes = (
"539 1721 LINE",
"765 1427 LINE",
"707 1385 LINE",
"648 1408 OFFCURVE",
"560 1462 OFFCURVE",
"492 1526 CURVE SMOOTH",
"458 1558 OFFCURVE",
"435 1588 OFFCURVE",
"423 1617 CURVE"
);
}
);
width = 1154;
}
);
note = Agrave;
unicode = 00C0;
},
{
glyphname = Amacron;
layers = (
{
layerId = "19CE7369-CF6C-4B47-B909-15D5A24EDA33";
name = "Regular Italic";
paths = (
{
closed = 1;
nodes = (
"791 1309 LINE",
"1009 102 LINE",
"1143 75 LINE",
"1137 0 LINE",
"694 0 LINE",
"698 75 LINE",
"832 100 LINE",
"789 374 LINE",
"302 374 LINE",
"173 101 LINE",
"310 75 LINE",
"305 0 LINE",
"-103 0 LINE",
"-95 75 LINE",
"7 100 LINE",
"615 1309 LINE"
);
},
{
closed = 1;
nodes = (
"773 479 LINE",
"684 1060 LINE",
"674 1164 LINE",
"351 479 LINE"
);
},
{
closed = 1;
nodes = (
"951 1617 LINE",
"933 1486 LINE",
"494 1486 LINE",
"510 1617 LINE"
);
}
);
width = 1154;
}
);
note = Amacron;
unicode = 0100;
},
{
glyphname = Aogonek;
layers = (
{
layerId = "19CE7369-CF6C-4B47-B909-15D5A24EDA33";
name = "Regular Italic";
paths = (
{
closed = 1;
nodes = (
"791 1309 LINE",
"1009 102 LINE",
"1143 75 LINE",
"1137 0 LINE",
"976 0 LINE",
"887 -71 OFFCURVE",
"839 -123 OFFCURVE",
"838 -174 CURVE",
"835 -223 OFFCURVE",
"859 -247 OFFCURVE",
"884 -247 CURVE SMOOTH",
"916 -247 OFFCURVE",
"949 -232 OFFCURVE",
"997 -195 CURVE",
"1019 -277 LINE",
"966 -325 OFFCURVE",
"893 -360 OFFCURVE",
"802 -360 CURVE SMOOTH",
"745 -360 OFFCURVE",
"703 -337 OFFCURVE",
"683 -301 CURVE SMOOTH",
"673 -284 OFFCURVE",
"668 -266 OFFCURVE",
"668 -247 CURVE SMOOTH",
"668 -208 OFFCURVE",
"682 -163 OFFCURVE",
"703 -135 CURVE SMOOTH",
"738 -90 OFFCURVE",
"776 -58 OFFCURVE",
"808 -38 CURVE SMOOTH",
"823 -29 OFFCURVE",
"845 -16 OFFCURVE",
"874 0 CURVE",
"694 0 LINE",
"698 75 LINE",
"832 100 LINE",
"789 374 LINE",
"302 374 LINE",
"173 101 LINE",
"310 75 LINE",
"305 0 LINE",
"-103 0 LINE",
"-95 75 LINE",
"7 100 LINE",
"615 1309 LINE"
);
},
{
closed = 1;
nodes = (
"773 479 LINE",
"684 1060 LINE",
"674 1164 LINE",
"351 479 LINE"
);
}
);
width = 1154;
}
);
note = Aogonek;
unicode = 0104;
},
{
glyphname = Aring;
layers = (
{
layerId = "19CE7369-CF6C-4B47-B909-15D5A24EDA33";
name = "Regular Italic";
paths = (
{
closed = 1;
nodes = (
"610 1299 LINE",
"514 1324 OFFCURVE",
"461 1394 OFFCURVE",
"461 1487 CURVE SMOOTH",
"461 1580 OFFCURVE",
"528 1653 OFFCURVE",
"621 1692 CURVE SMOOTH",
"668 1711 OFFCURVE",
"715 1721 OFFCURVE",
"763 1721 CURVE SMOOTH",
"860 1721 OFFCURVE",
"933 1686 OFFCURVE",
"972 1629 CURVE SMOOTH",
"991 1600 OFFCURVE",
"1001 1568 OFFCURVE",
"1001 1532 CURVE SMOOTH",
"1001 1409 OFFCURVE",
"913 1326 OFFCURVE",
"793 1298 CURVE",
"1009 102 LINE",
"1143 75 LINE",
"1137 0 LINE",
"694 0 LINE",
"698 75 LINE",
"832 100 LINE",
"789 374 LINE",
"302 374 LINE",
"173 101 LINE",
"310 75 LINE",
"305 0 LINE",
"-103 0 LINE",
"-95 75 LINE",
"7 100 LINE"
);
},
{
closed = 1;
nodes = (
"878 1568 OFFCURVE",
"855 1607 OFFCURVE",
"816 1628 CURVE SMOOTH",
"796 1638 OFFCURVE",
"774 1643 OFFCURVE",
"749 1643 CURVE SMOOTH",
"692 1643 OFFCURVE",
"639 1618 OFFCURVE",
"608 1574 CURVE",
"593 1551 OFFCURVE",
"585 1525 OFFCURVE",
"585 1496 CURVE SMOOTH",
"585 1420 OFFCURVE",
"635 1363 OFFCURVE",
"716 1363 CURVE SMOOTH",
"809 1363 OFFCURVE",
"878 1417 OFFCURVE",
"878 1524 CURVE SMOOTH"
);
},
{
closed = 1;
nodes = (
"773 479 LINE",
"684 1060 LINE",
"674 1164 LINE",
"351 479 LINE"
);
}
);
width = 1154;
}
);
note = Aring;
unicode = 00C5;
},
{
glyphname = Atilde;
layers = (
{
layerId = "19CE7369-CF6C-4B47-B909-15D5A24EDA33";
name = "Regular Italic";
paths = (
{
closed = 1;
nodes = (
"791 1309 LINE",
"1009 102 LINE",
"1143 75 LINE",
"1137 0 LINE",
"694 0 LINE",
"698 75 LINE",
"832 100 LINE",
"789 374 LINE",
"302 374 LINE",
"173 101 LINE",
"310 75 LINE",
"305 0 LINE",
"-103 0 LINE",
"-95 75 LINE",
"7 100 LINE",
"615 1309 LINE"
);
},
{
closed = 1;
nodes = (
"773 479 LINE",
"684 1060 LINE",
"674 1164 LINE",
"351 479 LINE"
);
},
{
closed = 1;
nodes = (
"421 1549 LINE",
"452 1630 OFFCURVE",
"522 1695 OFFCURVE",
"614 1695 CURVE SMOOTH",
"670 1695 OFFCURVE",
"706 1672 OFFCURVE",
"759 1628 CURVE",
"807 1591 OFFCURVE",
"831 1574 OFFCURVE",
"868 1574 CURVE SMOOTH",
"911 1574 OFFCURVE",
"942 1592 OFFCURVE",
"960 1610 CURVE SMOOTH",
"969 1619 OFFCURVE",
"980 1632 OFFCURVE",
"994 1649 CURVE",
"1044 1578 LINE",
"1016 1501 OFFCURVE",
"949 1432 OFFCURVE",
"852 1432 CURVE SMOOTH",
"793 1432 OFFCURVE",
"758 1454 OFFCURVE",
"706 1498 CURVE SMOOTH",
"661 1535 OFFCURVE",
"635 1553 OFFCURVE",
"595 1553 CURVE SMOOTH",
"544 1553 OFFCURVE",
"507 1526 OFFCURVE",
"471 1478 CURVE"
);
}
);
width = 1154;
}
);
note = Atilde;
unicode = 00C3;
},
{
glyphname = AE;
layers = (
{
layerId = "19CE7369-CF6C-4B47-B909-15D5A24EDA33";
name = "Regular Italic";
paths = (
{
closed = 1;
nodes = (
"710 100 LINE",
"746 408 LINE",
"339 408 LINE",
"182 101 LINE",
"345 75 LINE",
"340 0 LINE",
"-141 0 LINE",
"-129 75 LINE",
"3 100 LINE",
"606 1203 LINE",
"356 1222 LINE",
"368 1309 LINE",
"1508 1309 LINE",
"1502 1058 LINE",
"1406 1058 LINE",
"1366 1203 LINE",
"1024 1216 LINE",
"961 728 LINE",
"1306 749 LINE",
"1293 605 LINE",
"952 620 LINE",
"889 101 LINE",
"1329 121 LINE",
"1412 285 LINE",
"1504 258 LINE",
"1448 0 LINE",
"598 0 LINE",
"606 75 LINE"
);
},
{
closed = 1;
nodes = (
"392 513 LINE",
"759 513 LINE",
"840 1196 LINE",
"742 1201 LINE"
);
}
);
width = 1563;
}
);
note = AE;
unicode = 00C6;
},
{
glyphname = AEacute;
layers = (
{
layerId = "19CE7369-CF6C-4B47-B909-15D5A24EDA33";
name = "Regular Italic";
paths = (
{
closed = 1;
nodes = (
"1200 1721 LINE",
"1309 1617 LINE",
"1281 1557 OFFCURVE",
"1204 1490 OFFCURVE",
"1124 1440 CURVE SMOOTH",
"1083 1415 OFFCURVE",
"1048 1396 OFFCURVE",
"1019 1385 CURVE",
"963 1427 LINE"
);
},
{
closed = 1;
nodes = (
"710 100 LINE",
"746 408 LINE",
"339 408 LINE",
"182 101 LINE",
"345 75 LINE",
"340 0 LINE",
"-141 0 LINE",
"-129 75 LINE",
"3 100 LINE",
"606 1203 LINE",
"356 1222 LINE",
"368 1309 LINE",
"1508 1309 LINE",
"1502 1058 LINE",
"1406 1058 LINE",
"1366 1203 LINE",
"1024 1216 LINE",
"961 728 LINE",
"1306 749 LINE",
"1293 605 LINE",
"952 620 LINE",
"889 101 LINE",
"1329 121 LINE",
"1412 285 LINE",
"1504 258 LINE",
"1448 0 LINE",
"598 0 LINE",
"606 75 LINE"
);
},
{
closed = 1;
nodes = (
"392 513 LINE",
"759 513 LINE",
"840 1196 LINE",
"742 1201 LINE"
);
}
);
width = 1563;
}
);
note = AEacute;
unicode = 01FC;
},
{
glyphname = B;
layers = (
{
layerId = "19CE7369-CF6C-4B47-B909-15D5A24EDA33";
name = "Regular Italic";
paths = (
{
closed = 1;
nodes = (
"159 101 LINE",
"298 1202 LINE",
"183 1222 LINE",
"194 1309 LINE",
"390 1309 LINE SMOOTH",
"434 1309 OFFCURVE",
"499 1314 OFFCURVE",
"516 1315 CURVE SMOOTH",
"575 1320 OFFCURVE",
"620 1322 OFFCURVE",
"653 1322 CURVE SMOOTH",
"824 1322 OFFCURVE",
"938 1267 OFFCURVE",
"993 1184 CURVE SMOOTH",
"1048 1101 OFFCURVE",
"1061 941 OFFCURVE",
"971 826 CURVE SMOOTH",
"926 768 OFFCURVE",
"861 725 OFFCURVE",
"777 697 CURVE",
"874 682 OFFCURVE",
"953 630 OFFCURVE",
"997 549 CURVE SMOOTH",
"1018 508 OFFCURVE",
"1029 463 OFFCURVE",
"1029 413 CURVE SMOOTH",
"1029 218 OFFCURVE",
"917 91 OFFCURVE",
"743 32 CURVE SMOOTH",
"656 3 OFFCURVE",
"558 -12 OFFCURVE",
"450 -12 CURVE SMOOTH",
"415 -12 OFFCURVE",
"354 -7 OFFCURVE",
"335 -6 CURVE",
"290 -2 OFFCURVE",
"254 0 OFFCURVE",
"229 0 CURVE SMOOTH",
"24 0 LINE",
"32 75 LINE"
);
},
{
closed = 1;
nodes = (
"412 733 LINE",
"437 732 OFFCURVE",
"458 731 OFFCURVE",
"475 731 CURVE SMOOTH",
"561 732 LINE SMOOTH",
"676 732 OFFCURVE",
"770 772 OFFCURVE",
"823 857 CURVE SMOOTH",
"849 899 OFFCURVE",
"862 952 OFFCURVE",
"862 1016 CURVE SMOOTH",
"862 1111 OFFCURVE",
"832 1170 OFFCURVE",
"759 1199 CURVE SMOOTH",
"722 1214 OFFCURVE",
"673 1221 OFFCURVE",
"612 1221 CURVE SMOOTH",
"573 1221 OFFCURVE",
"508 1219 OFFCURVE",
"472 1212 CURVE"
);
},
{
closed = 1;
nodes = (
"334 109 LINE",
"362 98 OFFCURVE",
"439 92 OFFCURVE",
"487 92 CURVE SMOOTH",
"710 92 OFFCURVE",
"842 182 OFFCURVE",
"842 393 CURVE SMOOTH",
"842 550 OFFCURVE",
"766 624 OFFCURVE",
"590 624 CURVE SMOOTH",
"518 624 OFFCURVE",
"454 622 OFFCURVE",
"397 617 CURVE"
);
}
);
width = 1113;
}
);
note = B;
unicode = 0042;
},
{
glyphname = C;
layers = (
{
layerId = "19CE7369-CF6C-4B47-B909-15D5A24EDA33";
name = "Regular Italic";
paths = (
{
closed = 1;
nodes = (
"853 1323 OFFCURVE",
"939 1306 OFFCURVE",
"1023 1283 CURVE SMOOTH",
"1055 1274 LINE",
"998 957 LINE",
"894 957 LINE",
"873 1182 LINE",
"837 1207 OFFCURVE",
"788 1221 OFFCURVE",
"695 1221 CURVE SMOOTH",
"495 1221 OFFCURVE",
"367 1067 OFFCURVE",
"309 868 CURVE SMOOTH",
"280 768 OFFCURVE",
"265 669 OFFCURVE",
"265 572 CURVE SMOOTH",
"265 405 OFFCURVE",
"302 251 OFFCURVE",
"390 159 CURVE SMOOTH",
"433 112 OFFCURVE",
"488 89 OFFCURVE",
"555 89 CURVE SMOOTH",
"646 89 OFFCURVE",
"750 118 OFFCURVE",
"783 177 CURVE",
"789 195 OFFCURVE",
"799 223 OFFCURVE",
"812 262 CURVE SMOOTH",
"825 300 OFFCURVE",
"835 328 OFFCURVE",
"841 347 CURVE",
"948 346 LINE",
"913 63 LINE",
"892 56 LINE SMOOTH",
"781 17 OFFCURVE",
"672 -14 OFFCURVE",
"520 -14 CURVE SMOOTH",
"316 -14 OFFCURVE",
"184 108 OFFCURVE",
"124 281 CURVE SMOOTH",
"94 368 OFFCURVE",
"79 460 OFFCURVE",
"79 559 CURVE SMOOTH",
"79 858 OFFCURVE",
"204 1099 OFFCURVE",
"399 1227 CURVE SMOOTH",
"496 1291 OFFCURVE",
"602 1323 OFFCURVE",
"717 1323 CURVE SMOOTH"
);
}
);
width = 1053;
}
);
note = C;
unicode = 0043;
},
{
glyphname = Cacute;
layers = (
{
layerId = "19CE7369-CF6C-4B47-B909-15D5A24EDA33";
name = "Regular Italic";
paths = (
{
closed = 1;
nodes = (
"853 1323 OFFCURVE",
"939 1306 OFFCURVE",
"1023 1283 CURVE SMOOTH",
"1055 1274 LINE",
"998 957 LINE",
"894 957 LINE",
"873 1182 LINE",
"837 1207 OFFCURVE",
"788 1221 OFFCURVE",
"695 1221 CURVE SMOOTH",
"495 1221 OFFCURVE",
"367 1067 OFFCURVE",
"309 868 CURVE SMOOTH",
"280 768 OFFCURVE",
"265 669 OFFCURVE",
"265 572 CURVE SMOOTH",
"265 405 OFFCURVE",
"302 251 OFFCURVE",
"390 159 CURVE SMOOTH",
"433 112 OFFCURVE",
"488 89 OFFCURVE",
"555 89 CURVE SMOOTH",
"646 89 OFFCURVE",
"750 118 OFFCURVE",
"783 177 CURVE",
"789 195 OFFCURVE",
"799 223 OFFCURVE",
"812 262 CURVE SMOOTH",
"825 300 OFFCURVE",
"835 328 OFFCURVE",
"841 347 CURVE",
"948 346 LINE",
"913 63 LINE",
"892 56 LINE SMOOTH",
"781 17 OFFCURVE",
"672 -14 OFFCURVE",
"520 -14 CURVE SMOOTH",
"316 -14 OFFCURVE",
"184 108 OFFCURVE",
"124 281 CURVE SMOOTH",
"94 368 OFFCURVE",
"79 460 OFFCURVE",
"79 559 CURVE SMOOTH",
"79 858 OFFCURVE",
"204 1099 OFFCURVE",
"399 1227 CURVE SMOOTH",
"496 1291 OFFCURVE",
"602 1323 OFFCURVE",
"717 1323 CURVE SMOOTH"
);
},
{
closed = 1;
nodes = (
"855 1721 LINE",
"964 1617 LINE",
"936 1557 OFFCURVE",
"859 1490 OFFCURVE",
"779 1440 CURVE SMOOTH",
"738 1415 OFFCURVE",
"703 1396 OFFCURVE",
"674 1385 CURVE",
"618 1427 LINE"
);
}
);
width = 1053;
}
);
note = Cacute;
unicode = 0106;
},
{
glyphname = Ccaron;
layers = (
{
layerId = "19CE7369-CF6C-4B47-B909-15D5A24EDA33";
name = "Regular Italic";
paths = (
{
closed = 1;
nodes = (
"853 1323 OFFCURVE",
"939 1306 OFFCURVE",
"1023 1283 CURVE SMOOTH",
"1055 1274 LINE",
"998 957 LINE",
"894 957 LINE",
"873 1182 LINE",
"837 1207 OFFCURVE",
"788 1221 OFFCURVE",
"695 1221 CURVE SMOOTH",
"495 1221 OFFCURVE",
"367 1067 OFFCURVE",
"309 868 CURVE SMOOTH",
"280 768 OFFCURVE",
"265 669 OFFCURVE",
"265 572 CURVE SMOOTH",
"265 405 OFFCURVE",
"302 251 OFFCURVE",
"390 159 CURVE SMOOTH",
"433 112 OFFCURVE",
"488 89 OFFCURVE",
"555 89 CURVE SMOOTH",
"646 89 OFFCURVE",
"750 118 OFFCURVE",
"783 177 CURVE",
"789 195 OFFCURVE",
"799 223 OFFCURVE",
"812 262 CURVE SMOOTH",
"825 300 OFFCURVE",
"835 328 OFFCURVE",
"841 347 CURVE",
"948 346 LINE",
"913 63 LINE",
"892 56 LINE SMOOTH",
"781 17 OFFCURVE",
"672 -14 OFFCURVE",
"520 -14 CURVE SMOOTH",
"316 -14 OFFCURVE",
"184 108 OFFCURVE",
"124 281 CURVE SMOOTH",
"94 368 OFFCURVE",
"79 460 OFFCURVE",
"79 559 CURVE SMOOTH",
"79 858 OFFCURVE",
"204 1099 OFFCURVE",
"399 1227 CURVE SMOOTH",
"496 1291 OFFCURVE",
"602 1323 OFFCURVE",
"717 1323 CURVE SMOOTH"
);
},
{
closed = 1;
nodes = (
"496 1721 LINE",
"700 1520 LINE",
"972 1721 LINE",
"1027 1672 LINE",
"771 1396 LINE",
"621 1396 LINE",
"430 1671 LINE"
);
}
);
width = 1053;
}
);
note = Ccaron;
unicode = 010C;
},
{
glyphname = Ccedilla;
layers = (
{
layerId = "19CE7369-CF6C-4B47-B909-15D5A24EDA33";
name = "Regular Italic";
paths = (
{
closed = 1;
nodes = (
"495 1221 OFFCURVE",
"367 1067 OFFCURVE",
"309 868 CURVE SMOOTH",
"280 768 OFFCURVE",
"265 669 OFFCURVE",
"265 572 CURVE SMOOTH",
"265 405 OFFCURVE",
"302 251 OFFCURVE",
"390 159 CURVE SMOOTH",
"433 112 OFFCURVE",
"488 89 OFFCURVE",
"555 89 CURVE SMOOTH",
"646 89 OFFCURVE",
"750 118 OFFCURVE",
"783 177 CURVE",
"789 195 OFFCURVE",
"799 223 OFFCURVE",
"812 262 CURVE SMOOTH",
"825 300 OFFCURVE",
"835 328 OFFCURVE",
"841 347 CURVE",
"948 346 LINE",
"913 63 LINE",
"912 62 OFFCURVE",
"905 60 OFFCURVE",
"894 56 CURVE SMOOTH",
"803 24 OFFCURVE",
"720 -1 OFFCURVE",
"605 -10 CURVE",
"611 -35 OFFCURVE",
"614 -64 OFFCURVE",
"614 -97 CURVE SMOOTH",
"614 -229 OFFCURVE",
"568 -320 OFFCURVE",
"495 -364 CURVE SMOOTH",
"458 -387 OFFCURVE",
"417 -398 OFFCURVE",
"371 -398 CURVE SMOOTH",
"324 -398 OFFCURVE",
"278 -387 OFFCURVE",
"258 -374 CURVE",
"272 -244 LINE",
"285 -251 OFFCURVE",
"322 -256 OFFCURVE",
"350 -256 CURVE SMOOTH",
"446 -256 OFFCURVE",
"507 -173 OFFCURVE",
"507 -42 CURVE SMOOTH",
"507 -29 OFFCURVE",
"507 -19 OFFCURVE",
"507 -14 CURVE",
"312 -7 OFFCURVE",
"186 109 OFFCURVE",
"126 274 CURVE SMOOTH",
"66 439 OFFCURVE",
"46 708 OFFCURVE",
"161 947 CURVE SMOOTH",
"276 1186 OFFCURVE",
"485 1323 OFFCURVE",
"717 1323 CURVE SMOOTH",
"853 1323 OFFCURVE",
"939 1306 OFFCURVE",
"1023 1283 CURVE SMOOTH",
"1055 1274 LINE",
"998 957 LINE",
"894 957 LINE",
"873 1182 LINE",
"837 1207 OFFCURVE",
"788 1221 OFFCURVE",
"695 1221 CURVE SMOOTH"
);
}
);
width = 1053;
}
);
note = Ccedilla;
unicode = 00C7;
},
{
glyphname = Ccircumflex;
layers = (
{
layerId = "19CE7369-CF6C-4B47-B909-15D5A24EDA33";
name = "Regular Italic";
paths = (
{
closed = 1;
nodes = (
"853 1323 OFFCURVE",
"939 1306 OFFCURVE",
"1023 1283 CURVE SMOOTH",
"1055 1274 LINE",
"998 957 LINE",
"894 957 LINE",
"873 1182 LINE",
"837 1207 OFFCURVE",
"788 1221 OFFCURVE",
"695 1221 CURVE SMOOTH",
"495 1221 OFFCURVE",
"367 1067 OFFCURVE",
"309 868 CURVE SMOOTH",
"280 768 OFFCURVE",
"265 669 OFFCURVE",
"265 572 CURVE SMOOTH",
"265 405 OFFCURVE",
"302 251 OFFCURVE",
"390 159 CURVE SMOOTH",
"433 112 OFFCURVE",
"488 89 OFFCURVE",
"555 89 CURVE SMOOTH",
"646 89 OFFCURVE",
"750 118 OFFCURVE",
"783 177 CURVE",
"789 195 OFFCURVE",
"799 223 OFFCURVE",
"812 262 CURVE SMOOTH",
"825 300 OFFCURVE",
"835 328 OFFCURVE",
"841 347 CURVE",
"948 346 LINE",
"913 63 LINE",
"892 56 LINE SMOOTH",
"781 17 OFFCURVE",
"672 -14 OFFCURVE",
"520 -14 CURVE SMOOTH",
"316 -14 OFFCURVE",
"184 108 OFFCURVE",
"124 281 CURVE SMOOTH",
"94 368 OFFCURVE",
"79 460 OFFCURVE",
"79 559 CURVE SMOOTH",
"79 858 OFFCURVE",
"204 1099 OFFCURVE",
"399 1227 CURVE SMOOTH",
"496 1291 OFFCURVE",
"602 1323 OFFCURVE",
"717 1323 CURVE SMOOTH"
);
},
{
closed = 1;
nodes = (
"668 1721 LINE",
"820 1721 LINE",
"1003 1447 LINE",
"941 1396 LINE",
"736 1591 LINE",
"457 1397 LINE",
"403 1447 LINE"
);
}
);
width = 1053;
}
);
note = Ccircumflex;
unicode = 0108;
},
{
glyphname = Cdotaccent;
layers = (
{
layerId = "19CE7369-CF6C-4B47-B909-15D5A24EDA33";
name = "Regular Italic";
paths = (
{
closed = 1;
nodes = (
"596 1596 OFFCURVE",
"624 1638 OFFCURVE",
"663 1663 CURVE SMOOTH",
"682 1675 OFFCURVE",
"702 1681 OFFCURVE",
"721 1681 CURVE SMOOTH",
"785 1681 OFFCURVE",
"829 1639 OFFCURVE",
"829 1586 CURVE SMOOTH",
"829 1539 OFFCURVE",
"803 1496 OFFCURVE",
"763 1471 CURVE SMOOTH",
"742 1458 OFFCURVE",
"720 1452 OFFCURVE",
"696 1452 CURVE SMOOTH",
"641 1452 OFFCURVE",
"596 1498 OFFCURVE",
"596 1551 CURVE SMOOTH"
);
},
{
closed = 1;
nodes = (
"853 1323 OFFCURVE",
"939 1306 OFFCURVE",
"1023 1283 CURVE SMOOTH",
"1055 1274 LINE",
"998 957 LINE",
"894 957 LINE",
"873 1182 LINE",
"837 1207 OFFCURVE",
"788 1221 OFFCURVE",
"695 1221 CURVE SMOOTH",
"495 1221 OFFCURVE",
"367 1067 OFFCURVE",
"309 868 CURVE SMOOTH",
"280 768 OFFCURVE",
"265 669 OFFCURVE",
"265 572 CURVE SMOOTH",
"265 405 OFFCURVE",
"302 251 OFFCURVE",
"390 159 CURVE SMOOTH",
"433 112 OFFCURVE",
"488 89 OFFCURVE",
"555 89 CURVE SMOOTH",
"646 89 OFFCURVE",
"750 118 OFFCURVE",
"783 177 CURVE",
"789 195 OFFCURVE",
"799 223 OFFCURVE",
"812 262 CURVE SMOOTH",
"825 300 OFFCURVE",
"835 328 OFFCURVE",
"841 347 CURVE",
"948 346 LINE",
"913 63 LINE",
"892 56 LINE SMOOTH",
"781 17 OFFCURVE",
"672 -14 OFFCURVE",
"520 -14 CURVE SMOOTH",
"316 -14 OFFCURVE",
"184 108 OFFCURVE",
"124 281 CURVE SMOOTH",
"94 368 OFFCURVE",
"79 460 OFFCURVE",
"79 559 CURVE SMOOTH",
"79 858 OFFCURVE",
"204 1099 OFFCURVE",
"399 1227 CURVE SMOOTH",
"496 1291 OFFCURVE",
"602 1323 OFFCURVE",
"717 1323 CURVE SMOOTH"
);
}
);
width = 1053;
}
);
note = Cdotaccent;
unicode = 010A;
},
{
glyphname = D;
layers = (
{
layerId = "19CE7369-CF6C-4B47-B909-15D5A24EDA33";
name = "Regular Italic";
paths = (
{
closed = 1;
nodes = (
"158 101 LINE",
"298 1202 LINE",
"183 1222 LINE",
"194 1309 LINE",
"449 1309 LINE SMOOTH",
"471 1309 OFFCURVE",
"507 1311 OFFCURVE",
"556 1316 CURVE SMOOTH",
"610 1321 OFFCURVE",
"651 1323 OFFCURVE",
"680 1323 CURVE SMOOTH",
"1025 1323 OFFCURVE",
"1179 1120 OFFCURVE",
"1179 772 CURVE SMOOTH",
"1179 476 OFFCURVE",
"1060 221 OFFCURVE",
"855 84 CURVE SMOOTH",
"752 15 OFFCURVE",
"635 -17 OFFCURVE",
"504 -14 CURVE SMOOTH",
"468 -13 OFFCURVE",
"436 -11 OFFCURVE",
"408 -8 CURVE SMOOTH",
"360 -3 OFFCURVE",
"284 0 OFFCURVE",
"236 0 CURVE SMOOTH",
"22 0 LINE",
"31 75 LINE"
);
},
{
closed = 1;
nodes = (
"335 114 LINE",
"382 97 OFFCURVE",
"480 88 OFFCURVE",
"547 87 CURVE",
"751 100 OFFCURVE",
"887 244 OFFCURVE",
"951 443 CURVE SMOOTH",
"982 542 OFFCURVE",
"998 648 OFFCURVE",
"998 759 CURVE SMOOTH",
"998 990 OFFCURVE",
"951 1118 OFFCURVE",
"845 1178 CURVE SMOOTH",
"792 1208 OFFCURVE",
"720 1223 OFFCURVE",
"630 1223 CURVE SMOOTH",
"582 1223 OFFCURVE",
"505 1214 OFFCURVE",
"472 1205 CURVE"
);
}
);
width = 1233;
}
);
note = D;
unicode = 0044;
},
{
glyphname = Eth;
layers = (
{
layerId = "19CE7369-CF6C-4B47-B909-15D5A24EDA33";
name = "Regular Italic";
paths = (
{
closed = 1;
nodes = (
"230 734 LINE",
"290 1204 LINE",
"175 1224 LINE",
"186 1311 LINE",
"441 1311 LINE SMOOTH",
"464 1311 OFFCURVE",
"500 1313 OFFCURVE",
"549 1318 CURVE SMOOTH",
"603 1322 OFFCURVE",
"644 1324 OFFCURVE",
"673 1324 CURVE SMOOTH",
"1017 1324 OFFCURVE",
"1171 1122 OFFCURVE",
"1171 774 CURVE SMOOTH",
"1171 477 OFFCURVE",
"1052 222 OFFCURVE",
"847 86 CURVE SMOOTH",
"744 17 OFFCURVE",
"627 -15 OFFCURVE",
"496 -12 CURVE SMOOTH",
"460 -11 OFFCURVE",
"428 -9 OFFCURVE",
"400 -6 CURVE SMOOTH",
"352 -2 OFFCURVE",
"276 2 OFFCURVE",
"229 2 CURVE SMOOTH",
"15 2 LINE",
"23 77 LINE",
"150 102 LINE",
"216 620 LINE",
"87 620 LINE",
"101 734 LINE"
);
},
{
closed = 1;
nodes = (
"328 115 LINE",
"373 99 OFFCURVE",
"472 89 OFFCURVE",
"539 89 CURVE",
"743 102 OFFCURVE",
"879 247 OFFCURVE",
"943 445 CURVE SMOOTH",
"975 544 OFFCURVE",
"991 649 OFFCURVE",
"991 761 CURVE SMOOTH",
"991 992 OFFCURVE",
"944 1120 OFFCURVE",
"837 1180 CURVE SMOOTH",
"784 1210 OFFCURVE",
"712 1225 OFFCURVE",
"623 1225 CURVE SMOOTH",
"575 1225 OFFCURVE",
"497 1215 OFFCURVE",
"464 1207 CURVE",
"405 734 LINE",
"738 734 LINE",
"723 620 LINE",
"390 620 LINE"
);
}
);
width = 1229;
}
);
note = Eth;
unicode = 00D0;
},
{
glyphname = Dcaron;
layers = (
{
layerId = "19CE7369-CF6C-4B47-B909-15D5A24EDA33";
name = "Regular Italic";
paths = (
{
closed = 1;
nodes = (
"491 1721 LINE",
"695 1520 LINE",
"967 1721 LINE",
"1022 1672 LINE",
"766 1396 LINE",
"616 1396 LINE",
"425 1671 LINE"
);
},
{
closed = 1;
nodes = (
"150 101 LINE",
"290 1202 LINE",
"175 1222 LINE",
"186 1309 LINE",
"441 1309 LINE SMOOTH",
"463 1309 OFFCURVE",
"499 1311 OFFCURVE",
"548 1316 CURVE SMOOTH",
"602 1321 OFFCURVE",
"643 1323 OFFCURVE",
"672 1323 CURVE SMOOTH",
"1017 1323 OFFCURVE",
"1171 1120 OFFCURVE",
"1171 772 CURVE SMOOTH",
"1171 476 OFFCURVE",
"1052 221 OFFCURVE",
"847 84 CURVE SMOOTH",
"744 15 OFFCURVE",
"627 -17 OFFCURVE",
"496 -14 CURVE SMOOTH",
"460 -13 OFFCURVE",
"428 -11 OFFCURVE",
"400 -8 CURVE SMOOTH",
"352 -3 OFFCURVE",
"276 0 OFFCURVE",
"228 0 CURVE SMOOTH",
"14 0 LINE",
"23 75 LINE"
);
},
{
closed = 1;
nodes = (
"327 114 LINE",
"374 97 OFFCURVE",
"472 88 OFFCURVE",
"539 87 CURVE",
"743 100 OFFCURVE",
"879 244 OFFCURVE",
"943 443 CURVE SMOOTH",
"974 542 OFFCURVE",
"990 648 OFFCURVE",
"990 759 CURVE SMOOTH",
"990 990 OFFCURVE",
"943 1118 OFFCURVE",
"837 1178 CURVE SMOOTH",
"784 1208 OFFCURVE",
"712 1223 OFFCURVE",
"622 1223 CURVE SMOOTH",
"574 1223 OFFCURVE",
"497 1214 OFFCURVE",
"464 1205 CURVE"
);
}
);
width = 1231;
}
);
note = Dcaron;
unicode = 010E;
},
{
glyphname = Dcroat;
layers = (
{
layerId = "19CE7369-CF6C-4B47-B909-15D5A24EDA33";
name = "Regular Italic";
paths = (
{
closed = 1;
nodes = (
"230 734 LINE",
"290 1204 LINE",
"175 1224 LINE",
"186 1311 LINE",
"441 1311 LINE SMOOTH",
"464 1311 OFFCURVE",
"500 1313 OFFCURVE",
"549 1318 CURVE SMOOTH",
"603 1322 OFFCURVE",
"644 1324 OFFCURVE",
"673 1324 CURVE SMOOTH",
"1017 1324 OFFCURVE",
"1171 1122 OFFCURVE",
"1171 774 CURVE SMOOTH",
"1171 477 OFFCURVE",
"1052 222 OFFCURVE",
"847 86 CURVE SMOOTH",
"744 17 OFFCURVE",
"627 -15 OFFCURVE",
"496 -12 CURVE SMOOTH",
"460 -11 OFFCURVE",
"428 -9 OFFCURVE",
"400 -6 CURVE SMOOTH",
"352 -2 OFFCURVE",
"276 2 OFFCURVE",
"229 2 CURVE SMOOTH",
"15 2 LINE",
"23 77 LINE",
"150 102 LINE",
"216 620 LINE",
"87 620 LINE",
"101 734 LINE"
);
},
{
closed = 1;
nodes = (
"328 115 LINE",
"373 99 OFFCURVE",
"472 89 OFFCURVE",
"539 89 CURVE",
"743 102 OFFCURVE",
"879 247 OFFCURVE",
"943 445 CURVE SMOOTH",
"975 544 OFFCURVE",
"991 649 OFFCURVE",
"991 761 CURVE SMOOTH",
"991 992 OFFCURVE",
"944 1120 OFFCURVE",
"837 1180 CURVE SMOOTH",
"784 1210 OFFCURVE",
"712 1225 OFFCURVE",
"623 1225 CURVE SMOOTH",
"575 1225 OFFCURVE",
"497 1215 OFFCURVE",
"464 1207 CURVE",
"405 734 LINE",
"738 734 LINE",
"723 620 LINE",
"390 620 LINE"
);
}
);
width = 1230;
}
);
note = Dcroat;
unicode = 0110;
},
{
glyphname = E;
layers = (
{
layerId = "19CE7369-CF6C-4B47-B909-15D5A24EDA33";
name = "Regular Italic";
paths = (
{
closed = 1;
nodes = (
"159 100 LINE",
"297 1202 LINE",
"182 1222 LINE",
"193 1309 LINE",
"996 1309 LINE",
"989 1041 LINE",
"894 1041 LINE",
"853 1203 LINE",
"477 1216 LINE",
"415 735 LINE",
"801 742 LINE",
"789 605 LINE",
"405 620 LINE",
"334 101 LINE",
"804 121 LINE",
"906 303 LINE",
"1000 277 LINE",
"924 0 LINE",
"22 0 LINE",
"31 75 LINE"
);
}
);
width = 1059;
}
);
note = E;
unicode = 0045;
},
{
glyphname = Eacute;
layers = (
{
layerId = "19CE7369-CF6C-4B47-B909-15D5A24EDA33";
name = "Regular Italic";
paths = (
{
closed = 1;
nodes = (
"824 1721 LINE",
"933 1617 LINE",
"905 1557 OFFCURVE",
"828 1490 OFFCURVE",
"748 1440 CURVE SMOOTH",
"707 1415 OFFCURVE",
"672 1396 OFFCURVE",
"643 1385 CURVE",
"587 1427 LINE"
);
},
{
closed = 1;
nodes = (
"159 100 LINE",
"297 1202 LINE",
"182 1222 LINE",
"193 1309 LINE",
"996 1309 LINE",
"989 1041 LINE",
"894 1041 LINE",
"853 1203 LINE",
"477 1216 LINE",
"415 735 LINE",
"801 742 LINE",
"789 605 LINE",
"405 620 LINE",
"334 101 LINE",
"804 121 LINE",
"906 303 LINE",
"1000 277 LINE",
"924 0 LINE",
"22 0 LINE",
"31 75 LINE"
);
}
);
width = 1059;
}
);
note = Eacute;
unicode = 00C9;
},
{
glyphname = Ebreve;
layers = (
{
layerId = "19CE7369-CF6C-4B47-B909-15D5A24EDA33";
name = "Regular Italic";
paths = (
{
closed = 1;
nodes = (
"418 1678 OFFCURVE",
"419 1691 OFFCURVE",
"421 1703 CURVE",
"516 1703 LINE",
"521 1646 OFFCURVE",
"531 1598 OFFCURVE",
"576 1559 CURVE SMOOTH",
"598 1539 OFFCURVE",
"630 1529 OFFCURVE",
"673 1529 CURVE SMOOTH",
"767 1529 OFFCURVE",
"830 1587 OFFCURVE",
"862 1703 CURVE",
"952 1703 LINE",
"952 1607 OFFCURVE",
"895 1505 OFFCURVE",
"807 1445 CURVE SMOOTH",
"763 1415 OFFCURVE",
"717 1400 OFFCURVE",
"668 1400 CURVE SMOOTH",
"555 1400 OFFCURVE",
"479 1455 OFFCURVE",
"444 1535 CURVE SMOOTH",
"427 1574 OFFCURVE",
"418 1617 OFFCURVE",
"418 1663 CURVE SMOOTH"
);
},
{
closed = 1;
nodes = (
"159 100 LINE",
"297 1202 LINE",
"182 1222 LINE",
"193 1309 LINE",
"996 1309 LINE",
"989 1041 LINE",
"894 1041 LINE",
"853 1203 LINE",
"477 1216 LINE",
"415 735 LINE",
"801 742 LINE",
"789 605 LINE",
"405 620 LINE",
"334 101 LINE",
"804 121 LINE",
"906 303 LINE",
"1000 277 LINE",
"924 0 LINE",
"22 0 LINE",
"31 75 LINE"
);
}
);
width = 1059;
}
);
note = Ebreve;
unicode = 0114;
},
{
glyphname = Ecaron;
layers = (
{
layerId = "19CE7369-CF6C-4B47-B909-15D5A24EDA33";
name = "Regular Italic";
paths = (
{
closed = 1;
nodes = (
"465 1721 LINE",
"669 1520 LINE",
"941 1721 LINE",
"996 1672 LINE",
"740 1396 LINE",
"590 1396 LINE",
"399 1671 LINE"
);
},
{
closed = 1;
nodes = (
"159 100 LINE",
"297 1202 LINE",
"182 1222 LINE",
"193 1309 LINE",
"996 1309 LINE",
"989 1041 LINE",
"894 1041 LINE",
"853 1203 LINE",
"477 1216 LINE",
"415 735 LINE",
"801 742 LINE",
"789 605 LINE",
"405 620 LINE",
"334 101 LINE",
"804 121 LINE",
"906 303 LINE",
"1000 277 LINE",
"924 0 LINE",
"22 0 LINE",
"31 75 LINE"
);
}
);
width = 1059;
}
);
note = Ecaron;
unicode = 011A;
},
{
glyphname = Ecircumflex;
layers = (
{
layerId = "19CE7369-CF6C-4B47-B909-15D5A24EDA33";
name = "Regular Italic";
paths = (
{
closed = 1;
nodes = (
"159 100 LINE",
"297 1202 LINE",
"182 1222 LINE",
"193 1309 LINE",
"996 1309 LINE",
"989 1041 LINE",
"894 1041 LINE",
"853 1203 LINE",
"477 1216 LINE",
"415 735 LINE",
"801 742 LINE",
"789 605 LINE",
"405 620 LINE",
"334 101 LINE",
"804 121 LINE",
"906 303 LINE",
"1000 277 LINE",
"924 0 LINE",
"22 0 LINE",
"31 75 LINE"
);
},
{
closed = 1;
nodes = (
"637 1721 LINE",
"789 1721 LINE",
"972 1447 LINE",
"910 1396 LINE",
"705 1591 LINE",
"426 1397 LINE",
"372 1447 LINE"
);
}
);
width = 1059;
}
);
note = Ecircumflex;
unicode = 00CA;
},
{
glyphname = Edieresis;
layers = (
{
layerId = "19CE7369-CF6C-4B47-B909-15D5A24EDA33";
name = "Regular Italic";
paths = (
{
closed = 1;
nodes = (
"394 1627 OFFCURVE",
"422 1669 OFFCURVE",
"460 1693 CURVE SMOOTH",
"479 1705 OFFCURVE",
"498 1711 OFFCURVE",
"518 1711 CURVE SMOOTH",
"581 1711 OFFCURVE",
"624 1669 OFFCURVE",
"624 1614 CURVE SMOOTH",
"624 1569 OFFCURVE",
"597 1526 OFFCURVE",
"557 1502 CURVE SMOOTH",
"536 1489 OFFCURVE",
"515 1483 OFFCURVE",
"492 1483 CURVE SMOOTH",
"439 1483 OFFCURVE",
"394 1529 OFFCURVE",
"394 1582 CURVE SMOOTH"
);
},
{
closed = 1;
nodes = (
"754 1628 OFFCURVE",
"783 1670 OFFCURVE",
"822 1694 CURVE SMOOTH",
"841 1705 OFFCURVE",
"861 1711 OFFCURVE",
"880 1711 CURVE SMOOTH",
"943 1711 OFFCURVE",
"985 1670 OFFCURVE",
"985 1615 CURVE SMOOTH",
"985 1570 OFFCURVE",
"959 1526 OFFCURVE",
"919 1502 CURVE SMOOTH",
"898 1489 OFFCURVE",
"876 1483 OFFCURVE",
"853 1483 CURVE SMOOTH",
"800 1483 OFFCURVE",
"754 1528 OFFCURVE",
"754 1584 CURVE SMOOTH"
);
},
{
closed = 1;
nodes = (
"159 100 LINE",
"297 1202 LINE",
"182 1222 LINE",
"193 1309 LINE",
"996 1309 LINE",
"989 1041 LINE",
"894 1041 LINE",
"853 1203 LINE",
"477 1216 LINE",
"415 735 LINE",
"801 742 LINE",
"789 605 LINE",
"405 620 LINE",
"334 101 LINE",
"804 121 LINE",
"906 303 LINE",
"1000 277 LINE",
"924 0 LINE",
"22 0 LINE",
"31 75 LINE"
);
}
);
width = 1059;
}
);
note = Edieresis;
unicode = 00CB;
},
{
glyphname = Edotaccent;
layers = (
{
layerId = "19CE7369-CF6C-4B47-B909-15D5A24EDA33";
name = "Regular Italic";
paths = (
{
closed = 1;
nodes = (
"566 1596 OFFCURVE",
"594 1638 OFFCURVE",
"633 1663 CURVE SMOOTH",
"652 1675 OFFCURVE",
"672 1681 OFFCURVE",
"691 1681 CURVE SMOOTH",
"755 1681 OFFCURVE",
"799 1639 OFFCURVE",
"799 1586 CURVE SMOOTH",
"799 1539 OFFCURVE",
"773 1496 OFFCURVE",
"733 1471 CURVE SMOOTH",
"712 1458 OFFCURVE",
"690 1452 OFFCURVE",
"666 1452 CURVE SMOOTH",
"611 1452 OFFCURVE",
"566 1498 OFFCURVE",
"566 1551 CURVE SMOOTH"
);
},
{
closed = 1;
nodes = (
"159 100 LINE",
"297 1202 LINE",
"182 1222 LINE",
"193 1309 LINE",
"996 1309 LINE",
"989 1041 LINE",
"894 1041 LINE",
"853 1203 LINE",
"477 1216 LINE",
"415 735 LINE",
"801 742 LINE",
"789 605 LINE",
"405 620 LINE",
"334 101 LINE",
"804 121 LINE",
"906 303 LINE",
"1000 277 LINE",
"924 0 LINE",
"22 0 LINE",
"31 75 LINE"
);
}
);
width = 1059;
}
);
note = Edotaccent;
unicode = 0116;
},
{
glyphname = Egrave;
layers = (
{
layerId = "19CE7369-CF6C-4B47-B909-15D5A24EDA33";
name = "Regular Italic";
paths = (
{
closed = 1;
nodes = (
"482 1721 LINE",
"708 1427 LINE",
"650 1385 LINE",
"591 1408 OFFCURVE",
"503 1462 OFFCURVE",
"435 1526 CURVE SMOOTH",
"401 1558 OFFCURVE",
"378 1588 OFFCURVE",
"366 1617 CURVE"
);
},
{
closed = 1;
nodes = (
"159 100 LINE",
"297 1202 LINE",
"182 1222 LINE",
"193 1309 LINE",
"996 1309 LINE",
"989 1041 LINE",
"894 1041 LINE",
"853 1203 LINE",
"477 1216 LINE",
"415 735 LINE",
"801 742 LINE",
"789 605 LINE",
"405 620 LINE",
"334 101 LINE",
"804 121 LINE",
"906 303 LINE",
"1000 277 LINE",
"924 0 LINE",
"22 0 LINE",
"31 75 LINE"
);
}
);
width = 1059;
}
);
note = Egrave;
unicode = 00C8;
},
{
glyphname = Emacron;
layers = (
{
layerId = "19CE7369-CF6C-4B47-B909-15D5A24EDA33";
name = "Regular Italic";
paths = (
{
closed = 1;
nodes = (
"894 1617 LINE",
"876 1486 LINE",
"437 1486 LINE",
"453 1617 LINE"
);
},
{
closed = 1;
nodes = (
"159 100 LINE",
"297 1202 LINE",
"182 1222 LINE",
"193 1309 LINE",
"996 1309 LINE",
"989 1041 LINE",
"894 1041 LINE",
"853 1203 LINE",
"477 1216 LINE",
"415 735 LINE",
"801 742 LINE",
"789 605 LINE",
"405 620 LINE",
"334 101 LINE",
"804 121 LINE",
"906 303 LINE",
"1000 277 LINE",
"924 0 LINE",
"22 0 LINE",
"31 75 LINE"
);
}
);
width = 1059;
}
);
note = Emacron;
unicode = 0112;
},
{
glyphname = Eogonek;
layers = (
{
layerId = "19CE7369-CF6C-4B47-B909-15D5A24EDA33";
name = "Regular Italic";
paths = (
{
closed = 1;
nodes = (
"159 100 LINE",
"297 1202 LINE",
"182 1222 LINE",
"193 1309 LINE",
"996 1309 LINE",
"989 1041 LINE",
"894 1041 LINE",
"853 1203 LINE",
"477 1216 LINE",
"415 735 LINE",
"801 742 LINE",
"789 605 LINE",
"405 620 LINE",
"334 101 LINE",
"804 121 LINE",
"906 303 LINE",
"1000 277 LINE",
"924 0 LINE",
"836 0 LINE",
"747 -72 OFFCURVE",
"698 -123 OFFCURVE",
"697 -174 CURVE",
"694 -223 OFFCURVE",
"719 -247 OFFCURVE",
"743 -247 CURVE SMOOTH",
"775 -247 OFFCURVE",
"808 -232 OFFCURVE",
"856 -195 CURVE",
"879 -277 LINE",
"816 -332 OFFCURVE",
"743 -360 OFFCURVE",
"660 -360 CURVE SMOOTH",
"603 -360 OFFCURVE",
"562 -337 OFFCURVE",
"542 -301 CURVE SMOOTH",
"532 -284 OFFCURVE",
"527 -266 OFFCURVE",
"527 -247 CURVE SMOOTH",
"527 -208 OFFCURVE",
"541 -163 OFFCURVE",
"562 -135 CURVE SMOOTH",
"597 -90 OFFCURVE",
"636 -57 OFFCURVE",
"665 -39 CURVE SMOOTH",
"680 -30 OFFCURVE",
"702 -17 OFFCURVE",
"733 0 CURVE",
"22 0 LINE",
"31 75 LINE"
);
}
);
width = 1060;
}
);
note = Eogonek;
unicode = 0118;
},
{
glyphname = F;
layers = (
{
layerId = "19CE7369-CF6C-4B47-B909-15D5A24EDA33";
name = "Regular Italic";
paths = (
{
closed = 1;
nodes = (
"159 101 LINE",
"297 1202 LINE",
"182 1222 LINE",
"193 1309 LINE",
"1032 1309 LINE",
"1012 1040 LINE",
"905 1040 LINE",
"880 1198 LINE",
"474 1214 LINE",
"415 734 LINE",
"820 742 LINE",
"809 604 LINE",
"405 619 LINE",
"335 102 LINE",
"566 76 LINE",
"559 0 LINE",
"24 0 LINE",
"31 76 LINE"
);
}
);
width = 1001;
}
);
note = F;
unicode = 0046;
},
{
glyphname = G;
layers = (
{
layerId = "19CE7369-CF6C-4B47-B909-15D5A24EDA33";
name = "Regular Italic";
paths = (
{
closed = 1;
nodes = (
"877 1323 OFFCURVE",
"973 1302 OFFCURVE",
"1069 1275 CURVE SMOOTH",
"1103 1265 LINE",
"1053 1010 LINE",
"940 1010 LINE",
"921 1167 LINE",
"880 1202 OFFCURVE",
"819 1221 OFFCURVE",
"703 1221 CURVE SMOOTH",
"502 1221 OFFCURVE",
"373 1067 OFFCURVE",
"315 869 CURVE SMOOTH",
"286 770 OFFCURVE",
"271 671 OFFCURVE",
"271 573 CURVE SMOOTH",
"271 406 OFFCURVE",
"310 251 OFFCURVE",
"399 158 CURVE SMOOTH",
"444 111 OFFCURVE",
"500 88 OFFCURVE",
"569 88 CURVE SMOOTH",
"682 88 OFFCURVE",
"765 114 OFFCURVE",
"818 166 CURVE",
"867 507 LINE",
"666 522 LINE",
"678 623 LINE",
"1062 623 LINE",
"985 81 LINE",
"953 77 OFFCURVE",
"909 64 OFFCURVE",
"901 61 CURVE",
"881 55 OFFCURVE",
"872 52 OFFCURVE",
"873 52 CURVE",
"736 12 OFFCURVE",
"638 -14 OFFCURVE",
"518 -14 CURVE SMOOTH",
"321 -14 OFFCURVE",
"190 108 OFFCURVE",
"131 282 CURVE SMOOTH",
"101 369 OFFCURVE",
"86 461 OFFCURVE",
"86 559 CURVE SMOOTH",
"86 858 OFFCURVE",
"210 1099 OFFCURVE",
"405 1227 CURVE SMOOTH",
"502 1291 OFFCURVE",
"608 1323 OFFCURVE",
"722 1323 CURVE SMOOTH"
);
}
);
width = 1156;
}
);
note = G;
unicode = 0047;
},
{
glyphname = Gbreve;
layers = (
{
layerId = "19CE7369-CF6C-4B47-B909-15D5A24EDA33";
name = "Regular Italic";
paths = (
{
closed = 1;
nodes = (
"475 1678 OFFCURVE",
"476 1691 OFFCURVE",
"478 1703 CURVE",
"573 1703 LINE",
"578 1646 OFFCURVE",
"588 1598 OFFCURVE",
"633 1559 CURVE SMOOTH",
"655 1539 OFFCURVE",
"687 1529 OFFCURVE",
"730 1529 CURVE SMOOTH",
"824 1529 OFFCURVE",
"887 1587 OFFCURVE",
"919 1703 CURVE",
"1009 1703 LINE",
"1009 1607 OFFCURVE",
"952 1505 OFFCURVE",
"864 1445 CURVE SMOOTH",
"820 1415 OFFCURVE",
"774 1400 OFFCURVE",
"725 1400 CURVE SMOOTH",
"612 1400 OFFCURVE",
"536 1455 OFFCURVE",
"501 1535 CURVE SMOOTH",
"484 1574 OFFCURVE",
"475 1617 OFFCURVE",
"475 1663 CURVE SMOOTH"
);
},
{
closed = 1;
nodes = (
"877 1323 OFFCURVE",
"973 1302 OFFCURVE",
"1069 1275 CURVE SMOOTH",
"1103 1265 LINE",
"1053 1010 LINE",
"940 1010 LINE",
"921 1167 LINE",
"880 1202 OFFCURVE",
"819 1221 OFFCURVE",
"703 1221 CURVE SMOOTH",
"502 1221 OFFCURVE",
"373 1067 OFFCURVE",
"315 869 CURVE SMOOTH",
"286 770 OFFCURVE",
"271 671 OFFCURVE",
"271 573 CURVE SMOOTH",
"271 406 OFFCURVE",
"310 251 OFFCURVE",
"399 158 CURVE SMOOTH",
"444 111 OFFCURVE",
"500 88 OFFCURVE",
"569 88 CURVE SMOOTH",
"682 88 OFFCURVE",
"765 114 OFFCURVE",
"818 166 CURVE",
"867 507 LINE",
"666 522 LINE",
"678 623 LINE",
"1062 623 LINE",
"985 81 LINE",
"953 77 OFFCURVE",
"909 64 OFFCURVE",
"901 61 CURVE",
"881 55 OFFCURVE",
"872 52 OFFCURVE",
"873 52 CURVE",
"736 12 OFFCURVE",
"638 -14 OFFCURVE",
"518 -14 CURVE SMOOTH",
"321 -14 OFFCURVE",
"190 108 OFFCURVE",
"131 282 CURVE SMOOTH",
"101 369 OFFCURVE",
"86 461 OFFCURVE",
"86 559 CURVE SMOOTH",
"86 858 OFFCURVE",
"210 1099 OFFCURVE",
"405 1227 CURVE SMOOTH",
"502 1291 OFFCURVE",
"608 1323 OFFCURVE",
"722 1323 CURVE SMOOTH"
);
}
);
width = 1156;
}
);
note = Gbreve;
unicode = 011E;
},
{
glyphname = Gcaron;
layers = (
{
layerId = "19CE7369-CF6C-4B47-B909-15D5A24EDA33";
name = "Regular Italic";
paths = (
{
closed = 1;
nodes = (
"877 1323 OFFCURVE",
"973 1302 OFFCURVE",
"1069 1275 CURVE SMOOTH",
"1103 1265 LINE",
"1053 1010 LINE",
"940 1010 LINE",
"921 1167 LINE",
"880 1202 OFFCURVE",
"819 1221 OFFCURVE",
"703 1221 CURVE SMOOTH",
"502 1221 OFFCURVE",
"373 1067 OFFCURVE",
"315 869 CURVE SMOOTH",
"286 770 OFFCURVE",
"271 671 OFFCURVE",
"271 573 CURVE SMOOTH",
"271 406 OFFCURVE",
"310 251 OFFCURVE",
"399 158 CURVE SMOOTH",
"444 111 OFFCURVE",
"500 88 OFFCURVE",
"569 88 CURVE SMOOTH",
"682 88 OFFCURVE",
"765 114 OFFCURVE",
"818 166 CURVE",
"867 507 LINE",
"666 522 LINE",
"678 623 LINE",
"1062 623 LINE",
"985 81 LINE",
"953 77 OFFCURVE",
"909 64 OFFCURVE",
"901 61 CURVE",
"881 55 OFFCURVE",
"872 52 OFFCURVE",
"873 52 CURVE",
"736 12 OFFCURVE",
"638 -14 OFFCURVE",
"518 -14 CURVE SMOOTH",
"321 -14 OFFCURVE",
"190 108 OFFCURVE",
"131 282 CURVE SMOOTH",
"101 369 OFFCURVE",
"86 461 OFFCURVE",
"86 559 CURVE SMOOTH",
"86 858 OFFCURVE",
"210 1099 OFFCURVE",
"405 1227 CURVE SMOOTH",
"502 1291 OFFCURVE",
"608 1323 OFFCURVE",
"722 1323 CURVE SMOOTH"
);
},
{
closed = 1;
nodes = (
"523 1721 LINE",
"727 1520 LINE",
"999 1721 LINE",
"1054 1672 LINE",
"798 1396 LINE",
"648 1396 LINE",
"457 1671 LINE"
);
}
);
width = 1156;
}
);
note = Gcaron;
unicode = 01E6;
},
{
glyphname = Gcircumflex;
layers = (
{
layerId = "19CE7369-CF6C-4B47-B909-15D5A24EDA33";
name = "Regular Italic";
paths = (
{
closed = 1;
nodes = (
"877 1323 OFFCURVE",
"973 1302 OFFCURVE",
"1069 1275 CURVE SMOOTH",
"1103 1265 LINE",
"1053 1010 LINE",
"940 1010 LINE",
"921 1167 LINE",
"880 1202 OFFCURVE",
"819 1221 OFFCURVE",
"703 1221 CURVE SMOOTH",
"502 1221 OFFCURVE",
"373 1067 OFFCURVE",
"315 869 CURVE SMOOTH",
"286 770 OFFCURVE",
"271 671 OFFCURVE",
"271 573 CURVE SMOOTH",
"271 406 OFFCURVE",
"310 251 OFFCURVE",
"399 158 CURVE SMOOTH",
"444 111 OFFCURVE",
"500 88 OFFCURVE",
"569 88 CURVE SMOOTH",
"682 88 OFFCURVE",
"765 114 OFFCURVE",
"818 166 CURVE",
"867 507 LINE",
"666 522 LINE",
"678 623 LINE",
"1062 623 LINE",
"985 81 LINE",
"953 77 OFFCURVE",
"909 64 OFFCURVE",
"901 61 CURVE",
"881 55 OFFCURVE",
"872 52 OFFCURVE",
"873 52 CURVE",
"736 12 OFFCURVE",
"638 -14 OFFCURVE",
"518 -14 CURVE SMOOTH",
"321 -14 OFFCURVE",
"190 108 OFFCURVE",
"131 282 CURVE SMOOTH",
"101 369 OFFCURVE",
"86 461 OFFCURVE",
"86 559 CURVE SMOOTH",
"86 858 OFFCURVE",
"210 1099 OFFCURVE",
"405 1227 CURVE SMOOTH",
"502 1291 OFFCURVE",
"608 1323 OFFCURVE",
"722 1323 CURVE SMOOTH"
);
},
{
closed = 1;
nodes = (
"695 1721 LINE",
"847 1721 LINE",
"1030 1447 LINE",
"968 1396 LINE",
"763 1591 LINE",
"484 1397 LINE",
"430 1447 LINE"
);
}
);
width = 1156;
}
);
note = Gcircumflex;
unicode = 011C;
},
{
glyphname = Gcommaaccent;
layers = (
{
layerId = "19CE7369-CF6C-4B47-B909-15D5A24EDA33";
name = "Regular Italic";
paths = (
{
closed = 1;
nodes = (
"435 -424 LINE",
"475 -392 OFFCURVE",
"500 -342 OFFCURVE",
"500 -287 CURVE SMOOTH",
"500 -246 OFFCURVE",
"471 -193 OFFCURVE",
"438 -186 CURVE",
"439 -130 LINE",
"551 -43 LINE",
"618 -58 OFFCURVE",
"658 -136 OFFCURVE",
"658 -224 CURVE SMOOTH",
"658 -311 OFFCURVE",
"619 -390 OFFCURVE",
"571 -437 CURVE SMOOTH",
"546 -461 OFFCURVE",
"523 -476 OFFCURVE",
"502 -482 CURVE",
"435 -446 LINE"
);
},
{
closed = 1;
nodes = (
"877 1323 OFFCURVE",
"973 1302 OFFCURVE",
"1069 1275 CURVE SMOOTH",
"1103 1265 LINE",
"1053 1010 LINE",
"940 1010 LINE",
"921 1167 LINE",
"880 1202 OFFCURVE",
"819 1221 OFFCURVE",
"703 1221 CURVE SMOOTH",
"502 1221 OFFCURVE",
"373 1067 OFFCURVE",
"315 869 CURVE SMOOTH",
"286 770 OFFCURVE",
"271 671 OFFCURVE",
"271 573 CURVE SMOOTH",
"271 406 OFFCURVE",
"310 251 OFFCURVE",
"399 158 CURVE SMOOTH",
"444 111 OFFCURVE",
"500 88 OFFCURVE",
"569 88 CURVE SMOOTH",
"682 88 OFFCURVE",
"765 114 OFFCURVE",
"818 166 CURVE",
"867 507 LINE",
"666 522 LINE",
"678 623 LINE",
"1062 623 LINE",
"985 81 LINE",
"953 77 OFFCURVE",
"909 64 OFFCURVE",
"901 61 CURVE",
"881 55 OFFCURVE",
"872 52 OFFCURVE",
"873 52 CURVE",
"736 12 OFFCURVE",
"638 -14 OFFCURVE",
"518 -14 CURVE SMOOTH",
"321 -14 OFFCURVE",
"190 108 OFFCURVE",
"131 282 CURVE SMOOTH",
"101 369 OFFCURVE",
"86 461 OFFCURVE",
"86 559 CURVE SMOOTH",
"86 858 OFFCURVE",
"210 1099 OFFCURVE",
"405 1227 CURVE SMOOTH",
"502 1291 OFFCURVE",
"608 1323 OFFCURVE",
"722 1323 CURVE SMOOTH"
);
}
);
width = 1156;
}
);
note = Gcommaaccent;
unicode = 0122;
},
{
glyphname = Gdotaccent;
layers = (
{
layerId = "19CE7369-CF6C-4B47-B909-15D5A24EDA33";
name = "Regular Italic";
paths = (
{
closed = 1;
nodes = (
"623 1596 OFFCURVE",
"651 1638 OFFCURVE",
"690 1663 CURVE SMOOTH",
"709 1675 OFFCURVE",
"729 1681 OFFCURVE",
"748 1681 CURVE SMOOTH",
"812 1681 OFFCURVE",
"856 1639 OFFCURVE",
"856 1586 CURVE SMOOTH",
"856 1539 OFFCURVE",
"830 1496 OFFCURVE",
"790 1471 CURVE SMOOTH",
"769 1458 OFFCURVE",
"747 1452 OFFCURVE",
"723 1452 CURVE SMOOTH",
"668 1452 OFFCURVE",
"623 1498 OFFCURVE",
"623 1551 CURVE SMOOTH"
);
},
{
closed = 1;
nodes = (
"877 1323 OFFCURVE",
"973 1302 OFFCURVE",
"1069 1275 CURVE SMOOTH",
"1103 1265 LINE",
"1053 1010 LINE",
"940 1010 LINE",
"921 1167 LINE",
"880 1202 OFFCURVE",
"819 1221 OFFCURVE",
"703 1221 CURVE SMOOTH",
"502 1221 OFFCURVE",
"373 1067 OFFCURVE",
"315 869 CURVE SMOOTH",
"286 770 OFFCURVE",
"271 671 OFFCURVE",
"271 573 CURVE SMOOTH",
"271 406 OFFCURVE",
"310 251 OFFCURVE",
"399 158 CURVE SMOOTH",
"444 111 OFFCURVE",
"500 88 OFFCURVE",
"569 88 CURVE SMOOTH",
"682 88 OFFCURVE",
"765 114 OFFCURVE",
"818 166 CURVE",
"867 507 LINE",
"666 522 LINE",
"678 623 LINE",
"1062 623 LINE",
"985 81 LINE",
"953 77 OFFCURVE",
"909 64 OFFCURVE",
"901 61 CURVE",
"881 55 OFFCURVE",
"872 52 OFFCURVE",
"873 52 CURVE",
"736 12 OFFCURVE",
"638 -14 OFFCURVE",
"518 -14 CURVE SMOOTH",
"321 -14 OFFCURVE",
"190 108 OFFCURVE",
"131 282 CURVE SMOOTH",
"101 369 OFFCURVE",
"86 461 OFFCURVE",
"86 559 CURVE SMOOTH",
"86 858 OFFCURVE",
"210 1099 OFFCURVE",
"405 1227 CURVE SMOOTH",
"502 1291 OFFCURVE",
"608 1323 OFFCURVE",
"722 1323 CURVE SMOOTH"
);
}
);
width = 1156;
}
);
note = Gdotaccent;
unicode = 0120;
},
{
glyphname = H;
layers = (
{
layerId = "19CE7369-CF6C-4B47-B909-15D5A24EDA33";
name = "Regular Italic";
paths = (
{
closed = 1;
nodes = (
"894 101 LINE",
"958 614 LINE",
"399 614 LINE",
"335 101 LINE",
"470 76 LINE",
"464 0 LINE",
"24 0 LINE",
"33 75 LINE",
"159 101 LINE",
"298 1202 LINE",
"183 1222 LINE",
"194 1309 LINE",
"616 1309 LINE",
"606 1222 LINE",
"474 1202 LINE",
"414 726 LINE",
"972 726 LINE",
"1032 1202 LINE",
"902 1222 LINE",
"911 1309 LINE",
"1336 1309 LINE",
"1326 1222 LINE",
"1207 1202 LINE",
"1069 101 LINE",
"1200 75 LINE",
"1192 0 LINE",
"746 0 LINE",
"753 76 LINE"
);
}
);
width = 1322;
}
);
note = H;
unicode = 0048;
},
{
glyphname = Hbar;
layers = (
{
layerId = "19CE7369-CF6C-4B47-B909-15D5A24EDA33";
name = "Regular Italic";
paths = (
{
closed = 1;
nodes = (
"887 101 LINE",
"941 535 LINE",
"381 535 LINE",
"327 101 LINE",
"462 76 LINE",
"455 0 LINE",
"16 0 LINE",
"24 75 LINE",
"151 101 LINE",
"246 853 LINE",
"78 853 LINE",
"90 965 LINE",
"260 965 LINE",
"290 1202 LINE",
"175 1222 LINE",
"185 1309 LINE",
"607 1309 LINE",
"598 1222 LINE",
"465 1202 LINE",
"435 965 LINE",
"994 965 LINE",
"1024 1202 LINE",
"894 1222 LINE",
"903 1309 LINE",
"1329 1309 LINE",
"1318 1222 LINE",
"1199 1202 LINE",
"1169 965 LINE",
"1342 965 LINE",
"1330 853 LINE",
"1155 853 LINE",
"1061 101 LINE",
"1191 75 LINE",
"1183 0 LINE",
"738 0 LINE",
"746 76 LINE"
);
},
{
closed = 1;
nodes = (
"955 647 LINE",
"980 853 LINE",
"421 853 LINE",
"396 647 LINE"
);
}
);
width = 1322;
}
);
note = Hbar;
unicode = 0126;
},
{
glyphname = Hcircumflex;
layers = (
{
layerId = "19CE7369-CF6C-4B47-B909-15D5A24EDA33";
name = "Regular Italic";
paths = (
{
closed = 1;
nodes = (
"894 101 LINE",
"958 614 LINE",
"399 614 LINE",
"335 101 LINE",
"470 76 LINE",
"464 0 LINE",
"24 0 LINE",
"33 75 LINE",
"159 101 LINE",
"298 1202 LINE",
"183 1222 LINE",
"194 1309 LINE",
"616 1309 LINE",
"606 1222 LINE",
"474 1202 LINE",
"414 726 LINE",
"972 726 LINE",
"1032 1202 LINE",
"902 1222 LINE",
"911 1309 LINE",
"1336 1309 LINE",
"1326 1222 LINE",
"1207 1202 LINE",
"1069 101 LINE",
"1200 75 LINE",
"1192 0 LINE",
"746 0 LINE",
"753 76 LINE"
);
},
{
closed = 1;
nodes = (
"749 1721 LINE",
"901 1721 LINE",
"1084 1447 LINE",
"1022 1396 LINE",
"817 1591 LINE",
"538 1397 LINE",
"484 1447 LINE"
);
}
);
width = 1322;
}
);
note = Hcircumflex;
unicode = 0124;
},
{
glyphname = I;
layers = (
{
layerId = "19CE7369-CF6C-4B47-B909-15D5A24EDA33";
name = "Regular Italic";
paths = (
{
closed = 1;
nodes = (
"159 101 LINE",
"298 1202 LINE",
"183 1222 LINE",
"194 1309 LINE",
"615 1309 LINE",
"605 1222 LINE",
"474 1202 LINE",
"335 101 LINE",
"470 76 LINE",
"464 0 LINE",
"24 0 LINE",
"32 75 LINE"
);
}
);
width = 608;
}
);
note = I;
unicode = 0049;
},
{
glyphname = IJ;
layers = (
{
layerId = "19CE7369-CF6C-4B47-B909-15D5A24EDA33";
name = "Regular Italic";
paths = (
{
closed = 1;
nodes = (
"159 101 LINE",
"298 1202 LINE",
"183 1222 LINE",
"194 1309 LINE",
"615 1309 LINE",
"605 1222 LINE",
"474 1202 LINE",
"335 101 LINE",
"470 76 LINE",
"464 0 LINE",
"24 0 LINE",
"32 75 LINE"
);
},
{
closed = 1;
nodes = (
"803 1222 LINE",
"815 1309 LINE",
"1236 1309 LINE",
"1226 1222 LINE",
"1093 1203 LINE",
"1083 1106 OFFCURVE",
"1076 1044 OFFCURVE",
"1073 1017 CURVE SMOOTH",
"1037 683 OFFCURVE",
"1011 449 OFFCURVE",
"995 315 CURVE SMOOTH",
"963 46 OFFCURVE",
"944 -68 OFFCURVE",
"782 -184 CURVE SMOOTH",
"701 -243 OFFCURVE",
"610 -280 OFFCURVE",
"509 -297 CURVE",
"478 -220 LINE",
"578 -192 OFFCURVE",
"669 -123 OFFCURVE",
"728 -43 CURVE SMOOTH",
"757 -3 OFFCURVE",
"776 36 OFFCURVE",
"784 74 CURVE SMOOTH",
"829 282 OFFCURVE",
"855 498 OFFCURVE",
"888 851 CURVE SMOOTH",
"903 1006 OFFCURVE",
"915 1123 OFFCURVE",
"924 1202 CURVE"
);
}
);
width = 1233;
}
);
note = IJ;
unicode = 0132;
},
{
glyphname = Iacute;
layers = (
{
layerId = "19CE7369-CF6C-4B47-B909-15D5A24EDA33";
name = "Regular Italic";
paths = (
{
closed = 1;
nodes = (
"159 101 LINE",
"298 1202 LINE",
"183 1222 LINE",
"194 1309 LINE",
"615 1309 LINE",
"605 1222 LINE",
"474 1202 LINE",
"335 101 LINE",
"470 76 LINE",
"464 0 LINE",
"24 0 LINE",
"32 75 LINE"
);
},
{
closed = 1;
nodes = (
"604 1721 LINE",
"713 1617 LINE",
"685 1557 OFFCURVE",
"608 1490 OFFCURVE",
"528 1440 CURVE SMOOTH",
"487 1415 OFFCURVE",
"452 1396 OFFCURVE",
"423 1385 CURVE",
"367 1427 LINE"
);
}
);
width = 608;
}
);
note = Iacute;
unicode = 00CD;
},
{
glyphname = Ibreve;
layers = (
{
layerId = "19CE7369-CF6C-4B47-B909-15D5A24EDA33";
name = "Regular Italic";
paths = (
{
closed = 1;
nodes = (
"159 101 LINE",
"298 1202 LINE",
"183 1222 LINE",
"194 1309 LINE",
"615 1309 LINE",
"605 1222 LINE",
"474 1202 LINE",
"335 101 LINE",
"470 76 LINE",
"464 0 LINE",
"24 0 LINE",
"32 75 LINE"
);
},
{
closed = 1;
nodes = (
"199 1678 OFFCURVE",
"200 1691 OFFCURVE",
"202 1703 CURVE",
"297 1703 LINE",
"302 1646 OFFCURVE",
"312 1598 OFFCURVE",
"357 1559 CURVE SMOOTH",
"379 1539 OFFCURVE",
"411 1529 OFFCURVE",
"454 1529 CURVE SMOOTH",
"548 1529 OFFCURVE",
"611 1587 OFFCURVE",
"643 1703 CURVE",
"733 1703 LINE",
"733 1607 OFFCURVE",
"676 1505 OFFCURVE",
"588 1445 CURVE SMOOTH",
"544 1415 OFFCURVE",
"498 1400 OFFCURVE",
"449 1400 CURVE SMOOTH",
"336 1400 OFFCURVE",
"260 1455 OFFCURVE",
"225 1535 CURVE SMOOTH",
"208 1574 OFFCURVE",
"199 1617 OFFCURVE",
"199 1663 CURVE SMOOTH"
);
}
);
width = 608;
}
);
note = Ibreve;
unicode = 012C;
},
{
glyphname = Icircumflex;
layers = (
{
layerId = "19CE7369-CF6C-4B47-B909-15D5A24EDA33";
name = "Regular Italic";
paths = (
{
closed = 1;
nodes = (
"159 101 LINE",
"298 1202 LINE",
"183 1222 LINE",
"194 1309 LINE",
"615 1309 LINE",
"605 1222 LINE",
"474 1202 LINE",
"335 101 LINE",
"470 76 LINE",
"464 0 LINE",
"24 0 LINE",
"32 75 LINE"
);
},
{
closed = 1;
nodes = (
"418 1721 LINE",
"570 1721 LINE",
"753 1447 LINE",
"691 1396 LINE",
"486 1591 LINE",
"207 1397 LINE",
"153 1447 LINE"
);
}
);
width = 608;
}
);
note = Icircumflex;
unicode = 00CE;
},
{
glyphname = Idieresis;
layers = (
{
layerId = "19CE7369-CF6C-4B47-B909-15D5A24EDA33";
name = "Regular Italic";
paths = (
{
closed = 1;
nodes = (
"159 101 LINE",
"298 1202 LINE",
"183 1222 LINE",
"194 1309 LINE",
"615 1309 LINE",
"605 1222 LINE",
"474 1202 LINE",
"335 101 LINE",
"470 76 LINE",
"464 0 LINE",
"24 0 LINE",
"32 75 LINE"
);
},
{
closed = 1;
nodes = (
"175 1627 OFFCURVE",
"203 1669 OFFCURVE",
"241 1693 CURVE SMOOTH",
"260 1705 OFFCURVE",
"279 1711 OFFCURVE",
"299 1711 CURVE SMOOTH",
"362 1711 OFFCURVE",
"405 1669 OFFCURVE",
"405 1614 CURVE SMOOTH",
"405 1569 OFFCURVE",
"378 1526 OFFCURVE",
"338 1502 CURVE SMOOTH",
"317 1489 OFFCURVE",
"296 1483 OFFCURVE",
"273 1483 CURVE SMOOTH",
"220 1483 OFFCURVE",
"175 1529 OFFCURVE",
"175 1582 CURVE SMOOTH"
);
},
{
closed = 1;
nodes = (
"535 1628 OFFCURVE",
"564 1670 OFFCURVE",
"603 1694 CURVE SMOOTH",
"622 1705 OFFCURVE",
"642 1711 OFFCURVE",
"661 1711 CURVE SMOOTH",
"724 1711 OFFCURVE",
"766 1670 OFFCURVE",
"766 1615 CURVE SMOOTH",
"766 1570 OFFCURVE",
"740 1526 OFFCURVE",
"700 1502 CURVE SMOOTH",
"679 1489 OFFCURVE",
"657 1483 OFFCURVE",
"634 1483 CURVE SMOOTH",
"581 1483 OFFCURVE",
"535 1528 OFFCURVE",
"535 1584 CURVE SMOOTH"
);
}
);
width = 608;
}
);
note = Idieresis;
unicode = 00CF;
},
{
glyphname = Idotaccent;
layers = (
{
layerId = "19CE7369-CF6C-4B47-B909-15D5A24EDA33";
name = "Regular Italic";
paths = (
{
closed = 1;
nodes = (
"159 101 LINE",
"298 1202 LINE",
"183 1222 LINE",
"194 1309 LINE",
"615 1309 LINE",
"605 1222 LINE",
"474 1202 LINE",
"335 101 LINE",
"470 76 LINE",
"464 0 LINE",
"24 0 LINE",
"32 75 LINE"
);
},
{
closed = 1;
nodes = (
"347 1596 OFFCURVE",
"375 1638 OFFCURVE",
"414 1663 CURVE SMOOTH",
"433 1675 OFFCURVE",
"453 1681 OFFCURVE",
"472 1681 CURVE SMOOTH",
"536 1681 OFFCURVE",
"580 1639 OFFCURVE",
"580 1586 CURVE SMOOTH",
"580 1539 OFFCURVE",
"554 1496 OFFCURVE",
"514 1471 CURVE SMOOTH",
"493 1458 OFFCURVE",
"471 1452 OFFCURVE",
"447 1452 CURVE SMOOTH",
"392 1452 OFFCURVE",
"347 1498 OFFCURVE",
"347 1551 CURVE SMOOTH"
);
}
);
width = 608;
}
);
note = Idotaccent;
unicode = 0130;
},
{
glyphname = Igrave;
layers = (
{
layerId = "19CE7369-CF6C-4B47-B909-15D5A24EDA33";
name = "Regular Italic";
paths = (
{
closed = 1;
nodes = (
"159 101 LINE",
"298 1202 LINE",
"183 1222 LINE",
"194 1309 LINE",
"615 1309 LINE",
"605 1222 LINE",
"474 1202 LINE",
"335 101 LINE",
"470 76 LINE",
"464 0 LINE",
"24 0 LINE",
"32 75 LINE"
);
},
{
closed = 1;
nodes = (
"263 1721 LINE",
"489 1427 LINE",
"431 1385 LINE",
"372 1408 OFFCURVE",
"284 1462 OFFCURVE",
"216 1526 CURVE SMOOTH",
"182 1558 OFFCURVE",
"159 1588 OFFCURVE",
"147 1617 CURVE"
);
}
);
width = 608;
}
);
note = Igrave;
unicode = 00CC;
},
{
glyphname = Imacron;
layers = (
{
layerId = "19CE7369-CF6C-4B47-B909-15D5A24EDA33";
name = "Regular Italic";
paths = (
{
closed = 1;
nodes = (
"159 101 LINE",
"298 1202 LINE",
"183 1222 LINE",
"194 1309 LINE",
"615 1309 LINE",
"605 1222 LINE",
"474 1202 LINE",
"335 101 LINE",
"470 76 LINE",
"464 0 LINE",
"24 0 LINE",
"32 75 LINE"
);
},
{
closed = 1;
nodes = (
"675 1617 LINE",
"657 1486 LINE",
"218 1486 LINE",
"234 1617 LINE"
);
}
);
width = 608;
}
);
note = Imacron;
unicode = 012A;
},
{
glyphname = Iogonek;
layers = (
{
layerId = "19CE7369-CF6C-4B47-B909-15D5A24EDA33";
name = "Regular Italic";
paths = (
{
closed = 1;
nodes = (
"159 101 LINE",
"298 1202 LINE",
"183 1222 LINE",
"194 1309 LINE",
"615 1309 LINE",
"605 1222 LINE",
"474 1202 LINE",
"335 101 LINE",
"470 76 LINE",
"464 0 LINE",
"298 0 LINE",
"209 -71 OFFCURVE",
"162 -123 OFFCURVE",
"161 -174 CURVE",
"157 -223 OFFCURVE",
"181 -247 OFFCURVE",
"206 -247 CURVE SMOOTH",
"238 -247 OFFCURVE",
"272 -232 OFFCURVE",
"319 -195 CURVE",
"341 -277 LINE",
"288 -325 OFFCURVE",
"216 -360 OFFCURVE",
"124 -360 CURVE SMOOTH",
"67 -360 OFFCURVE",
"26 -337 OFFCURVE",
"6 -301 CURVE SMOOTH",
"-4 -284 OFFCURVE",
"-9 -266 OFFCURVE",
"-9 -247 CURVE SMOOTH",
"-9 -208 OFFCURVE",
"3 -163 OFFCURVE",
"26 -135 CURVE SMOOTH",
"61 -90 OFFCURVE",
"99 -58 OFFCURVE",
"130 -38 CURVE SMOOTH",
"145 -29 OFFCURVE",
"167 -16 OFFCURVE",
"196 0 CURVE",
"24 0 LINE",
"32 75 LINE"
);
}
);
width = 608;
}
);
note = Iogonek;
unicode = 012E;
},
{
glyphname = Itilde;
layers = (
{
layerId = "19CE7369-CF6C-4B47-B909-15D5A24EDA33";
name = "Regular Italic";
paths = (
{
closed = 1;
nodes = (
"159 101 LINE",
"298 1202 LINE",
"183 1222 LINE",
"194 1309 LINE",
"615 1309 LINE",
"605 1222 LINE",
"474 1202 LINE",
"335 101 LINE",
"470 76 LINE",
"464 0 LINE",
"24 0 LINE",
"32 75 LINE"
);
},
{
closed = 1;
nodes = (
"145 1549 LINE",
"176 1630 OFFCURVE",
"246 1695 OFFCURVE",
"338 1695 CURVE SMOOTH",
"394 1695 OFFCURVE",
"430 1672 OFFCURVE",
"483 1628 CURVE",
"531 1591 OFFCURVE",
"555 1574 OFFCURVE",
"592 1574 CURVE SMOOTH",
"635 1574 OFFCURVE",
"666 1592 OFFCURVE",
"684 1610 CURVE SMOOTH",
"693 1619 OFFCURVE",
"704 1632 OFFCURVE",
"718 1649 CURVE",
"768 1578 LINE",
"740 1501 OFFCURVE",
"673 1432 OFFCURVE",
"576 1432 CURVE SMOOTH",
"517 1432 OFFCURVE",
"482 1454 OFFCURVE",
"430 1498 CURVE SMOOTH",
"385 1535 OFFCURVE",
"359 1553 OFFCURVE",
"319 1553 CURVE SMOOTH",
"268 1553 OFFCURVE",
"231 1526 OFFCURVE",
"195 1478 CURVE"
);
}
);
width = 608;
}
);
note = Itilde;
unicode = 0128;
},
{
glyphname = J;
layers = (
{
layerId = "19CE7369-CF6C-4B47-B909-15D5A24EDA33";
name = "Regular Italic";
paths = (
{
closed = 1;
nodes = (
"194 1222 LINE",
"206 1309 LINE",
"627 1309 LINE",
"617 1222 LINE",
"484 1203 LINE",
"474 1106 OFFCURVE",
"467 1044 OFFCURVE",
"464 1017 CURVE SMOOTH",
"428 683 OFFCURVE",
"402 449 OFFCURVE",
"386 315 CURVE SMOOTH",
"354 46 OFFCURVE",
"335 -68 OFFCURVE",
"173 -184 CURVE SMOOTH",
"92 -243 OFFCURVE",
"1 -280 OFFCURVE",
"-100 -297 CURVE",
"-131 -220 LINE",
"-31 -192 OFFCURVE",
"60 -123 OFFCURVE",
"119 -43 CURVE SMOOTH",
"148 -3 OFFCURVE",
"167 36 OFFCURVE",
"175 74 CURVE SMOOTH",
"220 282 OFFCURVE",
"246 498 OFFCURVE",
"279 851 CURVE SMOOTH",
"294 1006 OFFCURVE",
"306 1123 OFFCURVE",
"315 1202 CURVE"
);
}
);
width = 624;
}
);
note = J;
unicode = 004A;
},
{
glyphname = Jcircumflex;
layers = (
{
layerId = "19CE7369-CF6C-4B47-B909-15D5A24EDA33";
name = "Regular Italic";
paths = (
{
closed = 1;
nodes = (
"194 1222 LINE",
"206 1309 LINE",
"627 1309 LINE",
"617 1222 LINE",
"484 1203 LINE",
"474 1106 OFFCURVE",
"467 1044 OFFCURVE",
"464 1017 CURVE SMOOTH",
"428 683 OFFCURVE",
"402 449 OFFCURVE",
"386 315 CURVE SMOOTH",
"354 46 OFFCURVE",
"335 -68 OFFCURVE",
"173 -184 CURVE SMOOTH",
"92 -243 OFFCURVE",
"1 -280 OFFCURVE",
"-100 -297 CURVE",
"-131 -220 LINE",
"-31 -192 OFFCURVE",
"60 -123 OFFCURVE",
"119 -43 CURVE SMOOTH",
"148 -3 OFFCURVE",
"167 36 OFFCURVE",
"175 74 CURVE SMOOTH",
"220 282 OFFCURVE",
"246 498 OFFCURVE",
"279 851 CURVE SMOOTH",
"294 1006 OFFCURVE",
"306 1123 OFFCURVE",
"315 1202 CURVE"
);
},
{
closed = 1;
nodes = (
"410 1721 LINE",
"562 1721 LINE",
"745 1447 LINE",
"683 1396 LINE",
"478 1591 LINE",
"199 1397 LINE",
"145 1447 LINE"
);
}
);
width = 624;
}
);
note = Jcircumflex;
unicode = 0134;
},
{
glyphname = K;
layers = (
{
layerId = "19CE7369-CF6C-4B47-B909-15D5A24EDA33";
name = "Regular Italic";
paths = (
{
closed = 1;
nodes = (
"691 303 LINE SMOOTH",
"634 412 OFFCURVE",
"581 511 OFFCURVE",
"532 598 CURVE",
"376 427 LINE",
"335 101 LINE",
"470 76 LINE",
"464 0 LINE",
"24 0 LINE",
"32 75 LINE",
"159 101 LINE",
"298 1202 LINE",
"183 1222 LINE",
"194 1309 LINE",
"615 1309 LINE",
"605 1222 LINE",
"473 1202 LINE",
"396 592 LINE",
"922 1202 LINE",
"820 1222 LINE",
"831 1309 LINE",
"1192 1309 LINE",
"1180 1222 LINE",
"1090 1202 LINE",
"639 713 LINE",
"712 588 LINE SMOOTH",
"863 332 OFFCURVE",
"914 247 OFFCURVE",
"959 183 CURVE SMOOTH",
"982 150 OFFCURVE",
"1002 129 OFFCURVE",
"1019 119 CURVE",
"1131 81 LINE",
"1119 0 LINE",
"880 0 LINE",
"863 2 OFFCURVE",
"842 26 OFFCURVE",
"815 71 CURVE SMOOTH",
"788 116 OFFCURVE",
"755 176 OFFCURVE",
"718 250 CURVE SMOOTH"
);
}
);
width = 1174;
}
);
note = K;
unicode = 004B;
},
{
glyphname = Kcommaaccent;
layers = (
{
layerId = "19CE7369-CF6C-4B47-B909-15D5A24EDA33";
name = "Regular Italic";
paths = (
{
closed = 1;
nodes = (
"452 -422 LINE",
"492 -390 OFFCURVE",
"517 -340 OFFCURVE",
"517 -285 CURVE SMOOTH",
"517 -244 OFFCURVE",
"488 -191 OFFCURVE",
"455 -184 CURVE",
"456 -128 LINE",
"568 -41 LINE",
"635 -56 OFFCURVE",
"675 -134 OFFCURVE",
"675 -222 CURVE SMOOTH",
"675 -309 OFFCURVE",
"636 -388 OFFCURVE",
"588 -435 CURVE SMOOTH",
"563 -459 OFFCURVE",
"540 -474 OFFCURVE",
"519 -480 CURVE",
"452 -444 LINE"
);
},
{
closed = 1;
nodes = (
"683 303 LINE SMOOTH",
"626 412 OFFCURVE",
"573 511 OFFCURVE",
"524 598 CURVE",
"368 427 LINE",
"327 101 LINE",
"462 76 LINE",
"456 0 LINE",
"16 0 LINE",
"24 75 LINE",
"151 101 LINE",
"290 1202 LINE",
"175 1222 LINE",
"186 1309 LINE",
"607 1309 LINE",
"597 1222 LINE",
"465 1202 LINE",
"388 592 LINE",
"914 1202 LINE",
"812 1222 LINE",
"823 1309 LINE",
"1184 1309 LINE",
"1172 1222 LINE",
"1082 1202 LINE",
"631 713 LINE",
"704 588 LINE SMOOTH",
"855 332 OFFCURVE",
"906 247 OFFCURVE",
"951 183 CURVE SMOOTH",
"974 150 OFFCURVE",
"994 129 OFFCURVE",
"1011 119 CURVE",
"1123 81 LINE",
"1111 0 LINE",
"872 0 LINE",
"855 2 OFFCURVE",
"834 26 OFFCURVE",
"807 71 CURVE SMOOTH",
"780 116 OFFCURVE",
"747 176 OFFCURVE",
"710 250 CURVE SMOOTH"
);
}
);
width = 1166;
}
);
note = Kcommaaccent;
unicode = 0136;
},
{
glyphname = L;
layers = (
{
layerId = "19CE7369-CF6C-4B47-B909-15D5A24EDA33";
name = "Regular Italic";
paths = (
{
closed = 1;
nodes = (
"159 101 LINE",
"298 1202 LINE",
"183 1222 LINE",
"194 1309 LINE",
"644 1309 LINE",
"635 1222 LINE",
"473 1202 LINE",
"335 101 LINE",
"734 110 LINE",
"853 396 LINE",
"955 376 LINE",
"873 0 LINE",
"25 0 LINE",
"32 76 LINE"
);
}
);
width = 1016;
}
);
note = L;
unicode = 004C;
},
{
glyphname = Lacute;
layers = (
{
layerId = "19CE7369-CF6C-4B47-B909-15D5A24EDA33";
name = "Regular Italic";
paths = (
{
closed = 1;
nodes = (
"591 1723 LINE",
"700 1619 LINE",
"672 1559 OFFCURVE",
"595 1492 OFFCURVE",
"515 1442 CURVE SMOOTH",
"474 1417 OFFCURVE",
"439 1398 OFFCURVE",
"410 1387 CURVE",
"354 1429 LINE"
);
},
{
closed = 1;
nodes = (
"159 101 LINE",
"298 1202 LINE",
"183 1222 LINE",
"194 1309 LINE",
"644 1309 LINE",
"635 1222 LINE",
"473 1202 LINE",
"335 101 LINE",
"734 110 LINE",
"853 396 LINE",
"955 376 LINE",
"873 0 LINE",
"25 0 LINE",
"32 76 LINE"
);
}
);
width = 1016;
}
);
note = Lacute;
unicode = 0139;
},
{
glyphname = Lcaron;
layers = (
{
layerId = "19CE7369-CF6C-4B47-B909-15D5A24EDA33";
name = "Regular Italic";
paths = (
{
closed = 1;
nodes = (
"159 101 LINE",
"298 1202 LINE",
"183 1222 LINE",
"194 1309 LINE",
"644 1309 LINE",
"635 1222 LINE",
"473 1202 LINE",
"335 101 LINE",
"734 110 LINE",
"853 396 LINE",
"955 376 LINE",
"873 0 LINE",
"25 0 LINE",
"32 76 LINE"
);
},
{
closed = 1;
nodes = (
"781 920 LINE",
"800 994 OFFCURVE",
"815 1077 OFFCURVE",
"825 1170 CURVE",
"826 1184 OFFCURVE",
"827 1195 OFFCURVE",
"827 1202 CURVE SMOOTH",
"827 1258 OFFCURVE",
"814 1322 OFFCURVE",
"799 1343 CURVE",
"815 1379 LINE",
"952 1419 LINE",
"971 1398 OFFCURVE",
"980 1356 OFFCURVE",
"980 1293 CURVE SMOOTH",
"980 1268 OFFCURVE",
"979 1245 OFFCURVE",
"977 1224 CURVE SMOOTH",
"961 1080 OFFCURVE",
"904 948 OFFCURVE",
"841 873 CURVE",
"787 898 LINE"
);
}
);
width = 1016;
}
);
note = Lcaron;
unicode = 013D;
},
{
glyphname = Lcommaaccent;
layers = (
{
layerId = "19CE7369-CF6C-4B47-B909-15D5A24EDA33";
name = "Regular Italic";
paths = (
{
closed = 1;
nodes = (
"369 -422 LINE",
"409 -390 OFFCURVE",
"434 -340 OFFCURVE",
"434 -285 CURVE SMOOTH",
"434 -244 OFFCURVE",
"405 -191 OFFCURVE",
"372 -184 CURVE",
"373 -128 LINE",
"485 -41 LINE",
"552 -56 OFFCURVE",
"592 -134 OFFCURVE",
"592 -222 CURVE SMOOTH",
"592 -309 OFFCURVE",
"553 -388 OFFCURVE",
"505 -435 CURVE SMOOTH",
"480 -459 OFFCURVE",
"457 -474 OFFCURVE",
"436 -480 CURVE",
"369 -444 LINE"
);
},
{
closed = 1;
nodes = (
"159 101 LINE",
"298 1202 LINE",
"183 1222 LINE",
"194 1309 LINE",
"644 1309 LINE",
"635 1222 LINE",
"473 1202 LINE",
"335 101 LINE",
"734 110 LINE",
"853 396 LINE",
"955 376 LINE",
"873 0 LINE",
"25 0 LINE",
"32 76 LINE"
);
}
);
width = 1016;
}
);
note = Lcommaaccent;
unicode = 013B;
},
{
glyphname = Ldot;
layers = (
{
layerId = "19CE7369-CF6C-4B47-B909-15D5A24EDA33";
name = "Regular Italic";
paths = (
{
closed = 1;
nodes = (
"159 101 LINE",
"298 1202 LINE",
"183 1222 LINE",
"194 1309 LINE",
"644 1309 LINE",
"635 1222 LINE",
"473 1202 LINE",
"335 101 LINE",
"734 110 LINE",
"853 396 LINE",
"955 376 LINE",
"873 0 LINE",
"25 0 LINE",
"32 76 LINE"
);
},
{
closed = 1;
nodes = (
"974 849 OFFCURVE",
"1010 813 OFFCURVE",
"1010 757 CURVE SMOOTH",
"1010 701 OFFCURVE",
"979 655 OFFCURVE",
"934 631 CURVE SMOOTH",
"911 618 OFFCURVE",
"888 612 OFFCURVE",
"863 612 CURVE SMOOTH",
"806 612 OFFCURVE",
"767 648 OFFCURVE",
"767 704 CURVE SMOOTH",
"767 757 OFFCURVE",
"797 804 OFFCURVE",
"839 830 CURVE SMOOTH",
"860 843 OFFCURVE",
"882 849 OFFCURVE",
"905 849 CURVE SMOOTH"
);
}
);
width = 1016;
}
);
note = Ldot;
unicode = 013F;
},
{
glyphname = Lslash;
layers = (
{
layerId = "19CE7369-CF6C-4B47-B909-15D5A24EDA33";
name = "Regular Italic";
paths = (
{
closed = 1;
nodes = (
"221 595 LINE",
"298 1204 LINE",
"183 1224 LINE",
"194 1311 LINE",
"644 1311 LINE",
"635 1224 LINE",
"473 1204 LINE",
"406 675 LINE",
"749 823 LINE",
"779 714 LINE",
"390 550 LINE",
"335 102 LINE",
"734 112 LINE",
"853 397 LINE",
"955 378 LINE",
"873 2 LINE",
"25 2 LINE",
"32 77 LINE",
"159 102 LINE",
"206 473 LINE",
"69 415 LINE",
"38 517 LINE"
);
}
);
width = 1016;
}
);
note = Lslash;
unicode = 0141;
},
{
glyphname = M;
layers = (
{
layerId = "19CE7369-CF6C-4B47-B909-15D5A24EDA33";
name = "Regular Italic";
paths = (
{
closed = 1;
nodes = (
"100 101 LINE",
"372 1202 LINE",
"234 1222 LINE",
"244 1309 LINE",
"629 1309 LINE",
"770 411 LINE",
"783 267 LINE",
"838 411 LINE SMOOTH",
"879 510 OFFCURVE",
"946 663 OFFCURVE",
"1039 872 CURVE SMOOTH",
"1131 1079 OFFCURVE",
"1195 1224 OFFCURVE",
"1230 1309 CURVE",
"1594 1309 LINE",
"1585 1222 LINE",
"1443 1202 LINE",
"1422 101 LINE",
"1554 76 LINE",
"1546 0 LINE",
"1088 0 LINE",
"1096 76 LINE",
"1247 100 LINE",
"1279 875 LINE",
"1305 1221 LINE",
"1187 916 LINE",
"782 -3 LINE",
"685 -15 LINE",
"538 895 LINE",
"485 1219 LINE",
"423 887 LINE",
"241 101 LINE",
"402 76 LINE",
"394 0 LINE",
"-46 0 LINE",
"-38 76 LINE"
);
}
);
width = 1613;
}
);
note = M;
unicode = 004D;
},
{
glyphname = N;
layers = (
{
layerId = "19CE7369-CF6C-4B47-B909-15D5A24EDA33";
name = "Regular Italic";
paths = (
{
closed = 1;
nodes = (
"151 99 LINE",
"298 1202 LINE",
"171 1222 LINE",
"186 1309 LINE",
"485 1309 LINE",
"884 364 LINE",
"945 163 LINE",
"1069 1202 LINE",
"939 1222 LINE",
"949 1309 LINE",
"1339 1309 LINE",
"1330 1222 LINE",
"1206 1202 LINE",
"1031 0 LINE",
"863 0 LINE",
"459 949 LINE",
"406 1140 LINE",
"297 101 LINE",
"436 76 LINE",
"428 0 LINE",
"28 0 LINE",
"34 75 LINE"
);
}
);
width = 1305;
}
);
note = N;
unicode = 004E;
},
{
glyphname = Nacute;
layers = (
{
layerId = "19CE7369-CF6C-4B47-B909-15D5A24EDA33";
name = "Regular Italic";
paths = (
{
closed = 1;
nodes = (
"917 1721 LINE",
"1026 1617 LINE",
"998 1557 OFFCURVE",
"921 1490 OFFCURVE",
"841 1440 CURVE SMOOTH",
"800 1415 OFFCURVE",
"765 1396 OFFCURVE",
"736 1385 CURVE",
"680 1427 LINE"
);
},
{
closed = 1;
nodes = (
"151 99 LINE",
"298 1202 LINE",
"171 1222 LINE",
"186 1309 LINE",
"485 1309 LINE",
"884 364 LINE",
"945 163 LINE",
"1069 1202 LINE",
"939 1222 LINE",
"949 1309 LINE",
"1339 1309 LINE",
"1330 1222 LINE",
"1206 1202 LINE",
"1031 0 LINE",
"863 0 LINE",
"459 949 LINE",
"406 1140 LINE",
"297 101 LINE",
"436 76 LINE",
"428 0 LINE",
"28 0 LINE",
"34 75 LINE"
);
}
);
width = 1305;
}
);
note = Nacute;
unicode = 0143;
},
{
glyphname = Ncaron;
layers = (
{
layerId = "19CE7369-CF6C-4B47-B909-15D5A24EDA33";
name = "Regular Italic";
paths = (
{
closed = 1;
nodes = (
"558 1721 LINE",
"762 1520 LINE",
"1034 1721 LINE",
"1089 1672 LINE",
"833 1396 LINE",
"683 1396 LINE",
"492 1671 LINE"
);
},
{
closed = 1;
nodes = (
"151 99 LINE",
"298 1202 LINE",
"171 1222 LINE",
"186 1309 LINE",
"485 1309 LINE",
"884 364 LINE",
"945 163 LINE",
"1069 1202 LINE",
"939 1222 LINE",
"949 1309 LINE",
"1339 1309 LINE",
"1330 1222 LINE",
"1206 1202 LINE",
"1031 0 LINE",
"863 0 LINE",
"459 949 LINE",
"406 1140 LINE",
"297 101 LINE",
"436 76 LINE",
"428 0 LINE",
"28 0 LINE",
"34 75 LINE"
);
}
);
width = 1305;
}
);
note = Ncaron;
unicode = 0147;
},
{
glyphname = Ncommaaccent;
layers = (
{
layerId = "19CE7369-CF6C-4B47-B909-15D5A24EDA33";
name = "Regular Italic";
paths = (
{
closed = 1;
nodes = (
"470 -424 LINE",
"510 -392 OFFCURVE",
"535 -342 OFFCURVE",
"535 -287 CURVE SMOOTH",
"535 -246 OFFCURVE",
"506 -193 OFFCURVE",
"473 -186 CURVE",
"474 -130 LINE",
"586 -43 LINE",
"653 -58 OFFCURVE",
"693 -136 OFFCURVE",
"693 -224 CURVE SMOOTH",
"693 -311 OFFCURVE",
"654 -390 OFFCURVE",
"606 -437 CURVE SMOOTH",
"581 -461 OFFCURVE",
"558 -476 OFFCURVE",
"537 -482 CURVE",
"470 -446 LINE"
);
},
{
closed = 1;
nodes = (
"151 99 LINE",
"298 1202 LINE",
"171 1222 LINE",
"186 1309 LINE",
"485 1309 LINE",
"884 364 LINE",
"945 163 LINE",
"1069 1202 LINE",
"939 1222 LINE",
"949 1309 LINE",
"1339 1309 LINE",
"1330 1222 LINE",
"1206 1202 LINE",
"1031 0 LINE",
"863 0 LINE",
"459 949 LINE",
"406 1140 LINE",
"297 101 LINE",
"436 76 LINE",
"428 0 LINE",
"28 0 LINE",
"34 75 LINE"
);
}
);
width = 1305;
}
);
note = Ncommaaccent;
unicode = 0145;
},
{
glyphname = Eng;
layers = (
{
layerId = "19CE7369-CF6C-4B47-B909-15D5A24EDA33";
name = "Regular Italic";
paths = (
{
closed = 1;
nodes = (
"150 99 LINE",
"301 1202 LINE",
"169 1222 LINE",
"184 1309 LINE",
"484 1309 LINE",
"891 366 LINE",
"943 199 LINE",
"1060 1203 LINE",
"938 1222 LINE",
"949 1309 LINE",
"1335 1309 LINE",
"1326 1222 LINE",
"1201 1202 LINE",
"1030 0 LINE SMOOTH",
"1003 -185 OFFCURVE",
"833 -282 OFFCURVE",
"630 -318 CURVE",
"599 -242 LINE",
"735 -194 OFFCURVE",
"846 -111 OFFCURVE",
"865 0 CURVE",
"455 933 LINE",
"405 1092 LINE",
"301 101 LINE",
"435 76 LINE",
"427 0 LINE",
"27 0 LINE",
"34 75 LINE"
);
}
);
width = 1305;
}
);
note = Eng;
unicode = 014A;
},
{
glyphname = Ntilde;
layers = (
{
layerId = "19CE7369-CF6C-4B47-B909-15D5A24EDA33";
name = "Regular Italic";
paths = (
{
closed = 1;
nodes = (
"457 1549 LINE",
"488 1630 OFFCURVE",
"558 1695 OFFCURVE",
"650 1695 CURVE SMOOTH",
"706 1695 OFFCURVE",
"742 1672 OFFCURVE",
"795 1628 CURVE",
"843 1591 OFFCURVE",
"867 1574 OFFCURVE",
"904 1574 CURVE SMOOTH",
"947 1574 OFFCURVE",
"978 1592 OFFCURVE",
"996 1610 CURVE SMOOTH",
"1005 1619 OFFCURVE",
"1016 1632 OFFCURVE",
"1030 1649 CURVE",
"1080 1578 LINE",
"1052 1501 OFFCURVE",
"985 1432 OFFCURVE",
"888 1432 CURVE SMOOTH",
"829 1432 OFFCURVE",
"794 1454 OFFCURVE",
"742 1498 CURVE SMOOTH",
"697 1535 OFFCURVE",
"671 1553 OFFCURVE",
"631 1553 CURVE SMOOTH",
"580 1553 OFFCURVE",
"543 1526 OFFCURVE",
"507 1478 CURVE"
);
},
{
closed = 1;
nodes = (
"151 99 LINE",
"298 1202 LINE",
"171 1222 LINE",
"186 1309 LINE",
"485 1309 LINE",
"884 364 LINE",
"945 163 LINE",
"1069 1202 LINE",
"939 1222 LINE",
"949 1309 LINE",
"1339 1309 LINE",
"1330 1222 LINE",
"1206 1202 LINE",
"1031 0 LINE",
"863 0 LINE",
"459 949 LINE",
"406 1140 LINE",
"297 101 LINE",
"436 76 LINE",
"428 0 LINE",
"28 0 LINE",
"34 75 LINE"
);
}
);
width = 1305;
}
);
note = Ntilde;
unicode = 00D1;
},
{
glyphname = O;
layers = (
{
layerId = "19CE7369-CF6C-4B47-B909-15D5A24EDA33";
name = "Regular Italic";
paths = (
{
closed = 1;
nodes = (
"889 1326 OFFCURVE",
"1019 1219 OFFCURVE",
"1082 1049 CURVE SMOOTH",
"1113 964 OFFCURVE",
"1129 869 OFFCURVE",
"1129 764 CURVE SMOOTH",
"1129 471 OFFCURVE",
"1019 221 OFFCURVE",
"839 85 CURVE SMOOTH",
"748 17 OFFCURVE",
"646 -17 OFFCURVE",
"533 -17 CURVE SMOOTH",
"342 -17 OFFCURVE",
"212 93 OFFCURVE",
"149 265 CURVE SMOOTH",
"118 351 OFFCURVE",
"102 447 OFFCURVE",
"102 552 CURVE SMOOTH",
"102 844 OFFCURVE",
"212 1092 OFFCURVE",
"394 1226 CURVE SMOOTH",
"485 1293 OFFCURVE",
"586 1326 OFFCURVE",
"698 1326 CURVE SMOOTH"
);
},
{
closed = 1;
nodes = (
"945 931 OFFCURVE",
"904 1079 OFFCURVE",
"821 1159 CURVE SMOOTH",
"780 1199 OFFCURVE",
"729 1219 OFFCURVE",
"669 1219 CURVE SMOOTH",
"524 1219 OFFCURVE",
"400 1103 OFFCURVE",
"332 908 CURVE SMOOTH",
"298 811 OFFCURVE",
"281 701 OFFCURVE",
"281 578 CURVE SMOOTH",
"281 383 OFFCURVE",
"322 231 OFFCURVE",
"405 148 CURVE SMOOTH",
"446 107 OFFCURVE",
"497 86 OFFCURVE",
"557 86 CURVE SMOOTH",
"702 86 OFFCURVE",
"827 204 OFFCURVE",
"895 401 CURVE SMOOTH",
"928 500 OFFCURVE",
"945 611 OFFCURVE",
"945 734 CURVE SMOOTH"
);
}
);
width = 1189;
}
);
note = O;
unicode = 004F;
},
{
glyphname = Oacute;
layers = (
{
layerId = "19CE7369-CF6C-4B47-B909-15D5A24EDA33";
name = "Regular Italic";
paths = (
{
closed = 1;
nodes = (
"880 1721 LINE",
"989 1617 LINE",
"961 1557 OFFCURVE",
"884 1490 OFFCURVE",
"804 1440 CURVE SMOOTH",
"763 1415 OFFCURVE",
"728 1396 OFFCURVE",
"699 1385 CURVE",
"643 1427 LINE"
);
},
{
closed = 1;
nodes = (
"889 1326 OFFCURVE",
"1019 1219 OFFCURVE",
"1082 1049 CURVE SMOOTH",
"1113 964 OFFCURVE",
"1129 869 OFFCURVE",
"1129 764 CURVE SMOOTH",
"1129 471 OFFCURVE",
"1019 221 OFFCURVE",
"839 85 CURVE SMOOTH",
"748 17 OFFCURVE",
"646 -17 OFFCURVE",
"533 -17 CURVE SMOOTH",
"342 -17 OFFCURVE",
"212 93 OFFCURVE",
"149 265 CURVE SMOOTH",
"118 351 OFFCURVE",
"102 447 OFFCURVE",
"102 552 CURVE SMOOTH",
"102 844 OFFCURVE",
"212 1092 OFFCURVE",
"394 1226 CURVE SMOOTH",
"485 1293 OFFCURVE",
"586 1326 OFFCURVE",
"698 1326 CURVE SMOOTH"
);
},
{
closed = 1;
nodes = (
"945 931 OFFCURVE",
"904 1079 OFFCURVE",
"821 1159 CURVE SMOOTH",
"780 1199 OFFCURVE",
"729 1219 OFFCURVE",
"669 1219 CURVE SMOOTH",
"524 1219 OFFCURVE",
"400 1103 OFFCURVE",
"332 908 CURVE SMOOTH",
"298 811 OFFCURVE",
"281 701 OFFCURVE",
"281 578 CURVE SMOOTH",
"281 383 OFFCURVE",
"322 231 OFFCURVE",
"405 148 CURVE SMOOTH",
"446 107 OFFCURVE",
"497 86 OFFCURVE",
"557 86 CURVE SMOOTH",
"702 86 OFFCURVE",
"827 204 OFFCURVE",
"895 401 CURVE SMOOTH",
"928 500 OFFCURVE",
"945 611 OFFCURVE",
"945 734 CURVE SMOOTH"
);
}
);
width = 1189;
}
);
note = Oacute;
unicode = 00D3;
},
{
glyphname = Obreve;
layers = (
{
layerId = "19CE7369-CF6C-4B47-B909-15D5A24EDA33";
name = "Regular Italic";
paths = (
{
closed = 1;
nodes = (
"474 1678 OFFCURVE",
"475 1691 OFFCURVE",
"477 1703 CURVE",
"572 1703 LINE",
"577 1646 OFFCURVE",
"587 1598 OFFCURVE",
"632 1559 CURVE SMOOTH",
"654 1539 OFFCURVE",
"686 1529 OFFCURVE",
"729 1529 CURVE SMOOTH",
"823 1529 OFFCURVE",
"886 1587 OFFCURVE",
"918 1703 CURVE",
"1008 1703 LINE",
"1008 1607 OFFCURVE",
"951 1505 OFFCURVE",
"863 1445 CURVE SMOOTH",
"819 1415 OFFCURVE",
"773 1400 OFFCURVE",
"724 1400 CURVE SMOOTH",
"611 1400 OFFCURVE",
"535 1455 OFFCURVE",
"500 1535 CURVE SMOOTH",
"483 1574 OFFCURVE",
"474 1617 OFFCURVE",
"474 1663 CURVE SMOOTH"
);
},
{
closed = 1;
nodes = (
"889 1326 OFFCURVE",
"1019 1219 OFFCURVE",
"1082 1049 CURVE SMOOTH",
"1113 964 OFFCURVE",
"1129 869 OFFCURVE",
"1129 764 CURVE SMOOTH",
"1129 471 OFFCURVE",
"1019 221 OFFCURVE",
"839 85 CURVE SMOOTH",
"748 17 OFFCURVE",
"646 -17 OFFCURVE",
"533 -17 CURVE SMOOTH",
"342 -17 OFFCURVE",
"212 93 OFFCURVE",
"149 265 CURVE SMOOTH",
"118 351 OFFCURVE",
"102 447 OFFCURVE",
"102 552 CURVE SMOOTH",
"102 844 OFFCURVE",
"212 1092 OFFCURVE",
"394 1226 CURVE SMOOTH",
"485 1293 OFFCURVE",
"586 1326 OFFCURVE",
"698 1326 CURVE SMOOTH"
);
},
{
closed = 1;
nodes = (
"945 931 OFFCURVE",
"904 1079 OFFCURVE",
"821 1159 CURVE SMOOTH",
"780 1199 OFFCURVE",
"729 1219 OFFCURVE",
"669 1219 CURVE SMOOTH",
"524 1219 OFFCURVE",
"400 1103 OFFCURVE",
"332 908 CURVE SMOOTH",
"298 811 OFFCURVE",
"281 701 OFFCURVE",
"281 578 CURVE SMOOTH",
"281 383 OFFCURVE",
"322 231 OFFCURVE",
"405 148 CURVE SMOOTH",
"446 107 OFFCURVE",
"497 86 OFFCURVE",
"557 86 CURVE SMOOTH",
"702 86 OFFCURVE",
"827 204 OFFCURVE",
"895 401 CURVE SMOOTH",
"928 500 OFFCURVE",
"945 611 OFFCURVE",
"945 734 CURVE SMOOTH"
);
}
);
width = 1189;
}
);
note = Obreve;
unicode = 014E;
},
{
glyphname = Ocircumflex;
layers = (
{
layerId = "19CE7369-CF6C-4B47-B909-15D5A24EDA33";
name = "Regular Italic";
paths = (
{
closed = 1;
nodes = (
"889 1326 OFFCURVE",
"1019 1219 OFFCURVE",
"1082 1049 CURVE SMOOTH",
"1113 964 OFFCURVE",
"1129 869 OFFCURVE",
"1129 764 CURVE SMOOTH",
"1129 471 OFFCURVE",
"1019 221 OFFCURVE",
"839 85 CURVE SMOOTH",
"748 17 OFFCURVE",
"646 -17 OFFCURVE",
"533 -17 CURVE SMOOTH",
"342 -17 OFFCURVE",
"212 93 OFFCURVE",
"149 265 CURVE SMOOTH",
"118 351 OFFCURVE",
"102 447 OFFCURVE",
"102 552 CURVE SMOOTH",
"102 844 OFFCURVE",
"212 1092 OFFCURVE",
"394 1226 CURVE SMOOTH",
"485 1293 OFFCURVE",
"586 1326 OFFCURVE",
"698 1326 CURVE SMOOTH"
);
},
{
closed = 1;
nodes = (
"945 931 OFFCURVE",
"904 1079 OFFCURVE",
"821 1159 CURVE SMOOTH",
"780 1199 OFFCURVE",
"729 1219 OFFCURVE",
"669 1219 CURVE SMOOTH",
"524 1219 OFFCURVE",
"400 1103 OFFCURVE",
"332 908 CURVE SMOOTH",
"298 811 OFFCURVE",
"281 701 OFFCURVE",
"281 578 CURVE SMOOTH",
"281 383 OFFCURVE",
"322 231 OFFCURVE",
"405 148 CURVE SMOOTH",
"446 107 OFFCURVE",
"497 86 OFFCURVE",
"557 86 CURVE SMOOTH",
"702 86 OFFCURVE",
"827 204 OFFCURVE",
"895 401 CURVE SMOOTH",
"928 500 OFFCURVE",
"945 611 OFFCURVE",
"945 734 CURVE SMOOTH"
);
},
{
closed = 1;
nodes = (
"693 1721 LINE",
"845 1721 LINE",
"1028 1447 LINE",
"966 1396 LINE",
"761 1591 LINE",
"482 1397 LINE",
"428 1447 LINE"
);
}
);
width = 1189;
}
);
note = Ocircumflex;
unicode = 00D4;
},
{
glyphname = Odieresis;
layers = (
{
layerId = "19CE7369-CF6C-4B47-B909-15D5A24EDA33";
name = "Regular Italic";
paths = (
{
closed = 1;
nodes = (
"450 1627 OFFCURVE",
"478 1669 OFFCURVE",
"516 1693 CURVE SMOOTH",
"535 1705 OFFCURVE",
"554 1711 OFFCURVE",
"574 1711 CURVE SMOOTH",
"637 1711 OFFCURVE",
"680 1669 OFFCURVE",
"680 1614 CURVE SMOOTH",
"680 1569 OFFCURVE",
"653 1526 OFFCURVE",
"613 1502 CURVE SMOOTH",
"592 1489 OFFCURVE",
"571 1483 OFFCURVE",
"548 1483 CURVE SMOOTH",
"495 1483 OFFCURVE",
"450 1529 OFFCURVE",
"450 1582 CURVE SMOOTH"
);
},
{
closed = 1;
nodes = (
"810 1628 OFFCURVE",
"839 1670 OFFCURVE",
"878 1694 CURVE SMOOTH",
"897 1705 OFFCURVE",
"917 1711 OFFCURVE",
"936 1711 CURVE SMOOTH",
"999 1711 OFFCURVE",
"1041 1670 OFFCURVE",
"1041 1615 CURVE SMOOTH",
"1041 1570 OFFCURVE",
"1015 1526 OFFCURVE",
"975 1502 CURVE SMOOTH",
"954 1489 OFFCURVE",
"932 1483 OFFCURVE",
"909 1483 CURVE SMOOTH",
"856 1483 OFFCURVE",
"810 1528 OFFCURVE",
"810 1584 CURVE SMOOTH"
);
},
{
closed = 1;
nodes = (
"889 1326 OFFCURVE",
"1019 1219 OFFCURVE",
"1082 1049 CURVE SMOOTH",
"1113 964 OFFCURVE",
"1129 869 OFFCURVE",
"1129 764 CURVE SMOOTH",
"1129 471 OFFCURVE",
"1019 221 OFFCURVE",
"839 85 CURVE SMOOTH",
"748 17 OFFCURVE",
"646 -17 OFFCURVE",
"533 -17 CURVE SMOOTH",
"342 -17 OFFCURVE",
"212 93 OFFCURVE",
"149 265 CURVE SMOOTH",
"118 351 OFFCURVE",
"102 447 OFFCURVE",
"102 552 CURVE SMOOTH",
"102 844 OFFCURVE",
"212 1092 OFFCURVE",
"394 1226 CURVE SMOOTH",
"485 1293 OFFCURVE",
"586 1326 OFFCURVE",
"698 1326 CURVE SMOOTH"
);
},
{
closed = 1;
nodes = (
"945 931 OFFCURVE",
"904 1079 OFFCURVE",
"821 1159 CURVE SMOOTH",
"780 1199 OFFCURVE",
"729 1219 OFFCURVE",
"669 1219 CURVE SMOOTH",
"524 1219 OFFCURVE",
"400 1103 OFFCURVE",
"332 908 CURVE SMOOTH",
"298 811 OFFCURVE",
"281 701 OFFCURVE",
"281 578 CURVE SMOOTH",
"281 383 OFFCURVE",
"322 231 OFFCURVE",
"405 148 CURVE SMOOTH",
"446 107 OFFCURVE",
"497 86 OFFCURVE",
"557 86 CURVE SMOOTH",
"702 86 OFFCURVE",
"827 204 OFFCURVE",
"895 401 CURVE SMOOTH",
"928 500 OFFCURVE",
"945 611 OFFCURVE",
"945 734 CURVE SMOOTH"
);
}
);
width = 1189;
}
);
note = Odieresis;
unicode = 00D6;
},
{
glyphname = Ograve;
layers = (
{
layerId = "19CE7369-CF6C-4B47-B909-15D5A24EDA33";
name = "Regular Italic";
paths = (
{
closed = 1;
nodes = (
"538 1721 LINE",
"764 1427 LINE",
"706 1385 LINE",
"647 1408 OFFCURVE",
"559 1462 OFFCURVE",
"491 1526 CURVE SMOOTH",
"457 1558 OFFCURVE",
"434 1588 OFFCURVE",
"422 1617 CURVE"
);
},
{
closed = 1;
nodes = (
"889 1326 OFFCURVE",
"1019 1219 OFFCURVE",
"1082 1049 CURVE SMOOTH",
"1113 964 OFFCURVE",
"1129 869 OFFCURVE",
"1129 764 CURVE SMOOTH",
"1129 471 OFFCURVE",
"1019 221 OFFCURVE",
"839 85 CURVE SMOOTH",
"748 17 OFFCURVE",
"646 -17 OFFCURVE",
"533 -17 CURVE SMOOTH",
"342 -17 OFFCURVE",
"212 93 OFFCURVE",
"149 265 CURVE SMOOTH",
"118 351 OFFCURVE",
"102 447 OFFCURVE",
"102 552 CURVE SMOOTH",
"102 844 OFFCURVE",
"212 1092 OFFCURVE",
"394 1226 CURVE SMOOTH",
"485 1293 OFFCURVE",
"586 1326 OFFCURVE",
"698 1326 CURVE SMOOTH"
);
},
{
closed = 1;
nodes = (
"945 931 OFFCURVE",
"904 1079 OFFCURVE",
"821 1159 CURVE SMOOTH",
"780 1199 OFFCURVE",
"729 1219 OFFCURVE",
"669 1219 CURVE SMOOTH",
"524 1219 OFFCURVE",
"400 1103 OFFCURVE",
"332 908 CURVE SMOOTH",
"298 811 OFFCURVE",
"281 701 OFFCURVE",
"281 578 CURVE SMOOTH",
"281 383 OFFCURVE",
"322 231 OFFCURVE",
"405 148 CURVE SMOOTH",
"446 107 OFFCURVE",
"497 86 OFFCURVE",
"557 86 CURVE SMOOTH",
"702 86 OFFCURVE",
"827 204 OFFCURVE",
"895 401 CURVE SMOOTH",
"928 500 OFFCURVE",
"945 611 OFFCURVE",
"945 734 CURVE SMOOTH"
);
}
);
width = 1189;
}
);
note = Ograve;
unicode = 00D2;
},
{
glyphname = Ohungarumlaut;
layers = (
{
layerId = "19CE7369-CF6C-4B47-B909-15D5A24EDA33";
name = "Regular Italic";
paths = (
{
closed = 1;
nodes = (
"889 1326 OFFCURVE",
"1019 1219 OFFCURVE",
"1082 1049 CURVE SMOOTH",
"1113 964 OFFCURVE",
"1129 869 OFFCURVE",
"1129 764 CURVE SMOOTH",
"1129 471 OFFCURVE",
"1019 221 OFFCURVE",
"839 85 CURVE SMOOTH",
"748 17 OFFCURVE",
"646 -17 OFFCURVE",
"533 -17 CURVE SMOOTH",
"342 -17 OFFCURVE",
"212 93 OFFCURVE",
"149 265 CURVE SMOOTH",
"118 351 OFFCURVE",
"102 447 OFFCURVE",
"102 552 CURVE SMOOTH",
"102 844 OFFCURVE",
"212 1092 OFFCURVE",
"394 1226 CURVE SMOOTH",
"485 1293 OFFCURVE",
"586 1326 OFFCURVE",
"698 1326 CURVE SMOOTH"
);
},
{
closed = 1;
nodes = (
"945 931 OFFCURVE",
"904 1079 OFFCURVE",
"821 1159 CURVE SMOOTH",
"780 1199 OFFCURVE",
"729 1219 OFFCURVE",
"669 1219 CURVE SMOOTH",
"524 1219 OFFCURVE",
"400 1103 OFFCURVE",
"332 908 CURVE SMOOTH",
"298 811 OFFCURVE",
"281 701 OFFCURVE",
"281 578 CURVE SMOOTH",
"281 383 OFFCURVE",
"322 231 OFFCURVE",
"405 148 CURVE SMOOTH",
"446 107 OFFCURVE",
"497 86 OFFCURVE",
"557 86 CURVE SMOOTH",
"702 86 OFFCURVE",
"827 204 OFFCURVE",
"895 401 CURVE SMOOTH",
"928 500 OFFCURVE",
"945 611 OFFCURVE",
"945 734 CURVE SMOOTH"
);
},
{
closed = 1;
nodes = (
"724 1721 LINE",
"840 1619 LINE",
"812 1556 OFFCURVE",
"737 1490 OFFCURVE",
"660 1441 CURVE SMOOTH",
"621 1416 OFFCURVE",
"588 1398 OFFCURVE",
"560 1385 CURVE",
"487 1442 LINE"
);
},
{
closed = 1;
nodes = (
"1100 1721 LINE",
"1217 1618 LINE",
"1181 1554 OFFCURVE",
"1110 1488 OFFCURVE",
"1039 1440 CURVE SMOOTH",
"1004 1415 OFFCURVE",
"972 1397 OFFCURVE",
"944 1385 CURVE",
"863 1442 LINE"
);
}
);
width = 1189;
}
);
note = Ohungarumlaut;
unicode = 0150;
},
{
glyphname = Omacron;
layers = (
{
layerId = "19CE7369-CF6C-4B47-B909-15D5A24EDA33";
name = "Regular Italic";
paths = (
{
closed = 1;
nodes = (
"950 1617 LINE",
"932 1486 LINE",
"493 1486 LINE",
"509 1617 LINE"
);
},
{
closed = 1;
nodes = (
"889 1326 OFFCURVE",
"1019 1219 OFFCURVE",
"1082 1049 CURVE SMOOTH",
"1113 964 OFFCURVE",
"1129 869 OFFCURVE",
"1129 764 CURVE SMOOTH",
"1129 471 OFFCURVE",
"1019 221 OFFCURVE",
"839 85 CURVE SMOOTH",
"748 17 OFFCURVE",
"646 -17 OFFCURVE",
"533 -17 CURVE SMOOTH",
"342 -17 OFFCURVE",
"212 93 OFFCURVE",
"149 265 CURVE SMOOTH",
"118 351 OFFCURVE",
"102 447 OFFCURVE",
"102 552 CURVE SMOOTH",
"102 844 OFFCURVE",
"212 1092 OFFCURVE",
"394 1226 CURVE SMOOTH",
"485 1293 OFFCURVE",
"586 1326 OFFCURVE",
"698 1326 CURVE SMOOTH"
);
},
{
closed = 1;
nodes = (
"945 931 OFFCURVE",
"904 1079 OFFCURVE",
"821 1159 CURVE SMOOTH",
"780 1199 OFFCURVE",
"729 1219 OFFCURVE",
"669 1219 CURVE SMOOTH",
"524 1219 OFFCURVE",
"400 1103 OFFCURVE",
"332 908 CURVE SMOOTH",
"298 811 OFFCURVE",
"281 701 OFFCURVE",
"281 578 CURVE SMOOTH",
"281 383 OFFCURVE",
"322 231 OFFCURVE",
"405 148 CURVE SMOOTH",
"446 107 OFFCURVE",
"497 86 OFFCURVE",
"557 86 CURVE SMOOTH",
"702 86 OFFCURVE",
"827 204 OFFCURVE",
"895 401 CURVE SMOOTH",
"928 500 OFFCURVE",
"945 611 OFFCURVE",
"945 734 CURVE SMOOTH"
);
}
);
width = 1189;
}
);
note = Omacron;
unicode = 014C;
},
{
glyphname = Oslash;
layers = (
{
layerId = "19CE7369-CF6C-4B47-B909-15D5A24EDA33";
name = "Regular Italic";
paths = (
{
closed = 1;
nodes = (
"770 1328 OFFCURVE",
"834 1313 OFFCURVE",
"890 1282 CURVE",
"1003 1470 LINE",
"1081 1434 LINE",
"963 1232 LINE",
"1074 1132 OFFCURVE",
"1129 962 OFFCURVE",
"1129 765 CURVE SMOOTH",
"1129 472 OFFCURVE",
"1019 222 OFFCURVE",
"839 87 CURVE SMOOTH",
"748 19 OFFCURVE",
"646 -15 OFFCURVE",
"533 -15 CURVE SMOOTH",
"448 -15 OFFCURVE",
"374 6 OFFCURVE",
"311 48 CURVE",
"185 -158 LINE",
"106 -120 LINE",
"243 108 LINE",
"148 209 OFFCURVE",
"102 370 OFFCURVE",
"102 554 CURVE SMOOTH",
"102 846 OFFCURVE",
"212 1094 OFFCURVE",
"394 1228 CURVE SMOOTH",
"485 1295 OFFCURVE",
"586 1328 OFFCURVE",
"698 1328 CURVE SMOOTH"
);
},
{
closed = 1;
nodes = (
"822 1159 LINE",
"780 1200 OFFCURVE",
"729 1220 OFFCURVE",
"669 1220 CURVE SMOOTH",
"524 1220 OFFCURVE",
"400 1105 OFFCURVE",
"332 910 CURVE SMOOTH",
"298 813 OFFCURVE",
"281 703 OFFCURVE",
"281 580 CURVE SMOOTH",
"281 441 OFFCURVE",
"301 329 OFFCURVE",
"340 245 CURVE"
);
},
{
closed = 1;
nodes = (
"945 887 OFFCURVE",
"920 1011 OFFCURVE",
"871 1096 CURVE",
"384 171 LINE",
"430 116 OFFCURVE",
"488 88 OFFCURVE",
"557 88 CURVE SMOOTH",
"702 88 OFFCURVE",
"827 206 OFFCURVE",
"895 403 CURVE SMOOTH",
"928 501 OFFCURVE",
"945 612 OFFCURVE",
"945 735 CURVE SMOOTH"
);
}
);
width = 1194;
}
);
note = Oslash;
unicode = 00D8;
},
{
glyphname = Oslashacute;
layers = (
{
layerId = "19CE7369-CF6C-4B47-B909-15D5A24EDA33";
name = "Regular Italic";
paths = (
{
closed = 1;
nodes = (
"770 1328 OFFCURVE",
"834 1313 OFFCURVE",
"890 1282 CURVE",
"1003 1470 LINE",
"1081 1434 LINE",
"963 1232 LINE",
"1074 1132 OFFCURVE",
"1129 962 OFFCURVE",
"1129 765 CURVE SMOOTH",
"1129 472 OFFCURVE",
"1019 222 OFFCURVE",
"839 87 CURVE SMOOTH",
"748 19 OFFCURVE",
"646 -15 OFFCURVE",
"533 -15 CURVE SMOOTH",
"448 -15 OFFCURVE",
"374 6 OFFCURVE",
"311 48 CURVE",
"185 -158 LINE",
"106 -120 LINE",
"243 108 LINE",
"148 209 OFFCURVE",
"102 370 OFFCURVE",
"102 554 CURVE SMOOTH",
"102 846 OFFCURVE",
"212 1094 OFFCURVE",
"394 1228 CURVE SMOOTH",
"485 1295 OFFCURVE",
"586 1328 OFFCURVE",
"698 1328 CURVE SMOOTH"
);
},
{
closed = 1;
nodes = (
"822 1159 LINE",
"780 1200 OFFCURVE",
"729 1220 OFFCURVE",
"669 1220 CURVE SMOOTH",
"524 1220 OFFCURVE",
"400 1105 OFFCURVE",
"332 910 CURVE SMOOTH",
"298 813 OFFCURVE",
"281 703 OFFCURVE",
"281 580 CURVE SMOOTH",
"281 441 OFFCURVE",
"301 329 OFFCURVE",
"340 245 CURVE"
);
},
{
closed = 1;
nodes = (
"945 887 OFFCURVE",
"920 1011 OFFCURVE",
"871 1096 CURVE",
"384 171 LINE",
"430 116 OFFCURVE",
"488 88 OFFCURVE",
"557 88 CURVE SMOOTH",
"702 88 OFFCURVE",
"827 206 OFFCURVE",
"895 403 CURVE SMOOTH",
"928 501 OFFCURVE",
"945 612 OFFCURVE",
"945 735 CURVE SMOOTH"
);
},
{
closed = 1;
nodes = (
"917 1721 LINE",
"1026 1617 LINE",
"998 1557 OFFCURVE",
"921 1490 OFFCURVE",
"841 1440 CURVE SMOOTH",
"800 1415 OFFCURVE",
"765 1396 OFFCURVE",
"736 1385 CURVE",
"680 1427 LINE"
);
}
);
width = 1194;
}
);
note = Oslashacute;
unicode = 01FE;
},
{
glyphname = Otilde;
layers = (
{
layerId = "19CE7369-CF6C-4B47-B909-15D5A24EDA33";
name = "Regular Italic";
paths = (
{
closed = 1;
nodes = (
"420 1549 LINE",
"451 1630 OFFCURVE",
"521 1695 OFFCURVE",
"613 1695 CURVE SMOOTH",
"669 1695 OFFCURVE",
"705 1672 OFFCURVE",
"758 1628 CURVE",
"806 1591 OFFCURVE",
"830 1574 OFFCURVE",
"867 1574 CURVE SMOOTH",
"910 1574 OFFCURVE",
"941 1592 OFFCURVE",
"959 1610 CURVE SMOOTH",
"968 1619 OFFCURVE",
"979 1632 OFFCURVE",
"993 1649 CURVE",
"1043 1578 LINE",
"1015 1501 OFFCURVE",
"948 1432 OFFCURVE",
"851 1432 CURVE SMOOTH",
"792 1432 OFFCURVE",
"757 1454 OFFCURVE",
"705 1498 CURVE SMOOTH",
"660 1535 OFFCURVE",
"634 1553 OFFCURVE",
"594 1553 CURVE SMOOTH",
"543 1553 OFFCURVE",
"506 1526 OFFCURVE",
"470 1478 CURVE"
);
},
{
closed = 1;
nodes = (
"889 1326 OFFCURVE",
"1019 1219 OFFCURVE",
"1082 1049 CURVE SMOOTH",
"1113 964 OFFCURVE",
"1129 869 OFFCURVE",
"1129 764 CURVE SMOOTH",
"1129 471 OFFCURVE",
"1019 221 OFFCURVE",
"839 85 CURVE SMOOTH",
"748 17 OFFCURVE",
"646 -17 OFFCURVE",
"533 -17 CURVE SMOOTH",
"342 -17 OFFCURVE",
"212 93 OFFCURVE",
"149 265 CURVE SMOOTH",
"118 351 OFFCURVE",
"102 447 OFFCURVE",
"102 552 CURVE SMOOTH",
"102 844 OFFCURVE",
"212 1092 OFFCURVE",
"394 1226 CURVE SMOOTH",
"485 1293 OFFCURVE",
"586 1326 OFFCURVE",
"698 1326 CURVE SMOOTH"
);
},
{
closed = 1;
nodes = (
"945 931 OFFCURVE",
"904 1079 OFFCURVE",
"821 1159 CURVE SMOOTH",
"780 1199 OFFCURVE",
"729 1219 OFFCURVE",
"669 1219 CURVE SMOOTH",
"524 1219 OFFCURVE",
"400 1103 OFFCURVE",
"332 908 CURVE SMOOTH",
"298 811 OFFCURVE",
"281 701 OFFCURVE",
"281 578 CURVE SMOOTH",
"281 383 OFFCURVE",
"322 231 OFFCURVE",
"405 148 CURVE SMOOTH",
"446 107 OFFCURVE",
"497 86 OFFCURVE",
"557 86 CURVE SMOOTH",
"702 86 OFFCURVE",
"827 204 OFFCURVE",
"895 401 CURVE SMOOTH",
"928 500 OFFCURVE",
"945 611 OFFCURVE",
"945 734 CURVE SMOOTH"
);
}
);
width = 1189;
}
);
note = Otilde;
unicode = 00D5;
},
{
glyphname = OE;
layers = (
{
layerId = "19CE7369-CF6C-4B47-B909-15D5A24EDA33";
name = "Regular Italic";
paths = (
{
closed = 1;
nodes = (
"867 1324 OFFCURVE",
"990 1223 OFFCURVE",
"1054 1058 CURVE",
"1084 1309 LINE",
"1742 1309 LINE",
"1735 1057 LINE",
"1639 1057 LINE",
"1599 1203 LINE",
"1257 1216 LINE",
"1193 728 LINE",
"1538 749 LINE",
"1524 605 LINE",
"1184 620 LINE",
"1121 101 LINE",
"1560 121 LINE",
"1643 285 LINE",
"1735 258 LINE",
"1680 0 LINE",
"930 0 LINE",
"955 223 LINE",
"852 71 OFFCURVE",
"703 -17 OFFCURVE",
"532 -17 CURVE SMOOTH",
"353 -17 OFFCURVE",
"214 77 OFFCURVE",
"141 249 CURVE SMOOTH",
"104 335 OFFCURVE",
"86 437 OFFCURVE",
"86 554 CURVE SMOOTH",
"86 846 OFFCURVE",
"203 1092 OFFCURVE",
"388 1225 CURVE SMOOTH",
"481 1291 OFFCURVE",
"583 1324 OFFCURVE",
"694 1324 CURVE SMOOTH"
);
},
{
closed = 1;
nodes = (
"944 1065 OFFCURVE",
"853 1216 OFFCURVE",
"666 1216 CURVE SMOOTH",
"518 1216 OFFCURVE",
"388 1101 OFFCURVE",
"318 916 CURVE SMOOTH",
"283 823 OFFCURVE",
"266 721 OFFCURVE",
"267 609 CURVE SMOOTH",
"275 268 OFFCURVE",
"355 86 OFFCURVE",
"558 86 CURVE SMOOTH",
"703 86 OFFCURVE",
"827 203 OFFCURVE",
"894 398 CURVE SMOOTH",
"927 495 OFFCURVE",
"944 604 OFFCURVE",
"944 724 CURVE SMOOTH"
);
}
);
width = 1795;
}
);
note = OE;
unicode = 0152;
},
{
glyphname = P;
layers = (
{
layerId = "19CE7369-CF6C-4B47-B909-15D5A24EDA33";
name = "Regular Italic";
paths = (
{
closed = 1;
nodes = (
"159 101 LINE",
"298 1202 LINE",
"183 1222 LINE",
"194 1309 LINE",
"413 1309 LINE SMOOTH",
"439 1309 OFFCURVE",
"478 1311 OFFCURVE",
"531 1316 CURVE SMOOTH",
"580 1321 OFFCURVE",
"623 1324 OFFCURVE",
"660 1324 CURVE SMOOTH",
"920 1324 OFFCURVE",
"1056 1210 OFFCURVE",
"1056 975 CURVE SMOOTH",
"1056 762 OFFCURVE",
"953 606 OFFCURVE",
"792 527 CURVE SMOOTH",
"711 487 OFFCURVE",
"622 467 OFFCURVE",
"525 467 CURVE SMOOTH",
"455 467 OFFCURVE",
"406 468 OFFCURVE",
"378 470 CURVE",
"335 101 LINE",
"507 76 LINE",
"500 0 LINE",
"24 0 LINE",
"32 75 LINE"
);
},
{
closed = 1;
nodes = (
"696 571 OFFCURVE",
"791 633 OFFCURVE",
"836 750 CURVE SMOOTH",
"880 867 OFFCURVE",
"881 1037 OFFCURVE",
"854 1110 CURVE SMOOTH",
"826 1182 OFFCURVE",
"763 1221 OFFCURVE",
"646 1221 CURVE SMOOTH",
"601 1221 OFFCURVE",
"522 1215 OFFCURVE",
"474 1203 CURVE",
"391 582 LINE",
"440 574 OFFCURVE",
"487 570 OFFCURVE",
"533 570 CURVE SMOOTH"
);
}
);
width = 1065;
}
);
note = P;
unicode = 0050;
},
{
glyphname = Thorn;
layers = (
{
layerId = "19CE7369-CF6C-4B47-B909-15D5A24EDA33";
name = "Regular Italic";
paths = (
{
closed = 1;
nodes = (
"159 101 LINE",
"298 1208 LINE",
"183 1228 LINE",
"194 1316 LINE",
"616 1316 LINE",
"606 1228 LINE",
"474 1208 LINE",
"451 1028 LINE",
"508 1037 OFFCURVE",
"570 1042 OFFCURVE",
"637 1042 CURVE SMOOTH",
"897 1042 OFFCURVE",
"1030 925 OFFCURVE",
"1030 714 CURVE SMOOTH",
"1030 537 OFFCURVE",
"933 398 OFFCURVE",
"774 324 CURVE SMOOTH",
"694 287 OFFCURVE",
"605 268 OFFCURVE",
"506 268 CURVE SMOOTH",
"427 268 OFFCURVE",
"377 269 OFFCURVE",
"356 271 CURVE",
"335 101 LINE",
"484 76 LINE",
"477 0 LINE",
"24 0 LINE",
"33 75 LINE"
);
},
{
closed = 1;
nodes = (
"369 375 LINE",
"414 369 OFFCURVE",
"459 366 OFFCURVE",
"504 366 CURVE SMOOTH",
"659 366 OFFCURVE",
"765 421 OFFCURVE",
"818 516 CURVE SMOOTH",
"870 611 OFFCURVE",
"861 752 OFFCURVE",
"830 828 CURVE SMOOTH",
"799 903 OFFCURVE",
"727 940 OFFCURVE",
"590 940 CURVE SMOOTH",
"538 940 OFFCURVE",
"487 935 OFFCURVE",
"438 924 CURVE"
);
}
);
width = 1062;
}
);
note = Thorn;
unicode = 00DE;
},
{
glyphname = Q;
layers = (
{
layerId = "19CE7369-CF6C-4B47-B909-15D5A24EDA33";
name = "Regular Italic";
paths = (
{
closed = 1;
nodes = (
"886 1327 OFFCURVE",
"1016 1218 OFFCURVE",
"1079 1049 CURVE SMOOTH",
"1110 964 OFFCURVE",
"1126 870 OFFCURVE",
"1126 765 CURVE SMOOTH",
"1126 496 OFFCURVE",
"1034 265 OFFCURVE",
"879 123 CURVE SMOOTH",
"801 52 OFFCURVE",
"713 8 OFFCURVE",
"614 -9 CURVE",
"619 -93 OFFCURVE",
"668 -134 OFFCURVE",
"734 -146 CURVE SMOOTH",
"767 -153 OFFCURVE",
"808 -156 OFFCURVE",
"859 -156 CURVE SMOOTH",
"910 -156 OFFCURVE",
"992 -140 OFFCURVE",
"1041 -119 CURVE",
"1042 -237 LINE",
"997 -276 OFFCURVE",
"892 -310 OFFCURVE",
"799 -310 CURVE SMOOTH",
"688 -310 OFFCURVE",
"592 -275 OFFCURVE",
"537 -203 CURVE SMOOTH",
"510 -167 OFFCURVE",
"496 -123 OFFCURVE",
"496 -71 CURVE SMOOTH",
"496 -54 OFFCURVE",
"498 -36 OFFCURVE",
"501 -15 CURVE",
"324 -6 OFFCURVE",
"202 106 OFFCURVE",
"143 274 CURVE SMOOTH",
"114 358 OFFCURVE",
"99 451 OFFCURVE",
"99 553 CURVE SMOOTH",
"99 845 OFFCURVE",
"209 1093 OFFCURVE",
"390 1227 CURVE SMOOTH",
"481 1294 OFFCURVE",
"582 1327 OFFCURVE",
"695 1327 CURVE SMOOTH"
);
},
{
closed = 1;
nodes = (
"942 931 OFFCURVE",
"901 1080 OFFCURVE",
"818 1160 CURVE SMOOTH",
"777 1199 OFFCURVE",
"726 1219 OFFCURVE",
"666 1219 CURVE SMOOTH",
"519 1219 OFFCURVE",
"396 1104 OFFCURVE",
"329 909 CURVE SMOOTH",
"295 812 OFFCURVE",
"278 702 OFFCURVE",
"278 579 CURVE SMOOTH",
"278 384 OFFCURVE",
"319 232 OFFCURVE",
"402 149 CURVE SMOOTH",
"443 108 OFFCURVE",
"494 87 OFFCURVE",
"554 87 CURVE SMOOTH",
"699 87 OFFCURVE",
"823 205 OFFCURVE",
"891 402 CURVE SMOOTH",
"925 501 OFFCURVE",
"942 611 OFFCURVE",
"942 734 CURVE SMOOTH"
);
}
);
width = 1194;
}
);
note = Q;
unicode = 0051;
},
{
glyphname = R;
layers = (
{
layerId = "19CE7369-CF6C-4B47-B909-15D5A24EDA33";
name = "Regular Italic";
paths = (
{
closed = 1;
nodes = (
"159 101 LINE",
"298 1202 LINE",
"183 1222 LINE",
"194 1309 LINE",
"427 1309 LINE SMOOTH",
"450 1309 OFFCURVE",
"485 1311 OFFCURVE",
"531 1316 CURVE SMOOTH",
"576 1321 OFFCURVE",
"611 1323 OFFCURVE",
"634 1323 CURVE SMOOTH",
"831 1323 OFFCURVE",
"950 1279 OFFCURVE",
"1006 1191 CURVE SMOOTH",
"1034 1146 OFFCURVE",
"1048 1088 OFFCURVE",
"1048 1017 CURVE SMOOTH",
"1048 882 OFFCURVE",
"996 766 OFFCURVE",
"899 686 CURVE SMOOTH",
"850 646 OFFCURVE",
"792 616 OFFCURVE",
"724 597 CURVE",
"772 556 OFFCURVE",
"841 438 OFFCURVE",
"882 346 CURVE SMOOTH",
"918 269 LINE SMOOTH",
"945 208 OFFCURVE",
"966 167 OFFCURVE",
"980 145 CURVE SMOOTH",
"1007 100 OFFCURVE",
"1037 84 OFFCURVE",
"1113 84 CURVE",
"1109 0 LINE",
"908 0 LINE SMOOTH",
"875 0 OFFCURVE",
"849 23 OFFCURVE",
"813 92 CURVE SMOOTH",
"795 127 OFFCURVE",
"773 177 OFFCURVE",
"747 243 CURVE SMOOTH",
"691 384 OFFCURVE",
"658 465 OFFCURVE",
"611 529 CURVE SMOOTH",
"587 560 OFFCURVE",
"563 576 OFFCURVE",
"539 577 CURVE",
"382 576 LINE",
"328 101 LINE",
"487 76 LINE",
"480 0 LINE",
"40 0 LINE",
"48 75 LINE"
);
},
{
closed = 1;
nodes = (
"709 685 OFFCURVE",
"798 748 OFFCURVE",
"840 843 CURVE SMOOTH",
"861 890 OFFCURVE",
"871 943 OFFCURVE",
"871 1001 CURVE SMOOTH",
"871 1104 OFFCURVE",
"847 1164 OFFCURVE",
"771 1196 CURVE SMOOTH",
"733 1212 OFFCURVE",
"679 1220 OFFCURVE",
"608 1220 CURVE SMOOTH",
"580 1220 OFFCURVE",
"503 1215 OFFCURVE",
"468 1208 CURVE",
"396 679 LINE",
"433 676 OFFCURVE",
"481 675 OFFCURVE",
"538 675 CURVE SMOOTH",
"560 675 OFFCURVE",
"574 675 OFFCURVE",
"580 676 CURVE"
);
}
);
width = 1162;
}
);
note = R;
unicode = 0052;
},
{
glyphname = Racute;
layers = (
{
layerId = "19CE7369-CF6C-4B47-B909-15D5A24EDA33";
name = "Regular Italic";
paths = (
{
closed = 1;
nodes = (
"159 101 LINE",
"298 1202 LINE",
"183 1222 LINE",
"194 1309 LINE",
"427 1309 LINE SMOOTH",
"450 1309 OFFCURVE",
"485 1311 OFFCURVE",
"531 1316 CURVE SMOOTH",
"576 1321 OFFCURVE",
"611 1323 OFFCURVE",
"634 1323 CURVE SMOOTH",
"831 1323 OFFCURVE",
"950 1279 OFFCURVE",
"1006 1191 CURVE SMOOTH",
"1034 1146 OFFCURVE",
"1048 1088 OFFCURVE",
"1048 1017 CURVE SMOOTH",
"1048 882 OFFCURVE",
"996 766 OFFCURVE",
"899 686 CURVE SMOOTH",
"850 646 OFFCURVE",
"792 616 OFFCURVE",
"724 597 CURVE",
"772 556 OFFCURVE",
"841 438 OFFCURVE",
"882 346 CURVE SMOOTH",
"918 269 LINE SMOOTH",
"945 208 OFFCURVE",
"966 167 OFFCURVE",
"980 145 CURVE SMOOTH",
"1007 100 OFFCURVE",
"1037 84 OFFCURVE",
"1113 84 CURVE",
"1109 0 LINE",
"908 0 LINE SMOOTH",
"875 0 OFFCURVE",
"849 23 OFFCURVE",
"813 92 CURVE SMOOTH",
"795 127 OFFCURVE",
"773 177 OFFCURVE",
"747 243 CURVE SMOOTH",
"691 384 OFFCURVE",
"658 465 OFFCURVE",
"611 529 CURVE SMOOTH",
"587 560 OFFCURVE",
"563 576 OFFCURVE",
"539 577 CURVE",
"382 576 LINE",
"328 101 LINE",
"487 76 LINE",
"480 0 LINE",
"40 0 LINE",
"48 75 LINE"
);
},
{
closed = 1;
nodes = (
"709 685 OFFCURVE",
"798 748 OFFCURVE",
"840 843 CURVE SMOOTH",
"861 890 OFFCURVE",
"871 943 OFFCURVE",
"871 1001 CURVE SMOOTH",
"871 1104 OFFCURVE",
"847 1164 OFFCURVE",
"771 1196 CURVE SMOOTH",
"733 1212 OFFCURVE",
"679 1220 OFFCURVE",
"608 1220 CURVE SMOOTH",
"580 1220 OFFCURVE",
"503 1215 OFFCURVE",
"468 1208 CURVE",
"396 679 LINE",
"433 676 OFFCURVE",
"481 675 OFFCURVE",
"538 675 CURVE SMOOTH",
"560 675 OFFCURVE",
"574 675 OFFCURVE",
"580 676 CURVE"
);
},
{
closed = 1;
nodes = (
"869 1721 LINE",
"978 1617 LINE",
"950 1557 OFFCURVE",
"873 1490 OFFCURVE",
"793 1440 CURVE SMOOTH",
"752 1415 OFFCURVE",
"717 1396 OFFCURVE",
"688 1385 CURVE",
"632 1427 LINE"
);
}
);
width = 1162;
}
);
note = Racute;
unicode = 0154;
},
{
glyphname = Rcaron;
layers = (
{
layerId = "19CE7369-CF6C-4B47-B909-15D5A24EDA33";
name = "Regular Italic";
paths = (
{
closed = 1;
nodes = (
"453 1721 LINE",
"657 1520 LINE",
"929 1721 LINE",
"984 1672 LINE",
"728 1396 LINE",
"578 1396 LINE",
"387 1671 LINE"
);
},
{
closed = 1;
nodes = (
"151 101 LINE",
"290 1202 LINE",
"175 1222 LINE",
"186 1309 LINE",
"419 1309 LINE SMOOTH",
"442 1309 OFFCURVE",
"477 1311 OFFCURVE",
"523 1316 CURVE SMOOTH",
"568 1321 OFFCURVE",
"603 1323 OFFCURVE",
"626 1323 CURVE SMOOTH",
"823 1323 OFFCURVE",
"942 1279 OFFCURVE",
"998 1191 CURVE SMOOTH",
"1026 1146 OFFCURVE",
"1040 1088 OFFCURVE",
"1040 1017 CURVE SMOOTH",
"1040 882 OFFCURVE",
"988 766 OFFCURVE",
"891 686 CURVE SMOOTH",
"842 646 OFFCURVE",
"784 616 OFFCURVE",
"716 597 CURVE",
"764 556 OFFCURVE",
"833 438 OFFCURVE",
"874 346 CURVE SMOOTH",
"910 269 LINE SMOOTH",
"937 208 OFFCURVE",
"958 167 OFFCURVE",
"972 145 CURVE SMOOTH",
"999 100 OFFCURVE",
"1029 84 OFFCURVE",
"1105 84 CURVE",
"1101 0 LINE",
"900 0 LINE SMOOTH",
"867 0 OFFCURVE",
"841 23 OFFCURVE",
"805 92 CURVE SMOOTH",
"787 127 OFFCURVE",
"765 177 OFFCURVE",
"739 243 CURVE SMOOTH",
"683 384 OFFCURVE",
"650 465 OFFCURVE",
"603 529 CURVE SMOOTH",
"579 560 OFFCURVE",
"555 576 OFFCURVE",
"531 577 CURVE",
"374 576 LINE",
"320 101 LINE",
"479 76 LINE",
"472 0 LINE",
"32 0 LINE",
"40 75 LINE"
);
},
{
closed = 1;
nodes = (
"701 685 OFFCURVE",
"790 748 OFFCURVE",
"832 843 CURVE SMOOTH",
"853 890 OFFCURVE",
"863 943 OFFCURVE",
"863 1001 CURVE SMOOTH",
"863 1104 OFFCURVE",
"839 1164 OFFCURVE",
"763 1196 CURVE SMOOTH",
"725 1212 OFFCURVE",
"671 1220 OFFCURVE",
"600 1220 CURVE SMOOTH",
"572 1220 OFFCURVE",
"495 1215 OFFCURVE",
"460 1208 CURVE",
"388 679 LINE",
"425 676 OFFCURVE",
"473 675 OFFCURVE",
"530 675 CURVE SMOOTH",
"552 675 OFFCURVE",
"566 675 OFFCURVE",
"572 676 CURVE"
);
}
);
width = 1154;
}
);
note = Rcaron;
unicode = 0158;
},
{
glyphname = Rcommaaccent;
layers = (
{
layerId = "19CE7369-CF6C-4B47-B909-15D5A24EDA33";
name = "Regular Italic";
paths = (
{
closed = 1;
nodes = (
"461 -424 LINE",
"501 -392 OFFCURVE",
"526 -342 OFFCURVE",
"526 -287 CURVE SMOOTH",
"526 -246 OFFCURVE",
"497 -193 OFFCURVE",
"464 -186 CURVE",
"465 -130 LINE",
"577 -43 LINE",
"644 -58 OFFCURVE",
"684 -136 OFFCURVE",
"684 -224 CURVE SMOOTH",
"684 -311 OFFCURVE",
"645 -390 OFFCURVE",
"597 -437 CURVE SMOOTH",
"572 -461 OFFCURVE",
"549 -476 OFFCURVE",
"528 -482 CURVE",
"461 -446 LINE"
);
},
{
closed = 1;
nodes = (
"151 101 LINE",
"290 1202 LINE",
"175 1222 LINE",
"186 1309 LINE",
"419 1309 LINE SMOOTH",
"442 1309 OFFCURVE",
"477 1311 OFFCURVE",
"523 1316 CURVE SMOOTH",
"568 1321 OFFCURVE",
"603 1323 OFFCURVE",
"626 1323 CURVE SMOOTH",
"823 1323 OFFCURVE",
"942 1279 OFFCURVE",
"998 1191 CURVE SMOOTH",
"1026 1146 OFFCURVE",
"1040 1088 OFFCURVE",
"1040 1017 CURVE SMOOTH",
"1040 882 OFFCURVE",
"988 766 OFFCURVE",
"891 686 CURVE SMOOTH",
"842 646 OFFCURVE",
"784 616 OFFCURVE",
"716 597 CURVE",
"764 556 OFFCURVE",
"833 438 OFFCURVE",
"874 346 CURVE SMOOTH",
"910 269 LINE SMOOTH",
"937 208 OFFCURVE",
"958 167 OFFCURVE",
"972 145 CURVE SMOOTH",
"999 100 OFFCURVE",
"1029 84 OFFCURVE",
"1105 84 CURVE",
"1101 0 LINE",
"900 0 LINE SMOOTH",
"867 0 OFFCURVE",
"841 23 OFFCURVE",
"805 92 CURVE SMOOTH",
"787 127 OFFCURVE",
"765 177 OFFCURVE",
"739 243 CURVE SMOOTH",
"683 384 OFFCURVE",
"650 465 OFFCURVE",
"603 529 CURVE SMOOTH",
"579 560 OFFCURVE",
"555 576 OFFCURVE",
"531 577 CURVE",
"374 576 LINE",
"320 101 LINE",
"479 76 LINE",
"472 0 LINE",
"32 0 LINE",
"40 75 LINE"
);
},
{
closed = 1;
nodes = (
"701 685 OFFCURVE",
"790 748 OFFCURVE",
"832 843 CURVE SMOOTH",
"853 890 OFFCURVE",
"863 943 OFFCURVE",
"863 1001 CURVE SMOOTH",
"863 1104 OFFCURVE",
"839 1164 OFFCURVE",
"763 1196 CURVE SMOOTH",
"725 1212 OFFCURVE",
"671 1220 OFFCURVE",
"600 1220 CURVE SMOOTH",
"572 1220 OFFCURVE",
"495 1215 OFFCURVE",
"460 1208 CURVE",
"388 679 LINE",
"425 676 OFFCURVE",
"473 675 OFFCURVE",
"530 675 CURVE SMOOTH",
"552 675 OFFCURVE",
"566 675 OFFCURVE",
"572 676 CURVE"
);
}
);
width = 1154;
}
);
note = Rcommaaccent;
unicode = 0156;
},
{
glyphname = S;
layers = (
{
layerId = "19CE7369-CF6C-4B47-B909-15D5A24EDA33";
name = "Regular Italic";
paths = (
{
closed = 1;
nodes = (
"186 298 LINE",
"207 132 LINE",
"254 101 OFFCURVE",
"333 81 OFFCURVE",
"402 81 CURVE SMOOTH",
"485 81 OFFCURVE",
"575 111 OFFCURVE",
"631 179 CURVE SMOOTH",
"659 213 OFFCURVE",
"673 255 OFFCURVE",
"673 306 CURVE SMOOTH",
"673 389 OFFCURVE",
"632 454 OFFCURVE",
"572 506 CURVE SMOOTH",
"542 531 OFFCURVE",
"505 558 OFFCURVE",
"460 586 CURVE SMOOTH",
"344 658 OFFCURVE",
"263 721 OFFCURVE",
"209 816 CURVE SMOOTH",
"182 863 OFFCURVE",
"168 917 OFFCURVE",
"168 976 CURVE SMOOTH",
"168 1112 OFFCURVE",
"249 1222 OFFCURVE",
"376 1282 CURVE SMOOTH",
"439 1311 OFFCURVE",
"508 1326 OFFCURVE",
"582 1326 CURVE SMOOTH",
"731 1326 OFFCURVE",
"836 1292 OFFCURVE",
"896 1253 CURVE",
"856 1027 LINE",
"762 1027 LINE",
"738 1182 LINE",
"702 1207 OFFCURVE",
"635 1226 OFFCURVE",
"568 1226 CURVE SMOOTH",
"495 1226 OFFCURVE",
"419 1198 OFFCURVE",
"375 1141 CURVE SMOOTH",
"352 1112 OFFCURVE",
"341 1077 OFFCURVE",
"341 1035 CURVE SMOOTH",
"341 906 OFFCURVE",
"422 821 OFFCURVE",
"563 733 CURVE SMOOTH",
"690 653 OFFCURVE",
"756 606 OFFCURVE",
"808 519 CURVE SMOOTH",
"834 476 OFFCURVE",
"847 425 OFFCURVE",
"847 367 CURVE SMOOTH",
"847 210 OFFCURVE",
"764 90 OFFCURVE",
"628 27 CURVE SMOOTH",
"559 -4 OFFCURVE",
"482 -20 OFFCURVE",
"397 -20 CURVE SMOOTH",
"297 -20 OFFCURVE",
"194 -3 OFFCURVE",
"122 22 CURVE SMOOTH",
"86 34 OFFCURVE",
"61 45 OFFCURVE",
"46 56 CURVE",
"83 298 LINE"
);
}
);
width = 931;
}
);
note = S;
unicode = 0053;
},
{
glyphname = Sacute;
layers = (
{
layerId = "19CE7369-CF6C-4B47-B909-15D5A24EDA33";
name = "Regular Italic";
paths = (
{
closed = 1;
nodes = (
"186 298 LINE",
"207 132 LINE",
"254 101 OFFCURVE",
"333 81 OFFCURVE",
"402 81 CURVE SMOOTH",
"485 81 OFFCURVE",
"575 111 OFFCURVE",
"631 179 CURVE SMOOTH",
"659 213 OFFCURVE",
"673 255 OFFCURVE",
"673 306 CURVE SMOOTH",
"673 389 OFFCURVE",
"632 454 OFFCURVE",
"572 506 CURVE SMOOTH",
"542 531 OFFCURVE",
"505 558 OFFCURVE",
"460 586 CURVE SMOOTH",
"344 658 OFFCURVE",
"263 721 OFFCURVE",
"209 816 CURVE SMOOTH",
"182 863 OFFCURVE",
"168 917 OFFCURVE",
"168 976 CURVE SMOOTH",
"168 1112 OFFCURVE",
"249 1222 OFFCURVE",
"376 1282 CURVE SMOOTH",
"439 1311 OFFCURVE",
"508 1326 OFFCURVE",
"582 1326 CURVE SMOOTH",
"731 1326 OFFCURVE",
"836 1292 OFFCURVE",
"896 1253 CURVE",
"856 1027 LINE",
"762 1027 LINE",
"738 1182 LINE",
"702 1207 OFFCURVE",
"635 1226 OFFCURVE",
"568 1226 CURVE SMOOTH",
"495 1226 OFFCURVE",
"419 1198 OFFCURVE",
"375 1141 CURVE SMOOTH",
"352 1112 OFFCURVE",
"341 1077 OFFCURVE",
"341 1035 CURVE SMOOTH",
"341 906 OFFCURVE",
"422 821 OFFCURVE",
"563 733 CURVE SMOOTH",
"690 653 OFFCURVE",
"756 606 OFFCURVE",
"808 519 CURVE SMOOTH",
"834 476 OFFCURVE",
"847 425 OFFCURVE",
"847 367 CURVE SMOOTH",
"847 210 OFFCURVE",
"764 90 OFFCURVE",
"628 27 CURVE SMOOTH",
"559 -4 OFFCURVE",
"482 -20 OFFCURVE",
"397 -20 CURVE SMOOTH",
"297 -20 OFFCURVE",
"194 -3 OFFCURVE",
"122 22 CURVE SMOOTH",
"86 34 OFFCURVE",
"61 45 OFFCURVE",
"46 56 CURVE",
"83 298 LINE"
);
},
{
closed = 1;
nodes = (
"769 1721 LINE",
"878 1617 LINE",
"850 1557 OFFCURVE",
"773 1490 OFFCURVE",
"693 1440 CURVE SMOOTH",
"652 1415 OFFCURVE",
"617 1396 OFFCURVE",
"588 1385 CURVE",
"532 1427 LINE"
);
}
);
width = 931;
}
);
note = Sacute;
unicode = 015A;
},
{
glyphname = Scaron;
layers = (
{
layerId = "19CE7369-CF6C-4B47-B909-15D5A24EDA33";
name = "Regular Italic";
paths = (
{
closed = 1;
nodes = (
"186 298 LINE",
"207 132 LINE",
"254 101 OFFCURVE",
"333 81 OFFCURVE",
"402 81 CURVE SMOOTH",
"485 81 OFFCURVE",
"575 111 OFFCURVE",
"631 179 CURVE SMOOTH",
"659 213 OFFCURVE",
"673 255 OFFCURVE",
"673 306 CURVE SMOOTH",
"673 389 OFFCURVE",
"632 454 OFFCURVE",
"572 506 CURVE SMOOTH",
"542 531 OFFCURVE",
"505 558 OFFCURVE",
"460 586 CURVE SMOOTH",
"344 658 OFFCURVE",
"263 721 OFFCURVE",
"209 816 CURVE SMOOTH",
"182 863 OFFCURVE",
"168 917 OFFCURVE",
"168 976 CURVE SMOOTH",
"168 1112 OFFCURVE",
"249 1222 OFFCURVE",
"376 1282 CURVE SMOOTH",
"439 1311 OFFCURVE",
"508 1326 OFFCURVE",
"582 1326 CURVE SMOOTH",
"731 1326 OFFCURVE",
"836 1292 OFFCURVE",
"896 1253 CURVE",
"856 1027 LINE",
"762 1027 LINE",
"738 1182 LINE",
"702 1207 OFFCURVE",
"635 1226 OFFCURVE",
"568 1226 CURVE SMOOTH",
"495 1226 OFFCURVE",
"419 1198 OFFCURVE",
"375 1141 CURVE SMOOTH",
"352 1112 OFFCURVE",
"341 1077 OFFCURVE",
"341 1035 CURVE SMOOTH",
"341 906 OFFCURVE",
"422 821 OFFCURVE",
"563 733 CURVE SMOOTH",
"690 653 OFFCURVE",
"756 606 OFFCURVE",
"808 519 CURVE SMOOTH",
"834 476 OFFCURVE",
"847 425 OFFCURVE",
"847 367 CURVE SMOOTH",
"847 210 OFFCURVE",
"764 90 OFFCURVE",
"628 27 CURVE SMOOTH",
"559 -4 OFFCURVE",
"482 -20 OFFCURVE",
"397 -20 CURVE SMOOTH",
"297 -20 OFFCURVE",
"194 -3 OFFCURVE",
"122 22 CURVE SMOOTH",
"86 34 OFFCURVE",
"61 45 OFFCURVE",
"46 56 CURVE",
"83 298 LINE"
);
},
{
closed = 1;
nodes = (
"410 1721 LINE",
"614 1520 LINE",
"886 1721 LINE",
"941 1672 LINE",
"685 1396 LINE",
"535 1396 LINE",
"344 1671 LINE"
);
}
);
width = 931;
}
);
note = Scaron;
unicode = 0160;
},
{
glyphname = Scedilla;
layers = (
{
layerId = "19CE7369-CF6C-4B47-B909-15D5A24EDA33";
name = "Regular Italic";
paths = (
{
closed = 1;
nodes = (
"495 1226 OFFCURVE",
"419 1198 OFFCURVE",
"375 1141 CURVE SMOOTH",
"352 1112 OFFCURVE",
"341 1077 OFFCURVE",
"341 1035 CURVE SMOOTH",
"341 906 OFFCURVE",
"422 821 OFFCURVE",
"563 733 CURVE SMOOTH",
"690 653 OFFCURVE",
"757 605 OFFCURVE",
"809 518 CURVE SMOOTH",
"834 475 OFFCURVE",
"847 424 OFFCURVE",
"847 366 CURVE SMOOTH",
"847 221 OFFCURVE",
"776 106 OFFCURVE",
"656 41 CURVE SMOOTH",
"596 8 OFFCURVE",
"528 -11 OFFCURVE",
"451 -17 CURVE",
"456 -40 OFFCURVE",
"459 -68 OFFCURVE",
"459 -99 CURVE SMOOTH",
"459 -231 OFFCURVE",
"414 -322 OFFCURVE",
"341 -366 CURVE SMOOTH",
"304 -389 OFFCURVE",
"263 -400 OFFCURVE",
"216 -400 CURVE SMOOTH",
"169 -400 OFFCURVE",
"123 -389 OFFCURVE",
"103 -376 CURVE",
"117 -246 LINE",
"130 -253 OFFCURVE",
"167 -258 OFFCURVE",
"195 -258 CURVE SMOOTH",
"291 -258 OFFCURVE",
"352 -175 OFFCURVE",
"353 -44 CURVE SMOOTH",
"353 -33 OFFCURVE",
"353 -24 OFFCURVE",
"352 -19 CURVE",
"219 -12 OFFCURVE",
"87 25 OFFCURVE",
"46 56 CURVE",
"83 298 LINE",
"186 298 LINE",
"207 132 LINE",
"254 101 OFFCURVE",
"333 81 OFFCURVE",
"402 81 CURVE SMOOTH",
"485 81 OFFCURVE",
"575 111 OFFCURVE",
"631 179 CURVE SMOOTH",
"659 213 OFFCURVE",
"673 255 OFFCURVE",
"673 306 CURVE SMOOTH",
"673 389 OFFCURVE",
"632 454 OFFCURVE",
"572 506 CURVE SMOOTH",
"542 531 OFFCURVE",
"505 558 OFFCURVE",
"460 586 CURVE SMOOTH",
"344 658 OFFCURVE",
"263 721 OFFCURVE",
"209 816 CURVE SMOOTH",
"182 863 OFFCURVE",
"168 917 OFFCURVE",
"168 976 CURVE SMOOTH",
"168 1112 OFFCURVE",
"249 1222 OFFCURVE",
"376 1282 CURVE SMOOTH",
"439 1311 OFFCURVE",
"508 1326 OFFCURVE",
"582 1326 CURVE SMOOTH",
"731 1326 OFFCURVE",
"836 1292 OFFCURVE",
"896 1253 CURVE",
"856 1027 LINE",
"762 1027 LINE",
"738 1182 LINE",
"702 1207 OFFCURVE",
"635 1226 OFFCURVE",
"568 1226 CURVE SMOOTH"
);
}
);
width = 931;
}
);
note = Scedilla;
unicode = 015E;
},
{
glyphname = Scircumflex;
layers = (
{
layerId = "19CE7369-CF6C-4B47-B909-15D5A24EDA33";
name = "Regular Italic";
paths = (
{
closed = 1;
nodes = (
"186 298 LINE",
"207 132 LINE",
"254 101 OFFCURVE",
"333 81 OFFCURVE",
"402 81 CURVE SMOOTH",
"485 81 OFFCURVE",
"575 111 OFFCURVE",
"631 179 CURVE SMOOTH",
"659 213 OFFCURVE",
"673 255 OFFCURVE",
"673 306 CURVE SMOOTH",
"673 389 OFFCURVE",
"632 454 OFFCURVE",
"572 506 CURVE SMOOTH",
"542 531 OFFCURVE",
"505 558 OFFCURVE",
"460 586 CURVE SMOOTH",
"344 658 OFFCURVE",
"263 721 OFFCURVE",
"209 816 CURVE SMOOTH",
"182 863 OFFCURVE",
"168 917 OFFCURVE",
"168 976 CURVE SMOOTH",
"168 1112 OFFCURVE",
"249 1222 OFFCURVE",
"376 1282 CURVE SMOOTH",
"439 1311 OFFCURVE",
"508 1326 OFFCURVE",
"582 1326 CURVE SMOOTH",
"731 1326 OFFCURVE",
"836 1292 OFFCURVE",
"896 1253 CURVE",
"856 1027 LINE",
"762 1027 LINE",
"738 1182 LINE",
"702 1207 OFFCURVE",
"635 1226 OFFCURVE",
"568 1226 CURVE SMOOTH",
"495 1226 OFFCURVE",
"419 1198 OFFCURVE",
"375 1141 CURVE SMOOTH",
"352 1112 OFFCURVE",
"341 1077 OFFCURVE",
"341 1035 CURVE SMOOTH",
"341 906 OFFCURVE",
"422 821 OFFCURVE",
"563 733 CURVE SMOOTH",
"690 653 OFFCURVE",
"756 606 OFFCURVE",
"808 519 CURVE SMOOTH",
"834 476 OFFCURVE",
"847 425 OFFCURVE",
"847 367 CURVE SMOOTH",
"847 210 OFFCURVE",
"764 90 OFFCURVE",
"628 27 CURVE SMOOTH",
"559 -4 OFFCURVE",
"482 -20 OFFCURVE",
"397 -20 CURVE SMOOTH",
"297 -20 OFFCURVE",
"194 -3 OFFCURVE",
"122 22 CURVE SMOOTH",
"86 34 OFFCURVE",
"61 45 OFFCURVE",
"46 56 CURVE",
"83 298 LINE"
);
},
{
closed = 1;
nodes = (
"582 1721 LINE",
"734 1721 LINE",
"917 1447 LINE",
"855 1396 LINE",
"650 1591 LINE",
"371 1397 LINE",
"317 1447 LINE"
);
}
);
width = 931;
}
);
note = Scircumflex;
unicode = 015C;
},
{
glyphname = Scommaaccent;
layers = (
{
layerId = "19CE7369-CF6C-4B47-B909-15D5A24EDA33";
name = "Regular Italic";
paths = (
{
closed = 1;
nodes = (
"304 -424 LINE",
"344 -392 OFFCURVE",
"369 -342 OFFCURVE",
"369 -287 CURVE SMOOTH",
"369 -246 OFFCURVE",
"340 -193 OFFCURVE",
"307 -186 CURVE",
"308 -130 LINE",
"420 -43 LINE",
"487 -58 OFFCURVE",
"527 -136 OFFCURVE",
"527 -224 CURVE SMOOTH",
"527 -311 OFFCURVE",
"488 -390 OFFCURVE",
"440 -437 CURVE SMOOTH",
"415 -461 OFFCURVE",
"392 -476 OFFCURVE",
"371 -482 CURVE",
"304 -446 LINE"
);
},
{
closed = 1;
nodes = (
"186 298 LINE",
"207 132 LINE",
"254 101 OFFCURVE",
"333 81 OFFCURVE",
"402 81 CURVE SMOOTH",
"485 81 OFFCURVE",
"575 111 OFFCURVE",
"631 179 CURVE SMOOTH",
"659 213 OFFCURVE",
"673 255 OFFCURVE",
"673 306 CURVE SMOOTH",
"673 389 OFFCURVE",
"632 454 OFFCURVE",
"572 506 CURVE SMOOTH",
"542 531 OFFCURVE",
"505 558 OFFCURVE",
"460 586 CURVE SMOOTH",
"344 658 OFFCURVE",
"263 721 OFFCURVE",
"209 816 CURVE SMOOTH",
"182 863 OFFCURVE",
"168 917 OFFCURVE",
"168 976 CURVE SMOOTH",
"168 1112 OFFCURVE",
"249 1222 OFFCURVE",
"376 1282 CURVE SMOOTH",
"439 1311 OFFCURVE",
"508 1326 OFFCURVE",
"582 1326 CURVE SMOOTH",
"731 1326 OFFCURVE",
"836 1292 OFFCURVE",
"896 1253 CURVE",
"856 1027 LINE",
"762 1027 LINE",
"738 1182 LINE",
"702 1207 OFFCURVE",
"635 1226 OFFCURVE",
"568 1226 CURVE SMOOTH",
"495 1226 OFFCURVE",
"419 1198 OFFCURVE",
"375 1141 CURVE SMOOTH",
"352 1112 OFFCURVE",
"341 1077 OFFCURVE",
"341 1035 CURVE SMOOTH",
"341 906 OFFCURVE",
"422 821 OFFCURVE",
"563 733 CURVE SMOOTH",
"690 653 OFFCURVE",
"756 606 OFFCURVE",
"808 519 CURVE SMOOTH",
"834 476 OFFCURVE",
"847 425 OFFCURVE",
"847 367 CURVE SMOOTH",
"847 210 OFFCURVE",
"764 90 OFFCURVE",
"628 27 CURVE SMOOTH",
"559 -4 OFFCURVE",
"482 -20 OFFCURVE",
"397 -20 CURVE SMOOTH",
"297 -20 OFFCURVE",
"194 -3 OFFCURVE",
"122 22 CURVE SMOOTH",
"86 34 OFFCURVE",
"61 45 OFFCURVE",
"46 56 CURVE",
"83 298 LINE"
);
}
);
width = 931;
}
);
note = Scommaaccent;
unicode = 0218;
},
{
glyphname = uni1E9E;
layers = (
{
layerId = "19CE7369-CF6C-4B47-B909-15D5A24EDA33";
name = "Regular Italic";
paths = (
{
closed = 1;
nodes = (
"1118 1216 LINE",
"1033 1279 OFFCURVE",
"943 1317 OFFCURVE",
"770 1317 CURVE SMOOTH",
"575 1317 OFFCURVE",
"414 1217 OFFCURVE",
"318 1055 CURVE SMOOTH",
"269 974 OFFCURVE",
"239 884 OFFCURVE",
"227 785 CURVE SMOOTH",
"145 96 LINE",
"38 73 LINE",
"30 -13 LINE",
"300 -13 LINE",
"400 820 LINE SMOOTH",
"420 992 OFFCURVE",
"483 1112 OFFCURVE",
"575 1173 CURVE SMOOTH",
"620 1204 OFFCURVE",
"672 1219 OFFCURVE",
"731 1219 CURVE SMOOTH",
"824 1219 OFFCURVE",
"887 1190 OFFCURVE",
"919 1159 CURVE SMOOTH",
"934 1144 OFFCURVE",
"944 1130 OFFCURVE",
"948 1119 CURVE",
"690 740 LINE",
"686 715 LINE",
"781 671 OFFCURVE",
"892 605 OFFCURVE",
"972 506 CURVE SMOOTH",
"1012 457 OFFCURVE",
"1032 404 OFFCURVE",
"1032 347 CURVE SMOOTH",
"1032 256 OFFCURVE",
"998 169 OFFCURVE",
"927 118 CURVE SMOOTH",
"891 92 OFFCURVE",
"847 79 OFFCURVE",
"796 79 CURVE SMOOTH",
"725 79 OFFCURVE",
"656 104 OFFCURVE",
"636 145 CURVE",
"617 335 LINE",
"510 335 LINE",
"471 52 LINE",
"480 51 OFFCURVE",
"491 48 OFFCURVE",
"504 43 CURVE SMOOTH",
"517 38 OFFCURVE",
"525 35 OFFCURVE",
"528 34 CURVE",
"612 1 OFFCURVE",
"674 -19 OFFCURVE",
"775 -19 CURVE SMOOTH",
"932 -19 OFFCURVE",
"1066 58 OFFCURVE",
"1140 185 CURVE SMOOTH",
"1177 248 OFFCURVE",
"1195 319 OFFCURVE",
"1195 396 CURVE SMOOTH",
"1195 527 OFFCURVE",
"1123 624 OFFCURVE",
"1039 687 CURVE SMOOTH",
"996 718 OFFCURVE",
"942 753 OFFCURVE",
"877 790 CURVE SMOOTH",
"851 805 LINE",
"1112 1165 LINE"
);
}
);
width = 1258;
}
);
note = uni1E9E;
unicode = 1E9E;
},
{
glyphname = uni018F;
layers = (
{
layerId = "19CE7369-CF6C-4B47-B909-15D5A24EDA33";
name = "Regular Italic";
paths = (
{
closed = 1;
nodes = (
"1059 489 OFFCURVE",
"936 227 OFFCURVE",
"743 86 CURVE SMOOTH",
"646 15 OFFCURVE",
"541 -20 OFFCURVE",
"428 -20 CURVE SMOOTH",
"275 -20 OFFCURVE",
"163 50 OFFCURVE",
"106 179 CURVE SMOOTH",
"77 243 OFFCURVE",
"63 321 OFFCURVE",
"63 412 CURVE SMOOTH",
"63 508 OFFCURVE",
"78 609 OFFCURVE",
"97 661 CURVE",
"884 661 LINE",
"887 704 OFFCURVE",
"888 746 OFFCURVE",
"888 785 CURVE SMOOTH",
"888 976 OFFCURVE",
"829 1111 OFFCURVE",
"737 1177 CURVE SMOOTH",
"691 1210 OFFCURVE",
"641 1226 OFFCURVE",
"586 1226 CURVE SMOOTH",
"454 1226 OFFCURVE",
"362 1187 OFFCURVE",
"307 1131 CURVE",
"253 1004 LINE",
"158 1004 LINE",
"199 1255 LINE",
"226 1256 OFFCURVE",
"254 1262 OFFCURVE",
"283 1270 CURVE",
"297 1273 OFFCURVE",
"307 1276 OFFCURVE",
"313 1277 CURVE",
"420 1306 OFFCURVE",
"502 1323 OFFCURVE",
"635 1323 CURVE SMOOTH",
"811 1323 OFFCURVE",
"941 1232 OFFCURVE",
"1009 1074 CURVE SMOOTH",
"1042 995 OFFCURVE",
"1059 902 OFFCURVE",
"1059 796 CURVE SMOOTH"
);
},
{
closed = 1;
nodes = (
"255 567 LINE",
"239 494 OFFCURVE",
"231 432 OFFCURVE",
"231 383 CURVE SMOOTH",
"231 283 OFFCURVE",
"270 184 OFFCURVE",
"347 124 CURVE SMOOTH",
"385 94 OFFCURVE",
"431 79 OFFCURVE",
"484 79 CURVE SMOOTH",
"611 79 OFFCURVE",
"719 151 OFFCURVE",
"795 297 CURVE SMOOTH",
"832 370 OFFCURVE",
"859 460 OFFCURVE",
"874 567 CURVE"
);
}
);
width = 1118;
}
);
note = uni018F;
unicode = 018F;
},
{
glyphname = T;
layers = (
{
layerId = "19CE7369-CF6C-4B47-B909-15D5A24EDA33";
name = "Regular Italic";
paths = (
{
closed = 1;
nodes = (
"384 101 LINE",
"525 1216 LINE",
"254 1199 LINE",
"171 906 LINE",
"71 904 LINE",
"138 1309 LINE",
"1125 1309 LINE",
"1067 904 LINE",
"972 904 LINE",
"978 1198 LINE",
"702 1216 LINE",
"559 101 LINE",
"774 81 LINE",
"768 0 LINE",
"166 0 LINE",
"174 81 LINE"
);
}
);
width = 1061;
}
);
note = T;
unicode = 0054;
},
{
glyphname = Tbar;
layers = (
{
layerId = "19CE7369-CF6C-4B47-B909-15D5A24EDA33";
name = "Regular Italic";
paths = (
{
closed = 1;
nodes = (
"464 732 LINE",
"525 1216 LINE",
"254 1199 LINE",
"171 906 LINE",
"71 904 LINE",
"138 1309 LINE",
"1125 1309 LINE",
"1067 904 LINE",
"972 904 LINE",
"978 1198 LINE",
"702 1216 LINE",
"640 732 LINE",
"894 732 LINE",
"881 619 LINE",
"625 619 LINE",
"559 101 LINE",
"774 81 LINE",
"768 0 LINE",
"166 0 LINE",
"174 81 LINE",
"384 101 LINE",
"449 619 LINE",
"243 619 LINE",
"256 732 LINE"
);
}
);
width = 1061;
}
);
note = Tbar;
unicode = 0166;
},
{
glyphname = Tcaron;
layers = (
{
layerId = "19CE7369-CF6C-4B47-B909-15D5A24EDA33";
name = "Regular Italic";
paths = (
{
closed = 1;
nodes = (
"455 1721 LINE",
"659 1520 LINE",
"931 1721 LINE",
"986 1672 LINE",
"730 1396 LINE",
"580 1396 LINE",
"389 1671 LINE"
);
},
{
closed = 1;
nodes = (
"384 101 LINE",
"525 1216 LINE",
"254 1199 LINE",
"171 906 LINE",
"71 904 LINE",
"138 1309 LINE",
"1125 1309 LINE",
"1067 904 LINE",
"972 904 LINE",
"978 1198 LINE",
"702 1216 LINE",
"559 101 LINE",
"774 81 LINE",
"768 0 LINE",
"166 0 LINE",
"174 81 LINE"
);
}
);
width = 1061;
}
);
note = Tcaron;
unicode = 0164;
},
{
glyphname = U;
layers = (
{
layerId = "19CE7369-CF6C-4B47-B909-15D5A24EDA33";
name = "Regular Italic";
paths = (
{
closed = 1;
nodes = (
"224 1202 LINE",
"109 1223 LINE",
"120 1309 LINE",
"542 1309 LINE",
"532 1223 LINE",
"401 1201 LINE",
"311 525 LINE SMOOTH",
"305 465 OFFCURVE",
"302 415 OFFCURVE",
"302 374 CURVE SMOOTH",
"302 182 OFFCURVE",
"388 78 OFFCURVE",
"544 78 CURVE SMOOTH",
"737 78 OFFCURVE",
"853 235 OFFCURVE",
"888 538 CURVE SMOOTH",
"976 1201 LINE",
"861 1222 LINE",
"870 1309 LINE",
"1244 1309 LINE",
"1233 1222 LINE",
"1127 1202 LINE",
"1037 539 LINE SMOOTH",
"1002 272 OFFCURVE",
"916 113 OFFCURVE",
"774 39 CURVE SMOOTH",
"703 2 OFFCURVE",
"617 -17 OFFCURVE",
"517 -17 CURVE SMOOTH",
"352 -17 OFFCURVE",
"233 48 OFFCURVE",
"173 163 CURVE SMOOTH",
"112 278 OFFCURVE",
"123 419 OFFCURVE",
"132 510 CURVE SMOOTH"
);
}
);
width = 1188;
}
);
note = U;
unicode = 0055;
},
{
glyphname = Uacute;
layers = (
{
layerId = "19CE7369-CF6C-4B47-B909-15D5A24EDA33";
name = "Regular Italic";
paths = (
{
closed = 1;
nodes = (
"868 1721 LINE",
"977 1617 LINE",
"949 1557 OFFCURVE",
"872 1490 OFFCURVE",
"792 1440 CURVE SMOOTH",
"751 1415 OFFCURVE",
"716 1396 OFFCURVE",
"687 1385 CURVE",
"631 1427 LINE"
);
},
{
closed = 1;
nodes = (
"224 1202 LINE",
"109 1223 LINE",
"120 1309 LINE",
"542 1309 LINE",
"532 1223 LINE",
"401 1201 LINE",
"311 525 LINE SMOOTH",
"305 465 OFFCURVE",
"302 415 OFFCURVE",
"302 374 CURVE SMOOTH",
"302 182 OFFCURVE",
"388 78 OFFCURVE",
"544 78 CURVE SMOOTH",
"737 78 OFFCURVE",
"853 235 OFFCURVE",
"888 538 CURVE SMOOTH",
"976 1201 LINE",
"861 1222 LINE",
"870 1309 LINE",
"1244 1309 LINE",
"1233 1222 LINE",
"1127 1202 LINE",
"1037 539 LINE SMOOTH",
"1002 272 OFFCURVE",
"916 113 OFFCURVE",
"774 39 CURVE SMOOTH",
"703 2 OFFCURVE",
"617 -17 OFFCURVE",
"517 -17 CURVE SMOOTH",
"352 -17 OFFCURVE",
"233 48 OFFCURVE",
"173 163 CURVE SMOOTH",
"112 278 OFFCURVE",
"123 419 OFFCURVE",
"132 510 CURVE SMOOTH"
);
}
);
width = 1188;
}
);
note = Uacute;
unicode = 00DA;
},
{
glyphname = Ubreve;
layers = (
{
layerId = "19CE7369-CF6C-4B47-B909-15D5A24EDA33";
name = "Regular Italic";
paths = (
{
closed = 1;
nodes = (
"462 1678 OFFCURVE",
"463 1691 OFFCURVE",
"465 1703 CURVE",
"560 1703 LINE",
"565 1646 OFFCURVE",
"575 1598 OFFCURVE",
"620 1559 CURVE SMOOTH",
"642 1539 OFFCURVE",
"674 1529 OFFCURVE",
"717 1529 CURVE SMOOTH",
"811 1529 OFFCURVE",
"874 1587 OFFCURVE",
"906 1703 CURVE",
"996 1703 LINE",
"996 1607 OFFCURVE",
"939 1505 OFFCURVE",
"851 1445 CURVE SMOOTH",
"807 1415 OFFCURVE",
"761 1400 OFFCURVE",
"712 1400 CURVE SMOOTH",
"599 1400 OFFCURVE",
"523 1455 OFFCURVE",
"488 1535 CURVE SMOOTH",
"471 1574 OFFCURVE",
"462 1617 OFFCURVE",
"462 1663 CURVE SMOOTH"
);
},
{
closed = 1;
nodes = (
"224 1202 LINE",
"109 1223 LINE",
"120 1309 LINE",
"542 1309 LINE",
"532 1223 LINE",
"401 1201 LINE",
"311 525 LINE SMOOTH",
"305 465 OFFCURVE",
"302 415 OFFCURVE",
"302 374 CURVE SMOOTH",
"302 182 OFFCURVE",
"388 78 OFFCURVE",
"544 78 CURVE SMOOTH",
"737 78 OFFCURVE",
"853 235 OFFCURVE",
"888 538 CURVE SMOOTH",
"976 1201 LINE",
"861 1222 LINE",
"870 1309 LINE",
"1244 1309 LINE",
"1233 1222 LINE",
"1127 1202 LINE",
"1037 539 LINE SMOOTH",
"1002 272 OFFCURVE",
"916 113 OFFCURVE",
"774 39 CURVE SMOOTH",
"703 2 OFFCURVE",
"617 -17 OFFCURVE",
"517 -17 CURVE SMOOTH",
"352 -17 OFFCURVE",
"233 48 OFFCURVE",
"173 163 CURVE SMOOTH",
"112 278 OFFCURVE",
"123 419 OFFCURVE",
"132 510 CURVE SMOOTH"
);
}
);
width = 1188;
}
);
note = Ubreve;
unicode = 016C;
},
{
glyphname = Ucircumflex;
layers = (
{
layerId = "19CE7369-CF6C-4B47-B909-15D5A24EDA33";
name = "Regular Italic";
paths = (
{
closed = 1;
nodes = (
"224 1202 LINE",
"109 1223 LINE",
"120 1309 LINE",
"542 1309 LINE",
"532 1223 LINE",
"401 1201 LINE",
"311 525 LINE SMOOTH",
"305 465 OFFCURVE",
"302 415 OFFCURVE",
"302 374 CURVE SMOOTH",
"302 182 OFFCURVE",
"388 78 OFFCURVE",
"544 78 CURVE SMOOTH",
"737 78 OFFCURVE",
"853 235 OFFCURVE",
"888 538 CURVE SMOOTH",
"976 1201 LINE",
"861 1222 LINE",
"870 1309 LINE",
"1244 1309 LINE",
"1233 1222 LINE",
"1127 1202 LINE",
"1037 539 LINE SMOOTH",
"1002 272 OFFCURVE",
"916 113 OFFCURVE",
"774 39 CURVE SMOOTH",
"703 2 OFFCURVE",
"617 -17 OFFCURVE",
"517 -17 CURVE SMOOTH",
"352 -17 OFFCURVE",
"233 48 OFFCURVE",
"173 163 CURVE SMOOTH",
"112 278 OFFCURVE",
"123 419 OFFCURVE",
"132 510 CURVE SMOOTH"
);
},
{
closed = 1;
nodes = (
"681 1721 LINE",
"833 1721 LINE",
"1016 1447 LINE",
"954 1396 LINE",
"749 1591 LINE",
"470 1397 LINE",
"416 1447 LINE"
);
}
);
width = 1188;
}
);
note = Ucircumflex;
unicode = 00DB;
},
{
glyphname = Udieresis;
layers = (
{
layerId = "19CE7369-CF6C-4B47-B909-15D5A24EDA33";
name = "Regular Italic";
paths = (
{
closed = 1;
nodes = (
"438 1627 OFFCURVE",
"466 1669 OFFCURVE",
"504 1693 CURVE SMOOTH",
"523 1705 OFFCURVE",
"542 1711 OFFCURVE",
"562 1711 CURVE SMOOTH",
"625 1711 OFFCURVE",
"668 1669 OFFCURVE",
"668 1614 CURVE SMOOTH",
"668 1569 OFFCURVE",
"641 1526 OFFCURVE",
"601 1502 CURVE SMOOTH",
"580 1489 OFFCURVE",
"559 1483 OFFCURVE",
"536 1483 CURVE SMOOTH",
"483 1483 OFFCURVE",
"438 1529 OFFCURVE",
"438 1582 CURVE SMOOTH"
);
},
{
closed = 1;
nodes = (
"798 1628 OFFCURVE",
"827 1670 OFFCURVE",
"866 1694 CURVE SMOOTH",
"885 1705 OFFCURVE",
"905 1711 OFFCURVE",
"924 1711 CURVE SMOOTH",
"987 1711 OFFCURVE",
"1029 1670 OFFCURVE",
"1029 1615 CURVE SMOOTH",
"1029 1570 OFFCURVE",
"1003 1526 OFFCURVE",
"963 1502 CURVE SMOOTH",
"942 1489 OFFCURVE",
"920 1483 OFFCURVE",
"897 1483 CURVE SMOOTH",
"844 1483 OFFCURVE",
"798 1528 OFFCURVE",
"798 1584 CURVE SMOOTH"
);
},
{
closed = 1;
nodes = (
"224 1202 LINE",
"109 1223 LINE",
"120 1309 LINE",
"542 1309 LINE",
"532 1223 LINE",
"401 1201 LINE",
"311 525 LINE SMOOTH",
"305 465 OFFCURVE",
"302 415 OFFCURVE",
"302 374 CURVE SMOOTH",
"302 182 OFFCURVE",
"388 78 OFFCURVE",
"544 78 CURVE SMOOTH",
"737 78 OFFCURVE",
"853 235 OFFCURVE",
"888 538 CURVE SMOOTH",
"976 1201 LINE",
"861 1222 LINE",
"870 1309 LINE",
"1244 1309 LINE",
"1233 1222 LINE",
"1127 1202 LINE",
"1037 539 LINE SMOOTH",
"1002 272 OFFCURVE",
"916 113 OFFCURVE",
"774 39 CURVE SMOOTH",
"703 2 OFFCURVE",
"617 -17 OFFCURVE",
"517 -17 CURVE SMOOTH",
"352 -17 OFFCURVE",
"233 48 OFFCURVE",
"173 163 CURVE SMOOTH",
"112 278 OFFCURVE",
"123 419 OFFCURVE",
"132 510 CURVE SMOOTH"
);
}
);
width = 1188;
}
);
note = Udieresis;
unicode = 00DC;
},
{
glyphname = Ugrave;
layers = (
{
layerId = "19CE7369-CF6C-4B47-B909-15D5A24EDA33";
name = "Regular Italic";
paths = (
{
closed = 1;
nodes = (
"526 1721 LINE",
"752 1427 LINE",
"694 1385 LINE",
"635 1408 OFFCURVE",
"547 1462 OFFCURVE",
"479 1526 CURVE SMOOTH",
"445 1558 OFFCURVE",
"422 1588 OFFCURVE",
"410 1617 CURVE"
);
},
{
closed = 1;
nodes = (
"224 1202 LINE",
"109 1223 LINE",
"120 1309 LINE",
"542 1309 LINE",
"532 1223 LINE",
"401 1201 LINE",
"311 525 LINE SMOOTH",
"305 465 OFFCURVE",
"302 415 OFFCURVE",
"302 374 CURVE SMOOTH",
"302 182 OFFCURVE",
"388 78 OFFCURVE",
"544 78 CURVE SMOOTH",
"737 78 OFFCURVE",
"853 235 OFFCURVE",
"888 538 CURVE SMOOTH",
"976 1201 LINE",
"861 1222 LINE",
"870 1309 LINE",
"1244 1309 LINE",
"1233 1222 LINE",
"1127 1202 LINE",
"1037 539 LINE SMOOTH",
"1002 272 OFFCURVE",
"916 113 OFFCURVE",
"774 39 CURVE SMOOTH",
"703 2 OFFCURVE",
"617 -17 OFFCURVE",
"517 -17 CURVE SMOOTH",
"352 -17 OFFCURVE",
"233 48 OFFCURVE",
"173 163 CURVE SMOOTH",
"112 278 OFFCURVE",
"123 419 OFFCURVE",
"132 510 CURVE SMOOTH"
);
}
);
width = 1188;
}
);
note = Ugrave;
unicode = 00D9;
},
{
glyphname = Uhungarumlaut;
layers = (
{
layerId = "19CE7369-CF6C-4B47-B909-15D5A24EDA33";
name = "Regular Italic";
paths = (
{
closed = 1;
nodes = (
"224 1202 LINE",
"109 1223 LINE",
"120 1309 LINE",
"542 1309 LINE",
"532 1223 LINE",
"401 1201 LINE",
"311 525 LINE SMOOTH",
"305 465 OFFCURVE",
"302 415 OFFCURVE",
"302 374 CURVE SMOOTH",
"302 182 OFFCURVE",
"388 78 OFFCURVE",
"544 78 CURVE SMOOTH",
"737 78 OFFCURVE",
"853 235 OFFCURVE",
"888 538 CURVE SMOOTH",
"976 1201 LINE",
"861 1222 LINE",
"870 1309 LINE",
"1244 1309 LINE",
"1233 1222 LINE",
"1127 1202 LINE",
"1037 539 LINE SMOOTH",
"1002 272 OFFCURVE",
"916 113 OFFCURVE",
"774 39 CURVE SMOOTH",
"703 2 OFFCURVE",
"617 -17 OFFCURVE",
"517 -17 CURVE SMOOTH",
"352 -17 OFFCURVE",
"233 48 OFFCURVE",
"173 163 CURVE SMOOTH",
"112 278 OFFCURVE",
"123 419 OFFCURVE",
"132 510 CURVE SMOOTH"
);
},
{
closed = 1;
nodes = (
"712 1721 LINE",
"828 1619 LINE",
"800 1556 OFFCURVE",
"725 1490 OFFCURVE",
"648 1441 CURVE SMOOTH",
"609 1416 OFFCURVE",
"576 1398 OFFCURVE",
"548 1385 CURVE",
"475 1442 LINE"
);
},
{
closed = 1;
nodes = (
"1088 1721 LINE",
"1205 1618 LINE",
"1169 1554 OFFCURVE",
"1098 1488 OFFCURVE",
"1027 1440 CURVE SMOOTH",
"992 1415 OFFCURVE",
"960 1397 OFFCURVE",
"932 1385 CURVE",
"851 1442 LINE"
);
}
);
width = 1188;
}
);
note = Uhungarumlaut;
unicode = 0170;
},
{
glyphname = Umacron;
layers = (
{
layerId = "19CE7369-CF6C-4B47-B909-15D5A24EDA33";
name = "Regular Italic";
paths = (
{
closed = 1;
nodes = (
"938 1617 LINE",
"920 1486 LINE",
"481 1486 LINE",
"497 1617 LINE"
);
},
{
closed = 1;
nodes = (
"224 1202 LINE",
"109 1223 LINE",
"120 1309 LINE",
"542 1309 LINE",
"532 1223 LINE",
"401 1201 LINE",
"311 525 LINE SMOOTH",
"305 465 OFFCURVE",
"302 415 OFFCURVE",
"302 374 CURVE SMOOTH",
"302 182 OFFCURVE",
"388 78 OFFCURVE",
"544 78 CURVE SMOOTH",
"737 78 OFFCURVE",
"853 235 OFFCURVE",
"888 538 CURVE SMOOTH",
"976 1201 LINE",
"861 1222 LINE",
"870 1309 LINE",
"1244 1309 LINE",
"1233 1222 LINE",
"1127 1202 LINE",
"1037 539 LINE SMOOTH",
"1002 272 OFFCURVE",
"916 113 OFFCURVE",
"774 39 CURVE SMOOTH",
"703 2 OFFCURVE",
"617 -17 OFFCURVE",
"517 -17 CURVE SMOOTH",
"352 -17 OFFCURVE",
"233 48 OFFCURVE",
"173 163 CURVE SMOOTH",
"112 278 OFFCURVE",
"123 419 OFFCURVE",
"132 510 CURVE SMOOTH"
);
}
);
width = 1188;
}
);
note = Umacron;
unicode = 016A;
},
{
glyphname = Uogonek;
layers = (
{
layerId = "19CE7369-CF6C-4B47-B909-15D5A24EDA33";
name = "Regular Italic";
paths = (
{
closed = 1;
nodes = (
"224 1202 LINE",
"109 1223 LINE",
"120 1309 LINE",
"542 1309 LINE",
"532 1223 LINE",
"401 1201 LINE",
"311 525 LINE SMOOTH",
"305 465 OFFCURVE",
"302 415 OFFCURVE",
"302 374 CURVE SMOOTH",
"302 182 OFFCURVE",
"388 78 OFFCURVE",
"544 78 CURVE SMOOTH",
"737 78 OFFCURVE",
"853 235 OFFCURVE",
"888 538 CURVE SMOOTH",
"976 1201 LINE",
"861 1222 LINE",
"870 1309 LINE",
"1244 1309 LINE",
"1233 1222 LINE",
"1127 1202 LINE",
"1037 539 LINE SMOOTH",
"994 202 OFFCURVE",
"866 35 OFFCURVE",
"643 -6 CURVE",
"579 -74 OFFCURVE",
"535 -136 OFFCURVE",
"534 -173 CURVE SMOOTH",
"531 -224 OFFCURVE",
"556 -247 OFFCURVE",
"580 -247 CURVE SMOOTH",
"612 -247 OFFCURVE",
"645 -232 OFFCURVE",
"692 -195 CURVE",
"716 -277 LINE",
"663 -325 OFFCURVE",
"589 -360 OFFCURVE",
"497 -360 CURVE SMOOTH",
"440 -360 OFFCURVE",
"399 -337 OFFCURVE",
"379 -301 CURVE SMOOTH",
"369 -284 OFFCURVE",
"364 -266 OFFCURVE",
"364 -247 CURVE SMOOTH",
"364 -210 OFFCURVE",
"378 -164 OFFCURVE",
"399 -135 CURVE SMOOTH",
"439 -82 OFFCURVE",
"481 -49 OFFCURVE",
"538 -16 CURVE",
"517 -17 LINE",
"352 -17 OFFCURVE",
"233 48 OFFCURVE",
"173 163 CURVE SMOOTH",
"112 278 OFFCURVE",
"123 419 OFFCURVE",
"132 510 CURVE SMOOTH"
);
}
);
width = 1188;
}
);
note = Uogonek;
unicode = 0172;
},
{
glyphname = Uring;
layers = (
{
layerId = "19CE7369-CF6C-4B47-B909-15D5A24EDA33";
name = "Regular Italic";
paths = (
{
closed = 1;
nodes = (
"224 1202 LINE",
"109 1223 LINE",
"120 1309 LINE",
"542 1309 LINE",
"532 1223 LINE",
"401 1201 LINE",
"311 525 LINE SMOOTH",
"305 465 OFFCURVE",
"302 415 OFFCURVE",
"302 374 CURVE SMOOTH",
"302 182 OFFCURVE",
"388 78 OFFCURVE",
"544 78 CURVE SMOOTH",
"737 78 OFFCURVE",
"853 235 OFFCURVE",
"888 538 CURVE SMOOTH",
"976 1201 LINE",
"861 1222 LINE",
"870 1309 LINE",
"1244 1309 LINE",
"1233 1222 LINE",
"1127 1202 LINE",
"1037 539 LINE SMOOTH",
"1002 272 OFFCURVE",
"916 113 OFFCURVE",
"774 39 CURVE SMOOTH",
"703 2 OFFCURVE",
"617 -17 OFFCURVE",
"517 -17 CURVE SMOOTH",
"352 -17 OFFCURVE",
"233 48 OFFCURVE",
"173 163 CURVE SMOOTH",
"112 278 OFFCURVE",
"123 419 OFFCURVE",
"132 510 CURVE SMOOTH"
);
},
{
closed = 1;
nodes = (
"453 1683 OFFCURVE",
"520 1750 OFFCURVE",
"613 1783 CURVE SMOOTH",
"659 1799 OFFCURVE",
"706 1807 OFFCURVE",
"755 1807 CURVE SMOOTH",
"906 1807 OFFCURVE",
"994 1743 OFFCURVE",
"994 1635 CURVE SMOOTH",
"994 1531 OFFCURVE",
"931 1461 OFFCURVE",
"840 1426 CURVE SMOOTH",
"795 1408 OFFCURVE",
"747 1399 OFFCURVE",
"696 1399 CURVE SMOOTH",
"539 1399 OFFCURVE",
"453 1471 OFFCURVE",
"453 1590 CURVE SMOOTH"
);
},
{
closed = 1;
nodes = (
"871 1690 OFFCURVE",
"819 1729 OFFCURVE",
"742 1729 CURVE SMOOTH",
"650 1729 OFFCURVE",
"577 1685 OFFCURVE",
"577 1600 CURVE SMOOTH",
"577 1524 OFFCURVE",
"626 1475 OFFCURVE",
"709 1475 CURVE SMOOTH",
"804 1475 OFFCURVE",
"871 1522 OFFCURVE",
"871 1627 CURVE SMOOTH"
);
}
);
width = 1188;
}
);
note = Uring;
unicode = 016E;
},
{
glyphname = Utilde;
layers = (
{
layerId = "19CE7369-CF6C-4B47-B909-15D5A24EDA33";
name = "Regular Italic";
paths = (
{
closed = 1;
nodes = (
"408 1549 LINE",
"439 1630 OFFCURVE",
"509 1695 OFFCURVE",
"601 1695 CURVE SMOOTH",
"657 1695 OFFCURVE",
"693 1672 OFFCURVE",
"746 1628 CURVE",
"794 1591 OFFCURVE",
"818 1574 OFFCURVE",
"855 1574 CURVE SMOOTH",
"898 1574 OFFCURVE",
"929 1592 OFFCURVE",
"947 1610 CURVE SMOOTH",
"956 1619 OFFCURVE",
"967 1632 OFFCURVE",
"981 1649 CURVE",
"1031 1578 LINE",
"1003 1501 OFFCURVE",
"936 1432 OFFCURVE",
"839 1432 CURVE SMOOTH",
"780 1432 OFFCURVE",
"745 1454 OFFCURVE",
"693 1498 CURVE SMOOTH",
"648 1535 OFFCURVE",
"622 1553 OFFCURVE",
"582 1553 CURVE SMOOTH",
"531 1553 OFFCURVE",
"494 1526 OFFCURVE",
"458 1478 CURVE"
);
},
{
closed = 1;
nodes = (
"224 1202 LINE",
"109 1223 LINE",
"120 1309 LINE",
"542 1309 LINE",
"532 1223 LINE",
"401 1201 LINE",
"311 525 LINE SMOOTH",
"305 465 OFFCURVE",
"302 415 OFFCURVE",
"302 374 CURVE SMOOTH",
"302 182 OFFCURVE",
"388 78 OFFCURVE",
"544 78 CURVE SMOOTH",
"737 78 OFFCURVE",
"853 235 OFFCURVE",
"888 538 CURVE SMOOTH",
"976 1201 LINE",
"861 1222 LINE",
"870 1309 LINE",
"1244 1309 LINE",
"1233 1222 LINE",
"1127 1202 LINE",
"1037 539 LINE SMOOTH",
"1002 272 OFFCURVE",
"916 113 OFFCURVE",
"774 39 CURVE SMOOTH",
"703 2 OFFCURVE",
"617 -17 OFFCURVE",
"517 -17 CURVE SMOOTH",
"352 -17 OFFCURVE",
"233 48 OFFCURVE",
"173 163 CURVE SMOOTH",
"112 278 OFFCURVE",
"123 419 OFFCURVE",
"132 510 CURVE SMOOTH"
);
}
);
width = 1188;
}
);
note = Utilde;
unicode = 0168;
},
{
glyphname = V;
layers = (
{
layerId = "19CE7369-CF6C-4B47-B909-15D5A24EDA33";
name = "Regular Italic";
paths = (
{
closed = 1;
nodes = (
"61 1222 LINE",
"70 1309 LINE",
"489 1309 LINE",
"481 1222 LINE",
"350 1202 LINE",
"466 388 LINE",
"489 150 LINE",
"570 388 LINE",
"925 1202 LINE",
"808 1223 LINE",
"817 1309 LINE",
"1174 1309 LINE",
"1165 1223 LINE",
"1074 1203 LINE",
"523 -8 LINE",
"370 -18 LINE",
"167 1202 LINE"
);
}
);
width = 1054;
}
);
note = V;
unicode = 0056;
},
{
glyphname = W;
layers = (
{
layerId = "19CE7369-CF6C-4B47-B909-15D5A24EDA33";
name = "Regular Italic";
paths = (
{
closed = 1;
nodes = (
"24 1222 LINE",
"34 1309 LINE",
"441 1309 LINE",
"432 1222 LINE",
"298 1206 LINE",
"398 378 LINE",
"429 150 LINE",
"478 322 LINE",
"773 1101 LINE",
"761 1205 LINE",
"659 1222 LINE",
"668 1309 LINE",
"1084 1309 LINE",
"1066 1222 LINE",
"937 1204 LINE",
"1027 378 LINE",
"1042 150 LINE",
"1106 346 LINE",
"1455 1202 LINE",
"1339 1222 LINE",
"1348 1309 LINE",
"1717 1309 LINE",
"1705 1222 LINE",
"1600 1202 LINE",
"1085 -9 LINE",
"907 -9 LINE",
"808 869 LINE",
"476 -9 LINE",
"299 -9 LINE",
"130 1202 LINE"
);
}
);
width = 1537;
}
);
note = W;
unicode = 0057;
},
{
glyphname = Wacute;
layers = (
{
layerId = "19CE7369-CF6C-4B47-B909-15D5A24EDA33";
name = "Regular Italic";
paths = (
{
closed = 1;
nodes = (
"1053 1721 LINE",
"1162 1617 LINE",
"1134 1557 OFFCURVE",
"1057 1490 OFFCURVE",
"977 1440 CURVE SMOOTH",
"936 1415 OFFCURVE",
"901 1396 OFFCURVE",
"872 1385 CURVE",
"816 1427 LINE"
);
},
{
closed = 1;
nodes = (
"24 1222 LINE",
"34 1309 LINE",
"441 1309 LINE",
"432 1222 LINE",
"298 1206 LINE",
"398 378 LINE",
"429 150 LINE",
"478 322 LINE",
"773 1101 LINE",
"761 1205 LINE",
"659 1222 LINE",
"668 1309 LINE",
"1084 1309 LINE",
"1066 1222 LINE",
"937 1204 LINE",
"1027 378 LINE",
"1042 150 LINE",
"1106 346 LINE",
"1455 1202 LINE",
"1339 1222 LINE",
"1348 1309 LINE",
"1717 1309 LINE",
"1705 1222 LINE",
"1600 1202 LINE",
"1085 -9 LINE",
"907 -9 LINE",
"808 869 LINE",
"476 -9 LINE",
"299 -9 LINE",
"130 1202 LINE"
);
}
);
width = 1537;
}
);
note = Wacute;
unicode = 1E82;
},
{
glyphname = Wcircumflex;
layers = (
{
layerId = "19CE7369-CF6C-4B47-B909-15D5A24EDA33";
name = "Regular Italic";
paths = (
{
closed = 1;
nodes = (
"24 1222 LINE",
"34 1309 LINE",
"441 1309 LINE",
"432 1222 LINE",
"298 1206 LINE",
"398 378 LINE",
"429 150 LINE",
"478 322 LINE",
"773 1101 LINE",
"761 1205 LINE",
"659 1222 LINE",
"668 1309 LINE",
"1084 1309 LINE",
"1066 1222 LINE",
"937 1204 LINE",
"1027 378 LINE",
"1042 150 LINE",
"1106 346 LINE",
"1455 1202 LINE",
"1339 1222 LINE",
"1348 1309 LINE",
"1717 1309 LINE",
"1705 1222 LINE",
"1600 1202 LINE",
"1085 -9 LINE",
"907 -9 LINE",
"808 869 LINE",
"476 -9 LINE",
"299 -9 LINE",
"130 1202 LINE"
);
},
{
closed = 1;
nodes = (
"867 1721 LINE",
"1019 1721 LINE",
"1202 1447 LINE",
"1140 1396 LINE",
"935 1591 LINE",
"656 1397 LINE",
"602 1447 LINE"
);
}
);
width = 1537;
}
);
note = Wcircumflex;
unicode = 0174;
},
{
glyphname = Wdieresis;
layers = (
{
layerId = "19CE7369-CF6C-4B47-B909-15D5A24EDA33";
name = "Regular Italic";
paths = (
{
closed = 1;
nodes = (
"624 1627 OFFCURVE",
"652 1669 OFFCURVE",
"690 1693 CURVE SMOOTH",
"709 1705 OFFCURVE",
"728 1711 OFFCURVE",
"748 1711 CURVE SMOOTH",
"811 1711 OFFCURVE",
"854 1669 OFFCURVE",
"854 1614 CURVE SMOOTH",
"854 1569 OFFCURVE",
"827 1526 OFFCURVE",
"787 1502 CURVE SMOOTH",
"766 1489 OFFCURVE",
"745 1483 OFFCURVE",
"722 1483 CURVE SMOOTH",
"669 1483 OFFCURVE",
"624 1529 OFFCURVE",
"624 1582 CURVE SMOOTH"
);
},
{
closed = 1;
nodes = (
"984 1628 OFFCURVE",
"1013 1670 OFFCURVE",
"1052 1694 CURVE SMOOTH",
"1071 1705 OFFCURVE",
"1091 1711 OFFCURVE",
"1110 1711 CURVE SMOOTH",
"1173 1711 OFFCURVE",
"1215 1670 OFFCURVE",
"1215 1615 CURVE SMOOTH",
"1215 1570 OFFCURVE",
"1189 1526 OFFCURVE",
"1149 1502 CURVE SMOOTH",
"1128 1489 OFFCURVE",
"1106 1483 OFFCURVE",
"1083 1483 CURVE SMOOTH",
"1030 1483 OFFCURVE",
"984 1528 OFFCURVE",
"984 1584 CURVE SMOOTH"
);
},
{
closed = 1;
nodes = (
"24 1222 LINE",
"34 1309 LINE",
"441 1309 LINE",
"432 1222 LINE",
"298 1206 LINE",
"398 378 LINE",
"429 150 LINE",
"478 322 LINE",
"773 1101 LINE",
"761 1205 LINE",
"659 1222 LINE",
"668 1309 LINE",
"1084 1309 LINE",
"1066 1222 LINE",
"937 1204 LINE",
"1027 378 LINE",
"1042 150 LINE",
"1106 346 LINE",
"1455 1202 LINE",
"1339 1222 LINE",
"1348 1309 LINE",
"1717 1309 LINE",
"1705 1222 LINE",
"1600 1202 LINE",
"1085 -9 LINE",
"907 -9 LINE",
"808 869 LINE",
"476 -9 LINE",
"299 -9 LINE",
"130 1202 LINE"
);
}
);
width = 1537;
}
);
note = Wdieresis;
unicode = 1E84;
},
{
glyphname = Wgrave;
layers = (
{
layerId = "19CE7369-CF6C-4B47-B909-15D5A24EDA33";
name = "Regular Italic";
paths = (
{
closed = 1;
nodes = (
"712 1721 LINE",
"938 1427 LINE",
"880 1385 LINE",
"821 1408 OFFCURVE",
"733 1462 OFFCURVE",
"665 1526 CURVE SMOOTH",
"631 1558 OFFCURVE",
"608 1588 OFFCURVE",
"596 1617 CURVE"
);
},
{
closed = 1;
nodes = (
"24 1222 LINE",
"34 1309 LINE",
"441 1309 LINE",
"432 1222 LINE",
"298 1206 LINE",
"398 378 LINE",
"429 150 LINE",
"478 322 LINE",
"773 1101 LINE",
"761 1205 LINE",
"659 1222 LINE",
"668 1309 LINE",
"1084 1309 LINE",
"1066 1222 LINE",
"937 1204 LINE",
"1027 378 LINE",
"1042 150 LINE",
"1106 346 LINE",
"1455 1202 LINE",
"1339 1222 LINE",
"1348 1309 LINE",
"1717 1309 LINE",
"1705 1222 LINE",
"1600 1202 LINE",
"1085 -9 LINE",
"907 -9 LINE",
"808 869 LINE",
"476 -9 LINE",
"299 -9 LINE",
"130 1202 LINE"
);
}
);
width = 1537;
}
);
note = Wgrave;
unicode = 1E80;
},
{
glyphname = X;
layers = (
{
layerId = "19CE7369-CF6C-4B47-B909-15D5A24EDA33";
name = "Regular Italic";
paths = (
{
closed = 1;
nodes = (
"59 100 LINE",
"488 660 LINE",
"230 1200 LINE",
"111 1222 LINE",
"120 1309 LINE",
"568 1309 LINE",
"559 1222 LINE",
"434 1202 LINE",
"606 770 LINE",
"897 1202 LINE",
"777 1222 LINE",
"787 1309 LINE",
"1192 1309 LINE",
"1183 1222 LINE",
"1066 1202 LINE",
"661 668 LINE",
"947 101 LINE",
"1078 76 LINE",
"1071 0 LINE",
"605 0 LINE",
"611 76 LINE",
"741 100 LINE",
"540 552 LINE",
"230 101 LINE",
"359 75 LINE",
"352 0 LINE",
"-54 0 LINE",
"-45 76 LINE"
);
}
);
width = 1115;
}
);
note = X;
unicode = 0058;
},
{
glyphname = Y;
layers = (
{
layerId = "19CE7369-CF6C-4B47-B909-15D5A24EDA33";
name = "Regular Italic";
paths = (
{
closed = 1;
nodes = (
"402 101 LINE",
"454 508 LINE",
"142 1202 LINE",
"52 1222 LINE",
"60 1309 LINE",
"488 1309 LINE",
"478 1222 LINE",
"340 1202 LINE",
"534 723 LINE",
"565 614 LINE",
"627 722 LINE",
"920 1202 LINE",
"800 1222 LINE",
"809 1309 LINE",
"1168 1309 LINE",
"1158 1222 LINE",
"1072 1202 LINE",
"622 508 LINE",
"569 101 LINE",
"738 76 LINE",
"731 0 LINE",
"209 0 LINE",
"217 76 LINE"
);
}
);
width = 1013;
}
);
note = Y;
unicode = 0059;
},
{
glyphname = Yacute;
layers = (
{
layerId = "19CE7369-CF6C-4B47-B909-15D5A24EDA33";
name = "Regular Italic";
paths = (
{
closed = 1;
nodes = (
"402 101 LINE",
"454 508 LINE",
"142 1202 LINE",
"52 1222 LINE",
"60 1309 LINE",
"488 1309 LINE",
"478 1222 LINE",
"340 1202 LINE",
"534 723 LINE",
"565 614 LINE",
"627 722 LINE",
"920 1202 LINE",
"800 1222 LINE",
"809 1309 LINE",
"1168 1309 LINE",
"1158 1222 LINE",
"1072 1202 LINE",
"622 508 LINE",
"569 101 LINE",
"738 76 LINE",
"731 0 LINE",
"209 0 LINE",
"217 76 LINE"
);
},
{
closed = 1;
nodes = (
"814 1721 LINE",
"923 1617 LINE",
"895 1557 OFFCURVE",
"818 1490 OFFCURVE",
"738 1440 CURVE SMOOTH",
"697 1415 OFFCURVE",
"662 1396 OFFCURVE",
"633 1385 CURVE",
"577 1427 LINE"
);
}
);
width = 1013;
}
);
note = Yacute;
unicode = 00DD;
},
{
glyphname = Ycircumflex;
layers = (
{
layerId = "19CE7369-CF6C-4B47-B909-15D5A24EDA33";
name = "Regular Italic";
paths = (
{
closed = 1;
nodes = (
"402 101 LINE",
"454 508 LINE",
"142 1202 LINE",
"52 1222 LINE",
"60 1309 LINE",
"488 1309 LINE",
"478 1222 LINE",
"340 1202 LINE",
"534 723 LINE",
"565 614 LINE",
"627 722 LINE",
"920 1202 LINE",
"800 1222 LINE",
"809 1309 LINE",
"1168 1309 LINE",
"1158 1222 LINE",
"1072 1202 LINE",
"622 508 LINE",
"569 101 LINE",
"738 76 LINE",
"731 0 LINE",
"209 0 LINE",
"217 76 LINE"
);
},
{
closed = 1;
nodes = (
"628 1721 LINE",
"780 1721 LINE",
"963 1447 LINE",
"901 1396 LINE",
"696 1591 LINE",
"417 1397 LINE",
"363 1447 LINE"
);
}
);
width = 1013;
}
);
note = Ycircumflex;
unicode = 0176;
},
{
glyphname = Ydieresis;
layers = (
{
layerId = "19CE7369-CF6C-4B47-B909-15D5A24EDA33";
name = "Regular Italic";
paths = (
{
closed = 1;
nodes = (
"402 101 LINE",
"454 508 LINE",
"142 1202 LINE",
"52 1222 LINE",
"60 1309 LINE",
"488 1309 LINE",
"478 1222 LINE",
"340 1202 LINE",
"534 723 LINE",
"565 614 LINE",
"627 722 LINE",
"920 1202 LINE",
"800 1222 LINE",
"809 1309 LINE",
"1168 1309 LINE",
"1158 1222 LINE",
"1072 1202 LINE",
"622 508 LINE",
"569 101 LINE",
"738 76 LINE",
"731 0 LINE",
"209 0 LINE",
"217 76 LINE"
);
},
{
closed = 1;
nodes = (
"385 1627 OFFCURVE",
"413 1669 OFFCURVE",
"451 1693 CURVE SMOOTH",
"470 1705 OFFCURVE",
"489 1711 OFFCURVE",
"509 1711 CURVE SMOOTH",
"572 1711 OFFCURVE",
"615 1669 OFFCURVE",
"615 1614 CURVE SMOOTH",
"615 1569 OFFCURVE",
"588 1526 OFFCURVE",
"548 1502 CURVE SMOOTH",
"527 1489 OFFCURVE",
"506 1483 OFFCURVE",
"483 1483 CURVE SMOOTH",
"430 1483 OFFCURVE",
"385 1529 OFFCURVE",
"385 1582 CURVE SMOOTH"
);
},
{
closed = 1;
nodes = (
"745 1628 OFFCURVE",
"774 1670 OFFCURVE",
"813 1694 CURVE SMOOTH",
"832 1705 OFFCURVE",
"852 1711 OFFCURVE",
"871 1711 CURVE SMOOTH",
"934 1711 OFFCURVE",
"976 1670 OFFCURVE",
"976 1615 CURVE SMOOTH",
"976 1570 OFFCURVE",
"950 1526 OFFCURVE",
"910 1502 CURVE SMOOTH",
"889 1489 OFFCURVE",
"867 1483 OFFCURVE",
"844 1483 CURVE SMOOTH",
"791 1483 OFFCURVE",
"745 1528 OFFCURVE",
"745 1584 CURVE SMOOTH"
);
}
);
width = 1013;
}
);
note = Ydieresis;
unicode = 0178;
},
{
glyphname = Ygrave;
layers = (
{
layerId = "19CE7369-CF6C-4B47-B909-15D5A24EDA33";
name = "Regular Italic";
paths = (
{
closed = 1;
nodes = (
"402 101 LINE",
"454 508 LINE",
"142 1202 LINE",
"52 1222 LINE",
"60 1309 LINE",
"488 1309 LINE",
"478 1222 LINE",
"340 1202 LINE",
"534 723 LINE",
"565 614 LINE",
"627 722 LINE",
"920 1202 LINE",
"800 1222 LINE",
"809 1309 LINE",
"1168 1309 LINE",
"1158 1222 LINE",
"1072 1202 LINE",
"622 508 LINE",
"569 101 LINE",
"738 76 LINE",
"731 0 LINE",
"209 0 LINE",
"217 76 LINE"
);
},
{
closed = 1;
nodes = (
"473 1721 LINE",
"699 1427 LINE",
"641 1385 LINE",
"582 1408 OFFCURVE",
"494 1462 OFFCURVE",
"426 1526 CURVE SMOOTH",
"392 1558 OFFCURVE",
"369 1588 OFFCURVE",
"357 1617 CURVE"
);
}
);
width = 1013;
}
);
note = Ygrave;
unicode = 1EF2;
},
{
glyphname = Z;
layers = (
{
layerId = "19CE7369-CF6C-4B47-B909-15D5A24EDA33";
name = "Regular Italic";
paths = (
{
closed = 1;
nodes = (
"693 1042 LINE",
"837 1210 LINE",
"347 1204 LINE",
"263 991 LINE",
"159 1011 LINE",
"208 1309 LINE",
"1018 1309 LINE",
"1040 1235 LINE",
"341 258 LINE",
"211 93 LINE",
"757 114 LINE",
"867 334 LINE",
"973 306 LINE",
"893 0 LINE",
"19 0 LINE",
"-4 77 LINE"
);
}
);
width = 1025;
}
);
note = Z;
unicode = 005A;
},
{
glyphname = Zacute;
layers = (
{
layerId = "19CE7369-CF6C-4B47-B909-15D5A24EDA33";
name = "Regular Italic";
paths = (
{
closed = 1;
nodes = (
"693 1042 LINE",
"837 1210 LINE",
"347 1204 LINE",
"263 991 LINE",
"159 1011 LINE",
"208 1309 LINE",
"1018 1309 LINE",
"1040 1235 LINE",
"341 258 LINE",
"211 93 LINE",
"757 114 LINE",
"867 334 LINE",
"973 306 LINE",
"893 0 LINE",
"19 0 LINE",
"-4 77 LINE"
);
},
{
closed = 1;
nodes = (
"786 1721 LINE",
"895 1617 LINE",
"867 1557 OFFCURVE",
"790 1490 OFFCURVE",
"710 1440 CURVE SMOOTH",
"669 1415 OFFCURVE",
"634 1396 OFFCURVE",
"605 1385 CURVE",
"549 1427 LINE"
);
}
);
width = 1025;
}
);
note = Zacute;
unicode = 0179;
},
{
glyphname = Zcaron;
layers = (
{
layerId = "19CE7369-CF6C-4B47-B909-15D5A24EDA33";
name = "Regular Italic";
paths = (
{
closed = 1;
nodes = (
"427 1721 LINE",
"631 1520 LINE",
"903 1721 LINE",
"958 1672 LINE",
"702 1396 LINE",
"552 1396 LINE",
"361 1671 LINE"
);
},
{
closed = 1;
nodes = (
"693 1042 LINE",
"837 1210 LINE",
"347 1204 LINE",
"263 991 LINE",
"159 1011 LINE",
"208 1309 LINE",
"1018 1309 LINE",
"1040 1235 LINE",
"341 258 LINE",
"211 93 LINE",
"757 114 LINE",
"867 334 LINE",
"973 306 LINE",
"893 0 LINE",
"19 0 LINE",
"-4 77 LINE"
);
}
);
width = 1025;
}
);
note = Zcaron;
unicode = 017D;
},
{
glyphname = Zdotaccent;
layers = (
{
layerId = "19CE7369-CF6C-4B47-B909-15D5A24EDA33";
name = "Regular Italic";
paths = (
{
closed = 1;
nodes = (
"527 1596 OFFCURVE",
"555 1638 OFFCURVE",
"594 1663 CURVE SMOOTH",
"613 1675 OFFCURVE",
"633 1681 OFFCURVE",
"652 1681 CURVE SMOOTH",
"716 1681 OFFCURVE",
"760 1639 OFFCURVE",
"760 1586 CURVE SMOOTH",
"760 1539 OFFCURVE",
"734 1496 OFFCURVE",
"694 1471 CURVE SMOOTH",
"673 1458 OFFCURVE",
"651 1452 OFFCURVE",
"627 1452 CURVE SMOOTH",
"572 1452 OFFCURVE",
"527 1498 OFFCURVE",
"527 1551 CURVE SMOOTH"
);
},
{
closed = 1;
nodes = (
"693 1042 LINE",
"837 1210 LINE",
"347 1204 LINE",
"263 991 LINE",
"159 1011 LINE",
"208 1309 LINE",
"1018 1309 LINE",
"1040 1235 LINE",
"341 258 LINE",
"211 93 LINE",
"757 114 LINE",
"867 334 LINE",
"973 306 LINE",
"893 0 LINE",
"19 0 LINE",
"-4 77 LINE"
);
}
);
width = 1025;
}
);
note = Zdotaccent;
unicode = 017B;
},
{
glyphname = uni0162;
layers = (
{
layerId = "19CE7369-CF6C-4B47-B909-15D5A24EDA33";
name = "Regular Italic";
paths = (
{
closed = 1;
nodes = (
"1125 1309 LINE",
"1067 904 LINE",
"972 904 LINE",
"978 1198 LINE",
"702 1216 LINE",
"559 101 LINE",
"774 81 LINE",
"768 0 LINE",
"537 0 LINE",
"546 -26 OFFCURVE",
"550 -59 OFFCURVE",
"550 -99 CURVE SMOOTH",
"550 -231 OFFCURVE",
"504 -322 OFFCURVE",
"431 -366 CURVE SMOOTH",
"394 -389 OFFCURVE",
"353 -400 OFFCURVE",
"306 -400 CURVE SMOOTH",
"261 -400 OFFCURVE",
"213 -389 OFFCURVE",
"194 -376 CURVE",
"207 -246 LINE",
"222 -253 OFFCURVE",
"257 -258 OFFCURVE",
"286 -258 CURVE SMOOTH",
"382 -258 OFFCURVE",
"442 -175 OFFCURVE",
"443 -44 CURVE SMOOTH",
"443 -27 OFFCURVE",
"442 -12 OFFCURVE",
"440 0 CURVE",
"166 0 LINE",
"174 81 LINE",
"384 101 LINE",
"525 1216 LINE",
"254 1199 LINE",
"171 906 LINE",
"71 904 LINE",
"138 1309 LINE"
);
}
);
width = 1061;
}
);
note = uni0162;
unicode = 0162;
},
{
glyphname = uni01C4;
layers = (
{
layerId = "19CE7369-CF6C-4B47-B909-15D5A24EDA33";
name = "Regular Italic";
paths = (
{
closed = 1;
nodes = (
"158 101 LINE",
"298 1202 LINE",
"183 1222 LINE",
"194 1309 LINE",
"449 1309 LINE SMOOTH",
"471 1309 OFFCURVE",
"507 1311 OFFCURVE",
"556 1316 CURVE SMOOTH",
"610 1321 OFFCURVE",
"651 1323 OFFCURVE",
"680 1323 CURVE SMOOTH",
"1025 1323 OFFCURVE",
"1179 1120 OFFCURVE",
"1179 772 CURVE SMOOTH",
"1179 476 OFFCURVE",
"1060 221 OFFCURVE",
"855 84 CURVE SMOOTH",
"752 15 OFFCURVE",
"635 -17 OFFCURVE",
"504 -14 CURVE SMOOTH",
"468 -13 OFFCURVE",
"436 -11 OFFCURVE",
"408 -8 CURVE SMOOTH",
"360 -3 OFFCURVE",
"284 0 OFFCURVE",
"236 0 CURVE SMOOTH",
"22 0 LINE",
"31 75 LINE"
);
},
{
closed = 1;
nodes = (
"335 114 LINE",
"382 97 OFFCURVE",
"480 88 OFFCURVE",
"547 87 CURVE",
"751 100 OFFCURVE",
"887 244 OFFCURVE",
"951 443 CURVE SMOOTH",
"982 542 OFFCURVE",
"998 648 OFFCURVE",
"998 759 CURVE SMOOTH",
"998 990 OFFCURVE",
"951 1118 OFFCURVE",
"845 1178 CURVE SMOOTH",
"792 1208 OFFCURVE",
"720 1223 OFFCURVE",
"630 1223 CURVE SMOOTH",
"582 1223 OFFCURVE",
"505 1214 OFFCURVE",
"472 1205 CURVE"
);
},
{
closed = 1;
nodes = (
"1926 1042 LINE",
"2070 1210 LINE",
"1580 1204 LINE",
"1496 991 LINE",
"1392 1011 LINE",
"1441 1309 LINE",
"2251 1309 LINE",
"2273 1235 LINE",
"1574 258 LINE",
"1444 93 LINE",
"1990 114 LINE",
"2100 334 LINE",
"2206 306 LINE",
"2126 0 LINE",
"1252 0 LINE",
"1229 77 LINE"
);
},
{
closed = 1;
nodes = (
"1661 1721 LINE",
"1865 1520 LINE",
"2137 1721 LINE",
"2192 1672 LINE",
"1936 1396 LINE",
"1786 1396 LINE",
"1595 1671 LINE"
);
}
);
width = 2258;
}
);
note = uni01C4;
unicode = 01C4;
},
{
glyphname = uni01C5;
layers = (
{
layerId = "19CE7369-CF6C-4B47-B909-15D5A24EDA33";
name = "Regular Italic";
paths = (
{
closed = 1;
nodes = (
"158 101 LINE",
"298 1202 LINE",
"183 1222 LINE",
"194 1309 LINE",
"449 1309 LINE SMOOTH",
"471 1309 OFFCURVE",
"507 1311 OFFCURVE",
"556 1316 CURVE SMOOTH",
"610 1321 OFFCURVE",
"651 1323 OFFCURVE",
"680 1323 CURVE SMOOTH",
"1025 1323 OFFCURVE",
"1179 1120 OFFCURVE",
"1179 772 CURVE SMOOTH",
"1179 476 OFFCURVE",
"1060 221 OFFCURVE",
"855 84 CURVE SMOOTH",
"752 15 OFFCURVE",
"635 -17 OFFCURVE",
"504 -14 CURVE SMOOTH",
"468 -13 OFFCURVE",
"436 -11 OFFCURVE",
"408 -8 CURVE SMOOTH",
"360 -3 OFFCURVE",
"284 0 OFFCURVE",
"236 0 CURVE SMOOTH",
"22 0 LINE",
"31 75 LINE"
);
},
{
closed = 1;
nodes = (
"335 114 LINE",
"382 97 OFFCURVE",
"480 88 OFFCURVE",
"547 87 CURVE",
"751 100 OFFCURVE",
"887 244 OFFCURVE",
"951 443 CURVE SMOOTH",
"982 542 OFFCURVE",
"998 648 OFFCURVE",
"998 759 CURVE SMOOTH",
"998 990 OFFCURVE",
"951 1118 OFFCURVE",
"845 1178 CURVE SMOOTH",
"792 1208 OFFCURVE",
"720 1223 OFFCURVE",
"630 1223 CURVE SMOOTH",
"582 1223 OFFCURVE",
"505 1214 OFFCURVE",
"472 1205 CURVE"
);
},
{
closed = 1;
nodes = (
"1447 995 OFFCURVE",
"1460 1002 OFFCURVE",
"1496 1002 CURVE SMOOTH",
"1547 1002 OFFCURVE",
"1639 997 OFFCURVE",
"1772 988 CURVE SMOOTH",
"1881 981 OFFCURVE",
"1955 977 OFFCURVE",
"1995 977 CURVE SMOOTH",
"2024 977 OFFCURVE",
"2043 981 OFFCURVE",
"2067 1000 CURVE",
"2116 949 LINE",
"1557 255 LINE",
"1449 135 LINE",
"1801 135 LINE SMOOTH",
"1880 135 OFFCURVE",
"1942 195 OFFCURVE",
"1954 274 CURVE",
"2025 274 LINE",
"2024 215 OFFCURVE",
"2011 129 OFFCURVE",
"1987 63 CURVE SMOOTH",
"1975 30 OFFCURVE",
"1961 8 OFFCURVE",
"1946 -3 CURVE",
"1930 -12 OFFCURVE",
"1899 -20 OFFCURVE",
"1859 -20 CURVE SMOOTH",
"1810 -20 OFFCURVE",
"1722 -15 OFFCURVE",
"1593 -4 CURVE SMOOTH",
"1485 5 OFFCURVE",
"1413 9 OFFCURVE",
"1376 9 CURVE SMOOTH",
"1352 9 OFFCURVE",
"1322 3 OFFCURVE",
"1299 -10 CURVE",
"1287 -20 LINE",
"1230 34 LINE",
"1782 711 LINE",
"1905 845 LINE",
"1551 846 LINE SMOOTH",
"1484 846 OFFCURVE",
"1442 785 OFFCURVE",
"1430 702 CURVE",
"1359 702 LINE",
"1359 763 OFFCURVE",
"1368 851 OFFCURVE",
"1388 918 CURVE SMOOTH",
"1398 951 OFFCURVE",
"1411 973 OFFCURVE",
"1427 983 CURVE SMOOTH"
);
},
{
closed = 1;
nodes = (
"1549 1420 LINE",
"1761 1211 LINE",
"2017 1420 LINE",
"2081 1371 LINE",
"1824 1087 LINE",
"1673 1087 LINE",
"1481 1370 LINE"
);
}
);
width = 2113;
}
);
note = uni01C5;
unicode = 01C5;
},
{
glyphname = uni01C7;
layers = (
{
layerId = "19CE7369-CF6C-4B47-B909-15D5A24EDA33";
name = "Regular Italic";
paths = (
{
closed = 1;
nodes = (
"159 101 LINE",
"298 1202 LINE",
"183 1222 LINE",
"194 1309 LINE",
"644 1309 LINE",
"635 1222 LINE",
"473 1202 LINE",
"335 101 LINE",
"734 110 LINE",
"853 396 LINE",
"955 376 LINE",
"873 0 LINE",
"25 0 LINE",
"32 76 LINE"
);
},
{
closed = 1;
nodes = (
"1211 1222 LINE",
"1223 1309 LINE",
"1644 1309 LINE",
"1634 1222 LINE",
"1501 1203 LINE",
"1491 1106 OFFCURVE",
"1484 1044 OFFCURVE",
"1481 1017 CURVE SMOOTH",
"1445 683 OFFCURVE",
"1419 449 OFFCURVE",
"1403 315 CURVE SMOOTH",
"1371 46 OFFCURVE",
"1352 -68 OFFCURVE",
"1190 -184 CURVE SMOOTH",
"1109 -243 OFFCURVE",
"1018 -280 OFFCURVE",
"917 -297 CURVE",
"886 -220 LINE",
"986 -192 OFFCURVE",
"1077 -123 OFFCURVE",
"1136 -43 CURVE SMOOTH",
"1165 -3 OFFCURVE",
"1184 36 OFFCURVE",
"1192 74 CURVE SMOOTH",
"1237 282 OFFCURVE",
"1263 498 OFFCURVE",
"1296 851 CURVE SMOOTH",
"1311 1006 OFFCURVE",
"1323 1123 OFFCURVE",
"1332 1202 CURVE"
);
}
);
width = 1640;
}
);
note = uni01C7;
unicode = 01C7;
},
{
glyphname = uni01C8;
layers = (
{
layerId = "19CE7369-CF6C-4B47-B909-15D5A24EDA33";
name = "Regular Italic";
paths = (
{
closed = 1;
nodes = (
"159 101 LINE",
"298 1202 LINE",
"183 1222 LINE",
"194 1309 LINE",
"644 1309 LINE",
"635 1222 LINE",
"473 1202 LINE",
"335 101 LINE",
"734 110 LINE",
"853 396 LINE",
"955 376 LINE",
"873 0 LINE",
"25 0 LINE",
"32 76 LINE"
);
},
{
closed = 1;
nodes = (
"867 -343 LINE",
"880 -348 OFFCURVE",
"912 -353 OFFCURVE",
"927 -353 CURVE SMOOTH",
"1064 -353 OFFCURVE",
"1147 -217 OFFCURVE",
"1176 56 CURVE SMOOTH",
"1260 843 LINE",
"1126 887 LINE",
"1142 956 LINE",
"1414 1000 LINE",
"1456 980 LINE",
"1344 0 LINE SMOOTH",
"1321 -191 OFFCURVE",
"1246 -326 OFFCURVE",
"1138 -394 CURVE SMOOTH",
"1084 -428 OFFCURVE",
"1024 -445 OFFCURVE",
"958 -445 CURVE SMOOTH",
"902 -445 OFFCURVE",
"855 -434 OFFCURVE",
"836 -414 CURVE"
);
},
{
closed = 1;
nodes = (
"1288 1337 OFFCURVE",
"1316 1379 OFFCURVE",
"1355 1404 CURVE SMOOTH",
"1374 1416 OFFCURVE",
"1394 1422 OFFCURVE",
"1413 1422 CURVE SMOOTH",
"1477 1422 OFFCURVE",
"1520 1380 OFFCURVE",
"1520 1325 CURVE SMOOTH",
"1520 1280 OFFCURVE",
"1494 1235 OFFCURVE",
"1454 1211 CURVE SMOOTH",
"1433 1198 OFFCURVE",
"1411 1192 OFFCURVE",
"1388 1192 CURVE SMOOTH",
"1333 1192 OFFCURVE",
"1288 1237 OFFCURVE",
"1288 1293 CURVE SMOOTH"
);
}
);
width = 1572;
}
);
note = uni01C8;
unicode = 01C8;
},
{
glyphname = uni01CA;
layers = (
{
layerId = "19CE7369-CF6C-4B47-B909-15D5A24EDA33";
name = "Regular Italic";
paths = (
{
closed = 1;
nodes = (
"151 99 LINE",
"298 1202 LINE",
"171 1222 LINE",
"186 1309 LINE",
"485 1309 LINE",
"884 364 LINE",
"945 163 LINE",
"1069 1202 LINE",
"939 1222 LINE",
"949 1309 LINE",
"1339 1309 LINE",
"1330 1222 LINE",
"1206 1202 LINE",
"1031 0 LINE",
"863 0 LINE",
"459 949 LINE",
"406 1140 LINE",
"297 101 LINE",
"436 76 LINE",
"428 0 LINE",
"28 0 LINE",
"34 75 LINE"
);
},
{
closed = 1;
nodes = (
"1499 1222 LINE",
"1511 1309 LINE",
"1932 1309 LINE",
"1922 1222 LINE",
"1789 1203 LINE",
"1779 1106 OFFCURVE",
"1772 1044 OFFCURVE",
"1769 1017 CURVE SMOOTH",
"1733 683 OFFCURVE",
"1707 449 OFFCURVE",
"1691 315 CURVE SMOOTH",
"1659 46 OFFCURVE",
"1640 -68 OFFCURVE",
"1478 -184 CURVE SMOOTH",
"1397 -243 OFFCURVE",
"1306 -280 OFFCURVE",
"1205 -297 CURVE",
"1174 -220 LINE",
"1274 -192 OFFCURVE",
"1365 -123 OFFCURVE",
"1424 -43 CURVE SMOOTH",
"1453 -3 OFFCURVE",
"1472 36 OFFCURVE",
"1480 74 CURVE SMOOTH",
"1525 282 OFFCURVE",
"1551 498 OFFCURVE",
"1584 851 CURVE SMOOTH",
"1599 1006 OFFCURVE",
"1611 1123 OFFCURVE",
"1620 1202 CURVE"
);
}
);
width = 1929;
}
);
note = uni01CA;
unicode = 01CA;
},
{
glyphname = uni01CB;
layers = (
{
layerId = "19CE7369-CF6C-4B47-B909-15D5A24EDA33";
name = "Regular Italic";
paths = (
{
closed = 1;
nodes = (
"151 99 LINE",
"298 1202 LINE",
"171 1222 LINE",
"186 1309 LINE",
"485 1309 LINE",
"884 364 LINE",
"945 163 LINE",
"1069 1202 LINE",
"939 1222 LINE",
"949 1309 LINE",
"1339 1309 LINE",
"1330 1222 LINE",
"1206 1202 LINE",
"1031 0 LINE",
"863 0 LINE",
"459 949 LINE",
"406 1140 LINE",
"297 101 LINE",
"436 76 LINE",
"428 0 LINE",
"28 0 LINE",
"34 75 LINE"
);
},
{
closed = 1;
nodes = (
"1155 -343 LINE",
"1168 -348 OFFCURVE",
"1200 -353 OFFCURVE",
"1215 -353 CURVE SMOOTH",
"1352 -353 OFFCURVE",
"1435 -217 OFFCURVE",
"1464 56 CURVE SMOOTH",
"1548 843 LINE",
"1414 887 LINE",
"1430 956 LINE",
"1702 1000 LINE",
"1744 980 LINE",
"1632 0 LINE SMOOTH",
"1609 -191 OFFCURVE",
"1534 -326 OFFCURVE",
"1426 -394 CURVE SMOOTH",
"1372 -428 OFFCURVE",
"1312 -445 OFFCURVE",
"1246 -445 CURVE SMOOTH",
"1190 -445 OFFCURVE",
"1143 -434 OFFCURVE",
"1124 -414 CURVE"
);
},
{
closed = 1;
nodes = (
"1577 1337 OFFCURVE",
"1605 1379 OFFCURVE",
"1644 1404 CURVE SMOOTH",
"1663 1416 OFFCURVE",
"1683 1422 OFFCURVE",
"1702 1422 CURVE SMOOTH",
"1766 1422 OFFCURVE",
"1809 1380 OFFCURVE",
"1809 1325 CURVE SMOOTH",
"1809 1280 OFFCURVE",
"1783 1235 OFFCURVE",
"1743 1211 CURVE SMOOTH",
"1722 1198 OFFCURVE",
"1700 1192 OFFCURVE",
"1677 1192 CURVE SMOOTH",
"1622 1192 OFFCURVE",
"1577 1237 OFFCURVE",
"1577 1293 CURVE SMOOTH"
);
}
);
width = 1861;
}
);
note = uni01CB;
unicode = 01CB;
},
{
glyphname = uni01CD;
layers = (
{
layerId = "19CE7369-CF6C-4B47-B909-15D5A24EDA33";
name = "Regular Italic";
paths = (
{
closed = 1;
nodes = (
"791 1309 LINE",
"1009 102 LINE",
"1143 75 LINE",
"1137 0 LINE",
"694 0 LINE",
"698 75 LINE",
"832 100 LINE",
"789 374 LINE",
"302 374 LINE",
"173 101 LINE",
"310 75 LINE",
"305 0 LINE",
"-103 0 LINE",
"-95 75 LINE",
"7 100 LINE",
"615 1309 LINE"
);
},
{
closed = 1;
nodes = (
"773 479 LINE",
"684 1060 LINE",
"674 1164 LINE",
"351 479 LINE"
);
},
{
closed = 1;
nodes = (
"694 1721 LINE",
"846 1721 LINE",
"1029 1447 LINE",
"967 1396 LINE",
"762 1591 LINE",
"483 1397 LINE",
"429 1447 LINE"
);
}
);
width = 1154;
}
);
note = uni01CD;
unicode = 01CD;
},
{
glyphname = uni01CF;
layers = (
{
layerId = "19CE7369-CF6C-4B47-B909-15D5A24EDA33";
name = "Regular Italic";
paths = (
{
closed = 1;
nodes = (
"159 101 LINE",
"298 1202 LINE",
"183 1222 LINE",
"194 1309 LINE",
"615 1309 LINE",
"605 1222 LINE",
"474 1202 LINE",
"335 101 LINE",
"470 76 LINE",
"464 0 LINE",
"24 0 LINE",
"32 75 LINE"
);
},
{
closed = 1;
nodes = (
"246 1721 LINE",
"450 1520 LINE",
"722 1721 LINE",
"777 1672 LINE",
"521 1396 LINE",
"371 1396 LINE",
"180 1671 LINE"
);
}
);
width = 608;
}
);
note = uni01CF;
unicode = 01CF;
},
{
glyphname = uni01D1;
layers = (
{
layerId = "19CE7369-CF6C-4B47-B909-15D5A24EDA33";
name = "Regular Italic";
paths = (
{
closed = 1;
nodes = (
"889 1326 OFFCURVE",
"1019 1219 OFFCURVE",
"1082 1049 CURVE SMOOTH",
"1113 964 OFFCURVE",
"1129 869 OFFCURVE",
"1129 764 CURVE SMOOTH",
"1129 471 OFFCURVE",
"1019 221 OFFCURVE",
"839 85 CURVE SMOOTH",
"748 17 OFFCURVE",
"646 -17 OFFCURVE",
"533 -17 CURVE SMOOTH",
"342 -17 OFFCURVE",
"212 93 OFFCURVE",
"149 265 CURVE SMOOTH",
"118 351 OFFCURVE",
"102 447 OFFCURVE",
"102 552 CURVE SMOOTH",
"102 844 OFFCURVE",
"212 1092 OFFCURVE",
"394 1226 CURVE SMOOTH",
"485 1293 OFFCURVE",
"586 1326 OFFCURVE",
"698 1326 CURVE SMOOTH"
);
},
{
closed = 1;
nodes = (
"945 931 OFFCURVE",
"904 1079 OFFCURVE",
"821 1159 CURVE SMOOTH",
"780 1199 OFFCURVE",
"729 1219 OFFCURVE",
"669 1219 CURVE SMOOTH",
"524 1219 OFFCURVE",
"400 1103 OFFCURVE",
"332 908 CURVE SMOOTH",
"298 811 OFFCURVE",
"281 701 OFFCURVE",
"281 578 CURVE SMOOTH",
"281 383 OFFCURVE",
"322 231 OFFCURVE",
"405 148 CURVE SMOOTH",
"446 107 OFFCURVE",
"497 86 OFFCURVE",
"557 86 CURVE SMOOTH",
"702 86 OFFCURVE",
"827 204 OFFCURVE",
"895 401 CURVE SMOOTH",
"928 500 OFFCURVE",
"945 611 OFFCURVE",
"945 734 CURVE SMOOTH"
);
},
{
closed = 1;
nodes = (
"521 1721 LINE",
"725 1520 LINE",
"997 1721 LINE",
"1052 1672 LINE",
"796 1396 LINE",
"646 1396 LINE",
"455 1671 LINE"
);
}
);
width = 1189;
}
);
note = uni01D1;
unicode = 01D1;
},
{
glyphname = uni01F1;
layers = (
{
layerId = "19CE7369-CF6C-4B47-B909-15D5A24EDA33";
name = "Regular Italic";
paths = (
{
closed = 1;
nodes = (
"158 101 LINE",
"298 1202 LINE",
"183 1222 LINE",
"194 1309 LINE",
"449 1309 LINE SMOOTH",
"471 1309 OFFCURVE",
"507 1311 OFFCURVE",
"556 1316 CURVE SMOOTH",
"610 1321 OFFCURVE",
"651 1323 OFFCURVE",
"680 1323 CURVE SMOOTH",
"1025 1323 OFFCURVE",
"1179 1120 OFFCURVE",
"1179 772 CURVE SMOOTH",
"1179 476 OFFCURVE",
"1060 221 OFFCURVE",
"855 84 CURVE SMOOTH",
"752 15 OFFCURVE",
"635 -17 OFFCURVE",
"504 -14 CURVE SMOOTH",
"468 -13 OFFCURVE",
"436 -11 OFFCURVE",
"408 -8 CURVE SMOOTH",
"360 -3 OFFCURVE",
"284 0 OFFCURVE",
"236 0 CURVE SMOOTH",
"22 0 LINE",
"31 75 LINE"
);
},
{
closed = 1;
nodes = (
"335 114 LINE",
"382 97 OFFCURVE",
"480 88 OFFCURVE",
"547 87 CURVE",
"751 100 OFFCURVE",
"887 244 OFFCURVE",
"951 443 CURVE SMOOTH",
"982 542 OFFCURVE",
"998 648 OFFCURVE",
"998 759 CURVE SMOOTH",
"998 990 OFFCURVE",
"951 1118 OFFCURVE",
"845 1178 CURVE SMOOTH",
"792 1208 OFFCURVE",
"720 1223 OFFCURVE",
"630 1223 CURVE SMOOTH",
"582 1223 OFFCURVE",
"505 1214 OFFCURVE",
"472 1205 CURVE"
);
},
{
closed = 1;
nodes = (
"1926 1042 LINE",
"2070 1210 LINE",
"1580 1204 LINE",
"1496 991 LINE",
"1392 1011 LINE",
"1441 1309 LINE",
"2251 1309 LINE",
"2273 1235 LINE",
"1574 258 LINE",
"1444 93 LINE",
"1990 114 LINE",
"2100 334 LINE",
"2206 306 LINE",
"2126 0 LINE",
"1252 0 LINE",
"1229 77 LINE"
);
}
);
width = 2258;
}
);
note = uni01F1;
unicode = 01F1;
},
{
glyphname = uni01F2;
layers = (
{
layerId = "19CE7369-CF6C-4B47-B909-15D5A24EDA33";
name = "Regular Italic";
paths = (
{
closed = 1;
nodes = (
"158 101 LINE",
"298 1202 LINE",
"183 1222 LINE",
"194 1309 LINE",
"449 1309 LINE SMOOTH",
"471 1309 OFFCURVE",
"507 1311 OFFCURVE",
"556 1316 CURVE SMOOTH",
"610 1321 OFFCURVE",
"651 1323 OFFCURVE",
"680 1323 CURVE SMOOTH",
"1025 1323 OFFCURVE",
"1179 1120 OFFCURVE",
"1179 772 CURVE SMOOTH",
"1179 476 OFFCURVE",
"1060 221 OFFCURVE",
"855 84 CURVE SMOOTH",
"752 15 OFFCURVE",
"635 -17 OFFCURVE",
"504 -14 CURVE SMOOTH",
"468 -13 OFFCURVE",
"436 -11 OFFCURVE",
"408 -8 CURVE SMOOTH",
"360 -3 OFFCURVE",
"284 0 OFFCURVE",
"236 0 CURVE SMOOTH",
"22 0 LINE",
"31 75 LINE"
);
},
{
closed = 1;
nodes = (
"335 114 LINE",
"382 97 OFFCURVE",
"480 88 OFFCURVE",
"547 87 CURVE",
"751 100 OFFCURVE",
"887 244 OFFCURVE",
"951 443 CURVE SMOOTH",
"982 542 OFFCURVE",
"998 648 OFFCURVE",
"998 759 CURVE SMOOTH",
"998 990 OFFCURVE",
"951 1118 OFFCURVE",
"845 1178 CURVE SMOOTH",
"792 1208 OFFCURVE",
"720 1223 OFFCURVE",
"630 1223 CURVE SMOOTH",
"582 1223 OFFCURVE",
"505 1214 OFFCURVE",
"472 1205 CURVE"
);
},
{
closed = 1;
nodes = (
"1447 995 OFFCURVE",
"1460 1002 OFFCURVE",
"1496 1002 CURVE SMOOTH",
"1547 1002 OFFCURVE",
"1639 997 OFFCURVE",
"1772 988 CURVE SMOOTH",
"1881 981 OFFCURVE",
"1955 977 OFFCURVE",
"1995 977 CURVE SMOOTH",
"2024 977 OFFCURVE",
"2043 981 OFFCURVE",
"2067 1000 CURVE",
"2116 949 LINE",
"1557 255 LINE",
"1449 135 LINE",
"1801 135 LINE SMOOTH",
"1880 135 OFFCURVE",
"1942 195 OFFCURVE",
"1954 274 CURVE",
"2025 274 LINE",
"2024 215 OFFCURVE",
"2011 129 OFFCURVE",
"1987 63 CURVE SMOOTH",
"1975 30 OFFCURVE",
"1961 8 OFFCURVE",
"1946 -3 CURVE",
"1930 -12 OFFCURVE",
"1899 -20 OFFCURVE",
"1859 -20 CURVE SMOOTH",
"1810 -20 OFFCURVE",
"1722 -15 OFFCURVE",
"1593 -4 CURVE SMOOTH",
"1485 5 OFFCURVE",
"1413 9 OFFCURVE",
"1376 9 CURVE SMOOTH",
"1352 9 OFFCURVE",
"1322 3 OFFCURVE",
"1299 -10 CURVE",
"1287 -20 LINE",
"1230 34 LINE",
"1782 711 LINE",
"1905 845 LINE",
"1551 846 LINE SMOOTH",
"1484 846 OFFCURVE",
"1442 785 OFFCURVE",
"1430 702 CURVE",
"1359 702 LINE",
"1359 763 OFFCURVE",
"1368 851 OFFCURVE",
"1388 918 CURVE SMOOTH",
"1398 951 OFFCURVE",
"1411 973 OFFCURVE",
"1427 983 CURVE SMOOTH"
);
}
);
width = 2113;
}
);
note = uni01F2;
unicode = 01F2;
},
{
glyphname = uni01F4;
layers = (
{
layerId = "19CE7369-CF6C-4B47-B909-15D5A24EDA33";
name = "Regular Italic";
paths = (
{
closed = 1;
nodes = (
"877 1323 OFFCURVE",
"973 1302 OFFCURVE",
"1069 1275 CURVE SMOOTH",
"1103 1265 LINE",
"1053 1010 LINE",
"940 1010 LINE",
"921 1167 LINE",
"880 1202 OFFCURVE",
"819 1221 OFFCURVE",
"703 1221 CURVE SMOOTH",
"502 1221 OFFCURVE",
"373 1067 OFFCURVE",
"315 869 CURVE SMOOTH",
"286 770 OFFCURVE",
"271 671 OFFCURVE",
"271 573 CURVE SMOOTH",
"271 406 OFFCURVE",
"310 251 OFFCURVE",
"399 158 CURVE SMOOTH",
"444 111 OFFCURVE",
"500 88 OFFCURVE",
"569 88 CURVE SMOOTH",
"682 88 OFFCURVE",
"765 114 OFFCURVE",
"818 166 CURVE",
"867 507 LINE",
"666 522 LINE",
"678 623 LINE",
"1062 623 LINE",
"985 81 LINE",
"953 77 OFFCURVE",
"909 64 OFFCURVE",
"901 61 CURVE",
"881 55 OFFCURVE",
"872 52 OFFCURVE",
"873 52 CURVE",
"736 12 OFFCURVE",
"638 -14 OFFCURVE",
"518 -14 CURVE SMOOTH",
"321 -14 OFFCURVE",
"190 108 OFFCURVE",
"131 282 CURVE SMOOTH",
"101 369 OFFCURVE",
"86 461 OFFCURVE",
"86 559 CURVE SMOOTH",
"86 858 OFFCURVE",
"210 1099 OFFCURVE",
"405 1227 CURVE SMOOTH",
"502 1291 OFFCURVE",
"608 1323 OFFCURVE",
"722 1323 CURVE SMOOTH"
);
},
{
closed = 1;
nodes = (
"881 1721 LINE",
"990 1617 LINE",
"962 1557 OFFCURVE",
"885 1490 OFFCURVE",
"805 1440 CURVE SMOOTH",
"764 1415 OFFCURVE",
"729 1396 OFFCURVE",
"700 1385 CURVE",
"644 1427 LINE"
);
}
);
width = 1156;
}
);
note = uni01F4;
unicode = 01F4;
},
{
glyphname = uni021A;
layers = (
{
layerId = "19CE7369-CF6C-4B47-B909-15D5A24EDA33";
name = "Regular Italic";
paths = (
{
closed = 1;
nodes = (
"345 -424 LINE",
"385 -392 OFFCURVE",
"410 -342 OFFCURVE",
"410 -287 CURVE SMOOTH",
"410 -246 OFFCURVE",
"381 -193 OFFCURVE",
"348 -186 CURVE",
"349 -130 LINE",
"461 -43 LINE",
"528 -58 OFFCURVE",
"568 -136 OFFCURVE",
"568 -224 CURVE SMOOTH",
"568 -311 OFFCURVE",
"529 -390 OFFCURVE",
"481 -437 CURVE SMOOTH",
"456 -461 OFFCURVE",
"433 -476 OFFCURVE",
"412 -482 CURVE",
"345 -446 LINE"
);
},
{
closed = 1;
nodes = (
"384 101 LINE",
"525 1216 LINE",
"254 1199 LINE",
"171 906 LINE",
"71 904 LINE",
"138 1309 LINE",
"1125 1309 LINE",
"1067 904 LINE",
"972 904 LINE",
"978 1198 LINE",
"702 1216 LINE",
"559 101 LINE",
"774 81 LINE",
"768 0 LINE",
"166 0 LINE",
"174 81 LINE"
);
}
);
width = 1061;
}
);
note = uni021A;
unicode = 021A;
},
{
glyphname = uni1E02;
layers = (
{
layerId = "19CE7369-CF6C-4B47-B909-15D5A24EDA33";
name = "Regular Italic";
paths = (
{
closed = 1;
nodes = (
"505 1596 OFFCURVE",
"533 1638 OFFCURVE",
"572 1663 CURVE SMOOTH",
"591 1675 OFFCURVE",
"611 1681 OFFCURVE",
"630 1681 CURVE SMOOTH",
"694 1681 OFFCURVE",
"738 1639 OFFCURVE",
"738 1586 CURVE SMOOTH",
"738 1539 OFFCURVE",
"712 1496 OFFCURVE",
"672 1471 CURVE SMOOTH",
"651 1458 OFFCURVE",
"629 1452 OFFCURVE",
"605 1452 CURVE SMOOTH",
"550 1452 OFFCURVE",
"505 1498 OFFCURVE",
"505 1551 CURVE SMOOTH"
);
},
{
closed = 1;
nodes = (
"152 101 LINE",
"291 1202 LINE",
"176 1222 LINE",
"187 1309 LINE",
"383 1309 LINE SMOOTH",
"427 1309 OFFCURVE",
"492 1314 OFFCURVE",
"509 1315 CURVE SMOOTH",
"568 1320 OFFCURVE",
"613 1322 OFFCURVE",
"646 1322 CURVE SMOOTH",
"817 1322 OFFCURVE",
"931 1267 OFFCURVE",
"986 1184 CURVE SMOOTH",
"1041 1101 OFFCURVE",
"1054 941 OFFCURVE",
"964 826 CURVE SMOOTH",
"919 768 OFFCURVE",
"854 725 OFFCURVE",
"770 697 CURVE",
"867 682 OFFCURVE",
"946 630 OFFCURVE",
"990 549 CURVE SMOOTH",
"1011 508 OFFCURVE",
"1022 463 OFFCURVE",
"1022 413 CURVE SMOOTH",
"1022 218 OFFCURVE",
"910 91 OFFCURVE",
"736 32 CURVE SMOOTH",
"649 3 OFFCURVE",
"551 -12 OFFCURVE",
"443 -12 CURVE SMOOTH",
"408 -12 OFFCURVE",
"347 -7 OFFCURVE",
"328 -6 CURVE",
"283 -2 OFFCURVE",
"247 0 OFFCURVE",
"222 0 CURVE SMOOTH",
"17 0 LINE",
"25 75 LINE"
);
},
{
closed = 1;
nodes = (
"405 733 LINE",
"430 732 OFFCURVE",
"451 731 OFFCURVE",
"468 731 CURVE SMOOTH",
"554 732 LINE SMOOTH",
"669 732 OFFCURVE",
"763 772 OFFCURVE",
"816 857 CURVE SMOOTH",
"842 899 OFFCURVE",
"855 952 OFFCURVE",
"855 1016 CURVE SMOOTH",
"855 1111 OFFCURVE",
"825 1170 OFFCURVE",
"752 1199 CURVE SMOOTH",
"715 1214 OFFCURVE",
"666 1221 OFFCURVE",
"605 1221 CURVE SMOOTH",
"566 1221 OFFCURVE",
"501 1219 OFFCURVE",
"465 1212 CURVE"
);
},
{
closed = 1;
nodes = (
"327 109 LINE",
"355 98 OFFCURVE",
"432 92 OFFCURVE",
"480 92 CURVE SMOOTH",
"703 92 OFFCURVE",
"835 182 OFFCURVE",
"835 393 CURVE SMOOTH",
"835 550 OFFCURVE",
"759 624 OFFCURVE",
"583 624 CURVE SMOOTH",
"511 624 OFFCURVE",
"447 622 OFFCURVE",
"390 617 CURVE"
);
}
);
width = 1105;
}
);
note = uni1E02;
unicode = 1E02;
},
{
glyphname = uni1E0A;
layers = (
{
layerId = "19CE7369-CF6C-4B47-B909-15D5A24EDA33";
name = "Regular Italic";
paths = (
{
closed = 1;
nodes = (
"592 1596 OFFCURVE",
"620 1638 OFFCURVE",
"659 1663 CURVE SMOOTH",
"678 1675 OFFCURVE",
"698 1681 OFFCURVE",
"717 1681 CURVE SMOOTH",
"781 1681 OFFCURVE",
"825 1639 OFFCURVE",
"825 1586 CURVE SMOOTH",
"825 1539 OFFCURVE",
"799 1496 OFFCURVE",
"759 1471 CURVE SMOOTH",
"738 1458 OFFCURVE",
"716 1452 OFFCURVE",
"692 1452 CURVE SMOOTH",
"637 1452 OFFCURVE",
"592 1498 OFFCURVE",
"592 1551 CURVE SMOOTH"
);
},
{
closed = 1;
nodes = (
"150 101 LINE",
"290 1202 LINE",
"175 1222 LINE",
"186 1309 LINE",
"441 1309 LINE SMOOTH",
"463 1309 OFFCURVE",
"499 1311 OFFCURVE",
"548 1316 CURVE SMOOTH",
"602 1321 OFFCURVE",
"643 1323 OFFCURVE",
"672 1323 CURVE SMOOTH",
"1017 1323 OFFCURVE",
"1171 1120 OFFCURVE",
"1171 772 CURVE SMOOTH",
"1171 476 OFFCURVE",
"1052 221 OFFCURVE",
"847 84 CURVE SMOOTH",
"744 15 OFFCURVE",
"627 -17 OFFCURVE",
"496 -14 CURVE SMOOTH",
"460 -13 OFFCURVE",
"428 -11 OFFCURVE",
"400 -8 CURVE SMOOTH",
"352 -3 OFFCURVE",
"276 0 OFFCURVE",
"228 0 CURVE SMOOTH",
"14 0 LINE",
"23 75 LINE"
);
},
{
closed = 1;
nodes = (
"327 114 LINE",
"374 97 OFFCURVE",
"472 88 OFFCURVE",
"539 87 CURVE",
"743 100 OFFCURVE",
"879 244 OFFCURVE",
"943 443 CURVE SMOOTH",
"974 542 OFFCURVE",
"990 648 OFFCURVE",
"990 759 CURVE SMOOTH",
"990 990 OFFCURVE",
"943 1118 OFFCURVE",
"837 1178 CURVE SMOOTH",
"784 1208 OFFCURVE",
"712 1223 OFFCURVE",
"622 1223 CURVE SMOOTH",
"574 1223 OFFCURVE",
"497 1214 OFFCURVE",
"464 1205 CURVE"
);
}
);
width = 1231;
}
);
note = uni1E0A;
unicode = 1E0A;
},
{
glyphname = uni1E1E;
layers = (
{
layerId = "19CE7369-CF6C-4B47-B909-15D5A24EDA33";
name = "Regular Italic";
paths = (
{
closed = 1;
nodes = (
"552 1596 OFFCURVE",
"580 1638 OFFCURVE",
"619 1663 CURVE SMOOTH",
"638 1675 OFFCURVE",
"658 1681 OFFCURVE",
"677 1681 CURVE SMOOTH",
"741 1681 OFFCURVE",
"785 1639 OFFCURVE",
"785 1586 CURVE SMOOTH",
"785 1539 OFFCURVE",
"759 1496 OFFCURVE",
"719 1471 CURVE SMOOTH",
"698 1458 OFFCURVE",
"676 1452 OFFCURVE",
"652 1452 CURVE SMOOTH",
"597 1452 OFFCURVE",
"552 1498 OFFCURVE",
"552 1551 CURVE SMOOTH"
);
},
{
closed = 1;
nodes = (
"159 101 LINE",
"297 1202 LINE",
"182 1222 LINE",
"193 1309 LINE",
"1032 1309 LINE",
"1012 1040 LINE",
"905 1040 LINE",
"880 1198 LINE",
"474 1214 LINE",
"415 734 LINE",
"820 742 LINE",
"809 604 LINE",
"405 619 LINE",
"335 102 LINE",
"566 76 LINE",
"559 0 LINE",
"24 0 LINE",
"31 76 LINE"
);
}
);
width = 1001;
}
);
note = uni1E1E;
unicode = 1E1E;
},
{
glyphname = uni1E20;
layers = (
{
layerId = "19CE7369-CF6C-4B47-B909-15D5A24EDA33";
name = "Regular Italic";
paths = (
{
closed = 1;
nodes = (
"877 1323 OFFCURVE",
"973 1302 OFFCURVE",
"1069 1275 CURVE SMOOTH",
"1103 1265 LINE",
"1053 1010 LINE",
"940 1010 LINE",
"921 1167 LINE",
"880 1202 OFFCURVE",
"819 1221 OFFCURVE",
"703 1221 CURVE SMOOTH",
"502 1221 OFFCURVE",
"373 1067 OFFCURVE",
"315 869 CURVE SMOOTH",
"286 770 OFFCURVE",
"271 671 OFFCURVE",
"271 573 CURVE SMOOTH",
"271 406 OFFCURVE",
"310 251 OFFCURVE",
"399 158 CURVE SMOOTH",
"444 111 OFFCURVE",
"500 88 OFFCURVE",
"569 88 CURVE SMOOTH",
"682 88 OFFCURVE",
"765 114 OFFCURVE",
"818 166 CURVE",
"867 507 LINE",
"666 522 LINE",
"678 623 LINE",
"1062 623 LINE",
"985 81 LINE",
"953 77 OFFCURVE",
"909 64 OFFCURVE",
"901 61 CURVE",
"881 55 OFFCURVE",
"872 52 OFFCURVE",
"873 52 CURVE",
"736 12 OFFCURVE",
"638 -14 OFFCURVE",
"518 -14 CURVE SMOOTH",
"321 -14 OFFCURVE",
"190 108 OFFCURVE",
"131 282 CURVE SMOOTH",
"101 369 OFFCURVE",
"86 461 OFFCURVE",
"86 559 CURVE SMOOTH",
"86 858 OFFCURVE",
"210 1099 OFFCURVE",
"405 1227 CURVE SMOOTH",
"502 1291 OFFCURVE",
"608 1323 OFFCURVE",
"722 1323 CURVE SMOOTH"
);
},
{
closed = 1;
nodes = (
"952 1617 LINE",
"934 1486 LINE",
"495 1486 LINE",
"511 1617 LINE"
);
}
);
width = 1156;
}
);
note = uni1E20;
unicode = 1E20;
},
{
glyphname = uni1E40;
layers = (
{
layerId = "19CE7369-CF6C-4B47-B909-15D5A24EDA33";
name = "Regular Italic";
paths = (
{
closed = 1;
nodes = (
"809 1596 OFFCURVE",
"837 1638 OFFCURVE",
"876 1663 CURVE SMOOTH",
"895 1675 OFFCURVE",
"915 1681 OFFCURVE",
"934 1681 CURVE SMOOTH",
"998 1681 OFFCURVE",
"1042 1639 OFFCURVE",
"1042 1586 CURVE SMOOTH",
"1042 1539 OFFCURVE",
"1016 1496 OFFCURVE",
"976 1471 CURVE SMOOTH",
"955 1458 OFFCURVE",
"933 1452 OFFCURVE",
"909 1452 CURVE SMOOTH",
"854 1452 OFFCURVE",
"809 1498 OFFCURVE",
"809 1551 CURVE SMOOTH"
);
},
{
closed = 1;
nodes = (
"100 101 LINE",
"372 1202 LINE",
"234 1222 LINE",
"244 1309 LINE",
"629 1309 LINE",
"770 411 LINE",
"783 267 LINE",
"838 411 LINE SMOOTH",
"879 510 OFFCURVE",
"946 663 OFFCURVE",
"1039 872 CURVE SMOOTH",
"1131 1079 OFFCURVE",
"1195 1224 OFFCURVE",
"1230 1309 CURVE",
"1594 1309 LINE",
"1585 1222 LINE",
"1443 1202 LINE",
"1422 101 LINE",
"1554 76 LINE",
"1546 0 LINE",
"1088 0 LINE",
"1096 76 LINE",
"1247 100 LINE",
"1279 875 LINE",
"1305 1221 LINE",
"1187 916 LINE",
"782 -3 LINE",
"685 -15 LINE",
"538 895 LINE",
"485 1219 LINE",
"423 887 LINE",
"241 101 LINE",
"402 76 LINE",
"394 0 LINE",
"-46 0 LINE",
"-38 76 LINE"
);
}
);
width = 1613;
}
);
note = uni1E40;
unicode = 1E40;
},
{
glyphname = uni1E44;
layers = (
{
layerId = "19CE7369-CF6C-4B47-B909-15D5A24EDA33";
name = "Regular Italic";
paths = (
{
closed = 1;
nodes = (
"151 99 LINE",
"298 1202 LINE",
"171 1222 LINE",
"186 1309 LINE",
"485 1309 LINE",
"884 364 LINE",
"945 163 LINE",
"1069 1202 LINE",
"939 1222 LINE",
"949 1309 LINE",
"1339 1309 LINE",
"1330 1222 LINE",
"1206 1202 LINE",
"1031 0 LINE",
"863 0 LINE",
"459 949 LINE",
"406 1140 LINE",
"297 101 LINE",
"436 76 LINE",
"428 0 LINE",
"28 0 LINE",
"34 75 LINE"
);
},
{
closed = 1;
nodes = (
"660 1596 OFFCURVE",
"688 1638 OFFCURVE",
"727 1663 CURVE SMOOTH",
"746 1675 OFFCURVE",
"766 1681 OFFCURVE",
"785 1681 CURVE SMOOTH",
"849 1681 OFFCURVE",
"893 1639 OFFCURVE",
"893 1586 CURVE SMOOTH",
"893 1539 OFFCURVE",
"867 1496 OFFCURVE",
"827 1471 CURVE SMOOTH",
"806 1458 OFFCURVE",
"784 1452 OFFCURVE",
"760 1452 CURVE SMOOTH",
"705 1452 OFFCURVE",
"660 1498 OFFCURVE",
"660 1551 CURVE SMOOTH"
);
}
);
width = 1305;
}
);
note = uni1E44;
unicode = 1E44;
},
{
glyphname = uni1E56;
layers = (
{
layerId = "19CE7369-CF6C-4B47-B909-15D5A24EDA33";
name = "Regular Italic";
paths = (
{
closed = 1;
nodes = (
"622 1596 OFFCURVE",
"650 1638 OFFCURVE",
"689 1663 CURVE SMOOTH",
"708 1675 OFFCURVE",
"728 1681 OFFCURVE",
"747 1681 CURVE SMOOTH",
"811 1681 OFFCURVE",
"855 1639 OFFCURVE",
"855 1586 CURVE SMOOTH",
"855 1539 OFFCURVE",
"829 1496 OFFCURVE",
"789 1471 CURVE SMOOTH",
"768 1458 OFFCURVE",
"746 1452 OFFCURVE",
"722 1452 CURVE SMOOTH",
"667 1452 OFFCURVE",
"622 1498 OFFCURVE",
"622 1551 CURVE SMOOTH"
);
},
{
closed = 1;
nodes = (
"159 101 LINE",
"298 1202 LINE",
"183 1222 LINE",
"194 1309 LINE",
"413 1309 LINE SMOOTH",
"439 1309 OFFCURVE",
"478 1311 OFFCURVE",
"531 1316 CURVE SMOOTH",
"580 1321 OFFCURVE",
"623 1324 OFFCURVE",
"660 1324 CURVE SMOOTH",
"920 1324 OFFCURVE",
"1056 1210 OFFCURVE",
"1056 975 CURVE SMOOTH",
"1056 762 OFFCURVE",
"953 606 OFFCURVE",
"792 527 CURVE SMOOTH",
"711 487 OFFCURVE",
"622 467 OFFCURVE",
"525 467 CURVE SMOOTH",
"455 467 OFFCURVE",
"406 468 OFFCURVE",
"378 470 CURVE",
"335 101 LINE",
"507 76 LINE",
"500 0 LINE",
"24 0 LINE",
"32 75 LINE"
);
},
{
closed = 1;
nodes = (
"696 571 OFFCURVE",
"791 633 OFFCURVE",
"836 750 CURVE SMOOTH",
"880 867 OFFCURVE",
"881 1037 OFFCURVE",
"854 1110 CURVE SMOOTH",
"826 1182 OFFCURVE",
"763 1221 OFFCURVE",
"646 1221 CURVE SMOOTH",
"601 1221 OFFCURVE",
"522 1215 OFFCURVE",
"474 1203 CURVE",
"391 582 LINE",
"440 574 OFFCURVE",
"487 570 OFFCURVE",
"533 570 CURVE SMOOTH"
);
}
);
width = 1065;
}
);
note = uni1E56;
unicode = 1E56;
},
{
glyphname = uni1E60;
layers = (
{
layerId = "19CE7369-CF6C-4B47-B909-15D5A24EDA33";
name = "Regular Italic";
paths = (
{
closed = 1;
nodes = (
"510 1596 OFFCURVE",
"538 1638 OFFCURVE",
"577 1663 CURVE SMOOTH",
"596 1675 OFFCURVE",
"616 1681 OFFCURVE",
"635 1681 CURVE SMOOTH",
"699 1681 OFFCURVE",
"743 1639 OFFCURVE",
"743 1586 CURVE SMOOTH",
"743 1539 OFFCURVE",
"717 1496 OFFCURVE",
"677 1471 CURVE SMOOTH",
"656 1458 OFFCURVE",
"634 1452 OFFCURVE",
"610 1452 CURVE SMOOTH",
"555 1452 OFFCURVE",
"510 1498 OFFCURVE",
"510 1551 CURVE SMOOTH"
);
},
{
closed = 1;
nodes = (
"186 298 LINE",
"207 132 LINE",
"254 101 OFFCURVE",
"333 81 OFFCURVE",
"402 81 CURVE SMOOTH",
"485 81 OFFCURVE",
"575 111 OFFCURVE",
"631 179 CURVE SMOOTH",
"659 213 OFFCURVE",
"673 255 OFFCURVE",
"673 306 CURVE SMOOTH",
"673 389 OFFCURVE",
"632 454 OFFCURVE",
"572 506 CURVE SMOOTH",
"542 531 OFFCURVE",
"505 558 OFFCURVE",
"460 586 CURVE SMOOTH",
"344 658 OFFCURVE",
"263 721 OFFCURVE",
"209 816 CURVE SMOOTH",
"182 863 OFFCURVE",
"168 917 OFFCURVE",
"168 976 CURVE SMOOTH",
"168 1112 OFFCURVE",
"249 1222 OFFCURVE",
"376 1282 CURVE SMOOTH",
"439 1311 OFFCURVE",
"508 1326 OFFCURVE",
"582 1326 CURVE SMOOTH",
"731 1326 OFFCURVE",
"836 1292 OFFCURVE",
"896 1253 CURVE",
"856 1027 LINE",
"762 1027 LINE",
"738 1182 LINE",
"702 1207 OFFCURVE",
"635 1226 OFFCURVE",
"568 1226 CURVE SMOOTH",
"495 1226 OFFCURVE",
"419 1198 OFFCURVE",
"375 1141 CURVE SMOOTH",
"352 1112 OFFCURVE",
"341 1077 OFFCURVE",
"341 1035 CURVE SMOOTH",
"341 906 OFFCURVE",
"422 821 OFFCURVE",
"563 733 CURVE SMOOTH",
"690 653 OFFCURVE",
"756 606 OFFCURVE",
"808 519 CURVE SMOOTH",
"834 476 OFFCURVE",
"847 425 OFFCURVE",
"847 367 CURVE SMOOTH",
"847 210 OFFCURVE",
"764 90 OFFCURVE",
"628 27 CURVE SMOOTH",
"559 -4 OFFCURVE",
"482 -20 OFFCURVE",
"397 -20 CURVE SMOOTH",
"297 -20 OFFCURVE",
"194 -3 OFFCURVE",
"122 22 CURVE SMOOTH",
"86 34 OFFCURVE",
"61 45 OFFCURVE",
"46 56 CURVE",
"83 298 LINE"
);
}
);
width = 931;
}
);
note = uni1E60;
unicode = 1E60;
},
{
glyphname = uni1E6A;
layers = (
{
layerId = "19CE7369-CF6C-4B47-B909-15D5A24EDA33";
name = "Regular Italic";
paths = (
{
closed = 1;
nodes = (
"556 1596 OFFCURVE",
"584 1638 OFFCURVE",
"623 1663 CURVE SMOOTH",
"642 1675 OFFCURVE",
"662 1681 OFFCURVE",
"681 1681 CURVE SMOOTH",
"745 1681 OFFCURVE",
"789 1639 OFFCURVE",
"789 1586 CURVE SMOOTH",
"789 1539 OFFCURVE",
"763 1496 OFFCURVE",
"723 1471 CURVE SMOOTH",
"702 1458 OFFCURVE",
"680 1452 OFFCURVE",
"656 1452 CURVE SMOOTH",
"601 1452 OFFCURVE",
"556 1498 OFFCURVE",
"556 1551 CURVE SMOOTH"
);
},
{
closed = 1;
nodes = (
"384 101 LINE",
"525 1216 LINE",
"254 1199 LINE",
"171 906 LINE",
"71 904 LINE",
"138 1309 LINE",
"1125 1309 LINE",
"1067 904 LINE",
"972 904 LINE",
"978 1198 LINE",
"702 1216 LINE",
"559 101 LINE",
"774 81 LINE",
"768 0 LINE",
"166 0 LINE",
"174 81 LINE"
);
}
);
width = 1061;
}
);
note = uni1E6A;
unicode = 1E6A;
},
{
glyphname = uni1E8E;
layers = (
{
layerId = "19CE7369-CF6C-4B47-B909-15D5A24EDA33";
name = "Regular Italic";
paths = (
{
closed = 1;
nodes = (
"402 101 LINE",
"454 508 LINE",
"142 1202 LINE",
"52 1222 LINE",
"60 1309 LINE",
"488 1309 LINE",
"478 1222 LINE",
"340 1202 LINE",
"534 723 LINE",
"565 614 LINE",
"627 722 LINE",
"920 1202 LINE",
"800 1222 LINE",
"809 1309 LINE",
"1168 1309 LINE",
"1158 1222 LINE",
"1072 1202 LINE",
"622 508 LINE",
"569 101 LINE",
"738 76 LINE",
"731 0 LINE",
"209 0 LINE",
"217 76 LINE"
);
},
{
closed = 1;
nodes = (
"557 1596 OFFCURVE",
"585 1638 OFFCURVE",
"624 1663 CURVE SMOOTH",
"643 1675 OFFCURVE",
"663 1681 OFFCURVE",
"682 1681 CURVE SMOOTH",
"746 1681 OFFCURVE",
"790 1639 OFFCURVE",
"790 1586 CURVE SMOOTH",
"790 1539 OFFCURVE",
"764 1496 OFFCURVE",
"724 1471 CURVE SMOOTH",
"703 1458 OFFCURVE",
"681 1452 OFFCURVE",
"657 1452 CURVE SMOOTH",
"602 1452 OFFCURVE",
"557 1498 OFFCURVE",
"557 1551 CURVE SMOOTH"
);
}
);
width = 1013;
}
);
note = uni1E8E;
unicode = 1E8E;
},
{
glyphname = a;
layers = (
{
layerId = "19CE7369-CF6C-4B47-B909-15D5A24EDA33";
name = "Regular Italic";
paths = (
{
closed = 1;
nodes = (
"682 1000 OFFCURVE",
"746 987 OFFCURVE",
"801 970 CURVE",
"905 999 LINE",
"792 163 LINE",
"791 158 OFFCURVE",
"791 152 OFFCURVE",
"791 144 CURVE SMOOTH",
"791 113 OFFCURVE",
"803 97 OFFCURVE",
"818 97 CURVE SMOOTH",
"827 97 OFFCURVE",
"837 100 OFFCURVE",
"848 106 CURVE",
"859 111 OFFCURVE",
"875 122 OFFCURVE",
"894 137 CURVE",
"920 90 LINE",
"909 71 OFFCURVE",
"869 31 OFFCURVE",
"813 4 CURVE SMOOTH",
"785 -10 OFFCURVE",
"756 -17 OFFCURVE",
"727 -17 CURVE SMOOTH",
"654 -17 OFFCURVE",
"611 19 OFFCURVE",
"616 99 CURVE",
"622 156 LINE",
"546 59 OFFCURVE",
"443 -17 OFFCURVE",
"339 -17 CURVE SMOOTH",
"154 -17 OFFCURVE",
"71 125 OFFCURVE",
"71 354 CURVE SMOOTH",
"71 541 OFFCURVE",
"164 763 OFFCURVE",
"335 899 CURVE SMOOTH",
"420 966 OFFCURVE",
"519 1000 OFFCURVE",
"630 1000 CURVE SMOOTH"
);
},
{
closed = 1;
nodes = (
"714 868 LINE",
"686 885 OFFCURVE",
"649 894 OFFCURVE",
"603 894 CURVE SMOOTH",
"450 894 OFFCURVE",
"343 770 OFFCURVE",
"291 609 CURVE SMOOTH",
"265 528 OFFCURVE",
"252 450 OFFCURVE",
"252 374 CURVE SMOOTH",
"252 195 OFFCURVE",
"293 106 OFFCURVE",
"374 106 CURVE SMOOTH",
"465 106 OFFCURVE",
"569 200 OFFCURVE",
"640 300 CURVE"
);
}
);
width = 1010;
}
);
note = a;
unicode = 0061;
},
{
glyphname = aacute;
layers = (
{
layerId = "19CE7369-CF6C-4B47-B909-15D5A24EDA33";
name = "Regular Italic";
paths = (
{
closed = 1;
nodes = (
"682 1000 OFFCURVE",
"746 987 OFFCURVE",
"801 970 CURVE",
"905 999 LINE",
"792 163 LINE",
"791 158 OFFCURVE",
"791 152 OFFCURVE",
"791 144 CURVE SMOOTH",
"791 113 OFFCURVE",
"803 97 OFFCURVE",
"818 97 CURVE SMOOTH",
"827 97 OFFCURVE",
"837 100 OFFCURVE",
"848 106 CURVE",
"859 111 OFFCURVE",
"875 122 OFFCURVE",
"894 137 CURVE",
"920 90 LINE",
"909 71 OFFCURVE",
"869 31 OFFCURVE",
"813 4 CURVE SMOOTH",
"785 -10 OFFCURVE",
"756 -17 OFFCURVE",
"727 -17 CURVE SMOOTH",
"654 -17 OFFCURVE",
"611 19 OFFCURVE",
"616 99 CURVE",
"622 156 LINE",
"546 59 OFFCURVE",
"443 -17 OFFCURVE",
"339 -17 CURVE SMOOTH",
"154 -17 OFFCURVE",
"71 125 OFFCURVE",
"71 354 CURVE SMOOTH",
"71 541 OFFCURVE",
"164 763 OFFCURVE",
"335 899 CURVE SMOOTH",
"420 966 OFFCURVE",
"519 1000 OFFCURVE",
"630 1000 CURVE SMOOTH"
);
},
{
closed = 1;
nodes = (
"714 868 LINE",
"686 885 OFFCURVE",
"649 894 OFFCURVE",
"603 894 CURVE SMOOTH",
"450 894 OFFCURVE",
"343 770 OFFCURVE",
"291 609 CURVE SMOOTH",
"265 528 OFFCURVE",
"252 450 OFFCURVE",
"252 374 CURVE SMOOTH",
"252 195 OFFCURVE",
"293 106 OFFCURVE",
"374 106 CURVE SMOOTH",
"465 106 OFFCURVE",
"569 200 OFFCURVE",
"640 300 CURVE"
);
},
{
closed = 1;
nodes = (
"802 1499 LINE",
"925 1380 LINE",
"904 1340 OFFCURVE",
"805 1235 OFFCURVE",
"706 1154 CURVE SMOOTH",
"657 1113 OFFCURVE",
"616 1087 OFFCURVE",
"585 1075 CURVE",
"529 1128 LINE"
);
}
);
width = 1010;
}
);
note = aacute;
unicode = 00E1;
},
{
glyphname = abreve;
layers = (
{
layerId = "19CE7369-CF6C-4B47-B909-15D5A24EDA33";
name = "Regular Italic";
paths = (
{
closed = 1;
nodes = (
"682 1000 OFFCURVE",
"746 987 OFFCURVE",
"801 970 CURVE",
"905 999 LINE",
"792 163 LINE",
"791 158 OFFCURVE",
"791 152 OFFCURVE",
"791 144 CURVE SMOOTH",
"791 113 OFFCURVE",
"803 97 OFFCURVE",
"818 97 CURVE SMOOTH",
"827 97 OFFCURVE",
"837 100 OFFCURVE",
"848 106 CURVE",
"859 111 OFFCURVE",
"875 122 OFFCURVE",
"894 137 CURVE",
"920 90 LINE",
"909 71 OFFCURVE",
"869 31 OFFCURVE",
"813 4 CURVE SMOOTH",
"785 -10 OFFCURVE",
"756 -17 OFFCURVE",
"727 -17 CURVE SMOOTH",
"654 -17 OFFCURVE",
"611 19 OFFCURVE",
"616 99 CURVE",
"622 156 LINE",
"546 59 OFFCURVE",
"443 -17 OFFCURVE",
"339 -17 CURVE SMOOTH",
"154 -17 OFFCURVE",
"71 125 OFFCURVE",
"71 354 CURVE SMOOTH",
"71 541 OFFCURVE",
"164 763 OFFCURVE",
"335 899 CURVE SMOOTH",
"420 966 OFFCURVE",
"519 1000 OFFCURVE",
"630 1000 CURVE SMOOTH"
);
},
{
closed = 1;
nodes = (
"714 868 LINE",
"686 885 OFFCURVE",
"649 894 OFFCURVE",
"603 894 CURVE SMOOTH",
"450 894 OFFCURVE",
"343 770 OFFCURVE",
"291 609 CURVE SMOOTH",
"265 528 OFFCURVE",
"252 450 OFFCURVE",
"252 374 CURVE SMOOTH",
"252 195 OFFCURVE",
"293 106 OFFCURVE",
"374 106 CURVE SMOOTH",
"465 106 OFFCURVE",
"569 200 OFFCURVE",
"640 300 CURVE"
);
},
{
closed = 1;
nodes = (
"377 1412 OFFCURVE",
"377 1418 OFFCURVE",
"378 1421 CURVE",
"470 1421 LINE",
"472 1408 OFFCURVE",
"473 1399 OFFCURVE",
"474 1394 CURVE SMOOTH",
"490 1315 OFFCURVE",
"534 1247 OFFCURVE",
"630 1247 CURVE SMOOTH",
"707 1247 OFFCURVE",
"759 1294 OFFCURVE",
"784 1342 CURVE SMOOTH",
"797 1366 OFFCURVE",
"808 1392 OFFCURVE",
"819 1421 CURVE",
"909 1421 LINE",
"909 1414 OFFCURVE",
"908 1405 OFFCURVE",
"907 1392 CURVE",
"895 1301 OFFCURVE",
"839 1211 OFFCURVE",
"758 1158 CURVE SMOOTH",
"717 1131 OFFCURVE",
"673 1118 OFFCURVE",
"626 1118 CURVE SMOOTH",
"523 1118 OFFCURVE",
"446 1179 OFFCURVE",
"407 1267 CURVE SMOOTH",
"387 1310 OFFCURVE",
"377 1356 OFFCURVE",
"377 1403 CURVE SMOOTH"
);
}
);
width = 1010;
}
);
note = abreve;
unicode = 0103;
},
{
glyphname = acircumflex;
layers = (
{
layerId = "19CE7369-CF6C-4B47-B909-15D5A24EDA33";
name = "Regular Italic";
paths = (
{
closed = 1;
nodes = (
"682 1000 OFFCURVE",
"746 987 OFFCURVE",
"801 970 CURVE",
"905 999 LINE",
"792 163 LINE",
"791 158 OFFCURVE",
"791 152 OFFCURVE",
"791 144 CURVE SMOOTH",
"791 113 OFFCURVE",
"803 97 OFFCURVE",
"818 97 CURVE SMOOTH",
"827 97 OFFCURVE",
"837 100 OFFCURVE",
"848 106 CURVE",
"859 111 OFFCURVE",
"875 122 OFFCURVE",
"894 137 CURVE",
"920 90 LINE",
"909 71 OFFCURVE",
"869 31 OFFCURVE",
"813 4 CURVE SMOOTH",
"785 -10 OFFCURVE",
"756 -17 OFFCURVE",
"727 -17 CURVE SMOOTH",
"654 -17 OFFCURVE",
"611 19 OFFCURVE",
"616 99 CURVE",
"622 156 LINE",
"546 59 OFFCURVE",
"443 -17 OFFCURVE",
"339 -17 CURVE SMOOTH",
"154 -17 OFFCURVE",
"71 125 OFFCURVE",
"71 354 CURVE SMOOTH",
"71 541 OFFCURVE",
"164 763 OFFCURVE",
"335 899 CURVE SMOOTH",
"420 966 OFFCURVE",
"519 1000 OFFCURVE",
"630 1000 CURVE SMOOTH"
);
},
{
closed = 1;
nodes = (
"714 868 LINE",
"686 885 OFFCURVE",
"649 894 OFFCURVE",
"603 894 CURVE SMOOTH",
"450 894 OFFCURVE",
"343 770 OFFCURVE",
"291 609 CURVE SMOOTH",
"265 528 OFFCURVE",
"252 450 OFFCURVE",
"252 374 CURVE SMOOTH",
"252 195 OFFCURVE",
"293 106 OFFCURVE",
"374 106 CURVE SMOOTH",
"465 106 OFFCURVE",
"569 200 OFFCURVE",
"640 300 CURVE"
);
},
{
closed = 1;
nodes = (
"593 1420 LINE",
"746 1420 LINE",
"909 1106 LINE",
"844 1056 LINE",
"647 1289 LINE",
"361 1057 LINE",
"310 1106 LINE"
);
}
);
width = 1010;
}
);
note = acircumflex;
unicode = 00E2;
},
{
glyphname = adieresis;
layers = (
{
layerId = "19CE7369-CF6C-4B47-B909-15D5A24EDA33";
name = "Regular Italic";
paths = (
{
closed = 1;
nodes = (
"682 1000 OFFCURVE",
"746 987 OFFCURVE",
"801 970 CURVE",
"905 999 LINE",
"792 163 LINE",
"791 158 OFFCURVE",
"791 152 OFFCURVE",
"791 144 CURVE SMOOTH",
"791 113 OFFCURVE",
"803 97 OFFCURVE",
"818 97 CURVE SMOOTH",
"827 97 OFFCURVE",
"837 100 OFFCURVE",
"848 106 CURVE",
"859 111 OFFCURVE",
"875 122 OFFCURVE",
"894 137 CURVE",
"920 90 LINE",
"909 71 OFFCURVE",
"869 31 OFFCURVE",
"813 4 CURVE SMOOTH",
"785 -10 OFFCURVE",
"756 -17 OFFCURVE",
"727 -17 CURVE SMOOTH",
"654 -17 OFFCURVE",
"611 19 OFFCURVE",
"616 99 CURVE",
"622 156 LINE",
"546 59 OFFCURVE",
"443 -17 OFFCURVE",
"339 -17 CURVE SMOOTH",
"154 -17 OFFCURVE",
"71 125 OFFCURVE",
"71 354 CURVE SMOOTH",
"71 541 OFFCURVE",
"164 763 OFFCURVE",
"335 899 CURVE SMOOTH",
"420 966 OFFCURVE",
"519 1000 OFFCURVE",
"630 1000 CURVE SMOOTH"
);
},
{
closed = 1;
nodes = (
"714 868 LINE",
"686 885 OFFCURVE",
"649 894 OFFCURVE",
"603 894 CURVE SMOOTH",
"450 894 OFFCURVE",
"343 770 OFFCURVE",
"291 609 CURVE SMOOTH",
"265 528 OFFCURVE",
"252 450 OFFCURVE",
"252 374 CURVE SMOOTH",
"252 195 OFFCURVE",
"293 106 OFFCURVE",
"374 106 CURVE SMOOTH",
"465 106 OFFCURVE",
"569 200 OFFCURVE",
"640 300 CURVE"
);
},
{
closed = 1;
nodes = (
"347 1337 OFFCURVE",
"372 1379 OFFCURVE",
"411 1404 CURVE SMOOTH",
"430 1416 OFFCURVE",
"451 1422 OFFCURVE",
"472 1422 CURVE SMOOTH",
"536 1422 OFFCURVE",
"579 1380 OFFCURVE",
"579 1325 CURVE SMOOTH",
"579 1280 OFFCURVE",
"553 1235 OFFCURVE",
"513 1211 CURVE SMOOTH",
"492 1198 OFFCURVE",
"470 1192 OFFCURVE",
"446 1192 CURVE SMOOTH",
"393 1192 OFFCURVE",
"347 1237 OFFCURVE",
"347 1293 CURVE SMOOTH"
);
},
{
closed = 1;
nodes = (
"710 1335 OFFCURVE",
"734 1379 OFFCURVE",
"774 1404 CURVE SMOOTH",
"793 1416 OFFCURVE",
"814 1422 OFFCURVE",
"835 1422 CURVE SMOOTH",
"899 1422 OFFCURVE",
"941 1380 OFFCURVE",
"941 1325 CURVE SMOOTH",
"941 1280 OFFCURVE",
"915 1235 OFFCURVE",
"875 1211 CURVE",
"855 1198 OFFCURVE",
"833 1192 OFFCURVE",
"809 1192 CURVE SMOOTH",
"756 1192 OFFCURVE",
"710 1236 OFFCURVE",
"710 1291 CURVE SMOOTH"
);
}
);
width = 1010;
}
);
note = adieresis;
unicode = 00E4;
},
{
glyphname = agrave;
layers = (
{
layerId = "19CE7369-CF6C-4B47-B909-15D5A24EDA33";
name = "Regular Italic";
paths = (
{
closed = 1;
nodes = (
"682 1000 OFFCURVE",
"746 987 OFFCURVE",
"801 970 CURVE",
"905 999 LINE",
"792 163 LINE",
"791 158 OFFCURVE",
"791 152 OFFCURVE",
"791 144 CURVE SMOOTH",
"791 113 OFFCURVE",
"803 97 OFFCURVE",
"818 97 CURVE SMOOTH",
"827 97 OFFCURVE",
"837 100 OFFCURVE",
"848 106 CURVE",
"859 111 OFFCURVE",
"875 122 OFFCURVE",
"894 137 CURVE",
"920 90 LINE",
"909 71 OFFCURVE",
"869 31 OFFCURVE",
"813 4 CURVE SMOOTH",
"785 -10 OFFCURVE",
"756 -17 OFFCURVE",
"727 -17 CURVE SMOOTH",
"654 -17 OFFCURVE",
"611 19 OFFCURVE",
"616 99 CURVE",
"622 156 LINE",
"546 59 OFFCURVE",
"443 -17 OFFCURVE",
"339 -17 CURVE SMOOTH",
"154 -17 OFFCURVE",
"71 125 OFFCURVE",
"71 354 CURVE SMOOTH",
"71 541 OFFCURVE",
"164 763 OFFCURVE",
"335 899 CURVE SMOOTH",
"420 966 OFFCURVE",
"519 1000 OFFCURVE",
"630 1000 CURVE SMOOTH"
);
},
{
closed = 1;
nodes = (
"714 868 LINE",
"686 885 OFFCURVE",
"649 894 OFFCURVE",
"603 894 CURVE SMOOTH",
"450 894 OFFCURVE",
"343 770 OFFCURVE",
"291 609 CURVE SMOOTH",
"265 528 OFFCURVE",
"252 450 OFFCURVE",
"252 374 CURVE SMOOTH",
"252 195 OFFCURVE",
"293 106 OFFCURVE",
"374 106 CURVE SMOOTH",
"465 106 OFFCURVE",
"569 200 OFFCURVE",
"640 300 CURVE"
);
},
{
closed = 1;
nodes = (
"422 1499 LINE",
"669 1127 LINE",
"612 1076 LINE",
"564 1095 OFFCURVE",
"462 1177 OFFCURVE",
"378 1262 CURVE SMOOTH",
"335 1305 OFFCURVE",
"305 1341 OFFCURVE",
"288 1372 CURVE"
);
}
);
width = 1010;
}
);
note = agrave;
unicode = 00E0;
},
{
glyphname = amacron;
layers = (
{
layerId = "19CE7369-CF6C-4B47-B909-15D5A24EDA33";
name = "Regular Italic";
paths = (
{
closed = 1;
nodes = (
"682 1000 OFFCURVE",
"746 987 OFFCURVE",
"801 970 CURVE",
"905 999 LINE",
"792 163 LINE",
"791 158 OFFCURVE",
"791 152 OFFCURVE",
"791 144 CURVE SMOOTH",
"791 113 OFFCURVE",
"803 97 OFFCURVE",
"818 97 CURVE SMOOTH",
"827 97 OFFCURVE",
"837 100 OFFCURVE",
"848 106 CURVE",
"859 111 OFFCURVE",
"875 122 OFFCURVE",
"894 137 CURVE",
"920 90 LINE",
"909 71 OFFCURVE",
"869 31 OFFCURVE",
"813 4 CURVE SMOOTH",
"785 -10 OFFCURVE",
"756 -17 OFFCURVE",
"727 -17 CURVE SMOOTH",
"654 -17 OFFCURVE",
"611 19 OFFCURVE",
"616 99 CURVE",
"622 156 LINE",
"546 59 OFFCURVE",
"443 -17 OFFCURVE",
"339 -17 CURVE SMOOTH",
"154 -17 OFFCURVE",
"71 125 OFFCURVE",
"71 354 CURVE SMOOTH",
"71 541 OFFCURVE",
"164 763 OFFCURVE",
"335 899 CURVE SMOOTH",
"420 966 OFFCURVE",
"519 1000 OFFCURVE",
"630 1000 CURVE SMOOTH"
);
},
{
closed = 1;
nodes = (
"714 868 LINE",
"686 885 OFFCURVE",
"649 894 OFFCURVE",
"603 894 CURVE SMOOTH",
"450 894 OFFCURVE",
"343 770 OFFCURVE",
"291 609 CURVE SMOOTH",
"265 528 OFFCURVE",
"252 450 OFFCURVE",
"252 374 CURVE SMOOTH",
"252 195 OFFCURVE",
"293 106 OFFCURVE",
"374 106 CURVE SMOOTH",
"465 106 OFFCURVE",
"569 200 OFFCURVE",
"640 300 CURVE"
);
},
{
closed = 1;
nodes = (
"843 1355 LINE",
"826 1225 LINE",
"387 1225 LINE",
"403 1355 LINE"
);
}
);
width = 1010;
}
);
note = amacron;
unicode = 0101;
},
{
glyphname = aogonek;
layers = (
{
layerId = "19CE7369-CF6C-4B47-B909-15D5A24EDA33";
name = "Regular Italic";
paths = (
{
closed = 1;
nodes = (
"682 1000 OFFCURVE",
"746 987 OFFCURVE",
"801 970 CURVE",
"905 999 LINE",
"792 163 LINE",
"791 158 OFFCURVE",
"791 152 OFFCURVE",
"791 144 CURVE SMOOTH",
"791 113 OFFCURVE",
"803 97 OFFCURVE",
"818 97 CURVE SMOOTH",
"827 97 OFFCURVE",
"837 100 OFFCURVE",
"848 106 CURVE",
"859 111 OFFCURVE",
"875 122 OFFCURVE",
"894 137 CURVE",
"920 90 LINE",
"913 77 OFFCURVE",
"885 49 OFFCURVE",
"852 26 CURVE",
"795 -19 OFFCURVE",
"752 -57 OFFCURVE",
"724 -87 CURVE SMOOTH",
"668 -147 OFFCURVE",
"674 -205 OFFCURVE",
"694 -229 CURVE SMOOTH",
"704 -241 OFFCURVE",
"715 -247 OFFCURVE",
"728 -247 CURVE SMOOTH",
"760 -247 OFFCURVE",
"793 -232 OFFCURVE",
"840 -195 CURVE",
"863 -277 LINE",
"810 -325 OFFCURVE",
"736 -360 OFFCURVE",
"644 -360 CURVE SMOOTH",
"587 -360 OFFCURVE",
"547 -337 OFFCURVE",
"527 -301 CURVE SMOOTH",
"517 -284 OFFCURVE",
"512 -266 OFFCURVE",
"512 -247 CURVE SMOOTH",
"512 -208 OFFCURVE",
"526 -164 OFFCURVE",
"547 -135 CURVE SMOOTH",
"588 -80 OFFCURVE",
"630 -50 OFFCURVE",
"691 -14 CURVE",
"638 -3 OFFCURVE",
"613 34 OFFCURVE",
"616 99 CURVE",
"622 156 LINE",
"546 59 OFFCURVE",
"443 -17 OFFCURVE",
"339 -17 CURVE SMOOTH",
"154 -17 OFFCURVE",
"71 125 OFFCURVE",
"71 354 CURVE SMOOTH",
"71 541 OFFCURVE",
"164 763 OFFCURVE",
"335 899 CURVE SMOOTH",
"420 966 OFFCURVE",
"519 1000 OFFCURVE",
"630 1000 CURVE SMOOTH"
);
},
{
closed = 1;
nodes = (
"714 868 LINE",
"686 885 OFFCURVE",
"649 894 OFFCURVE",
"603 894 CURVE SMOOTH",
"450 894 OFFCURVE",
"343 770 OFFCURVE",
"291 609 CURVE SMOOTH",
"265 528 OFFCURVE",
"252 450 OFFCURVE",
"252 374 CURVE SMOOTH",
"252 195 OFFCURVE",
"293 106 OFFCURVE",
"374 106 CURVE SMOOTH",
"465 106 OFFCURVE",
"569 200 OFFCURVE",
"640 300 CURVE"
);
}
);
width = 1010;
}
);
note = aogonek;
unicode = 0105;
},
{
glyphname = aring;
layers = (
{
layerId = "19CE7369-CF6C-4B47-B909-15D5A24EDA33";
name = "Regular Italic";
paths = (
{
closed = 1;
nodes = (
"682 1000 OFFCURVE",
"746 987 OFFCURVE",
"801 970 CURVE",
"905 999 LINE",
"792 163 LINE",
"791 158 OFFCURVE",
"791 152 OFFCURVE",
"791 144 CURVE SMOOTH",
"791 113 OFFCURVE",
"803 97 OFFCURVE",
"818 97 CURVE SMOOTH",
"827 97 OFFCURVE",
"837 100 OFFCURVE",
"848 106 CURVE",
"859 111 OFFCURVE",
"875 122 OFFCURVE",
"894 137 CURVE",
"920 90 LINE",
"909 71 OFFCURVE",
"869 31 OFFCURVE",
"813 4 CURVE SMOOTH",
"785 -10 OFFCURVE",
"756 -17 OFFCURVE",
"727 -17 CURVE SMOOTH",
"654 -17 OFFCURVE",
"611 19 OFFCURVE",
"616 99 CURVE",
"622 156 LINE",
"546 59 OFFCURVE",
"443 -17 OFFCURVE",
"339 -17 CURVE SMOOTH",
"154 -17 OFFCURVE",
"71 125 OFFCURVE",
"71 354 CURVE SMOOTH",
"71 541 OFFCURVE",
"164 763 OFFCURVE",
"335 899 CURVE SMOOTH",
"420 966 OFFCURVE",
"519 1000 OFFCURVE",
"630 1000 CURVE SMOOTH"
);
},
{
closed = 1;
nodes = (
"714 868 LINE",
"686 885 OFFCURVE",
"649 894 OFFCURVE",
"603 894 CURVE SMOOTH",
"450 894 OFFCURVE",
"343 770 OFFCURVE",
"291 609 CURVE SMOOTH",
"265 528 OFFCURVE",
"252 450 OFFCURVE",
"252 374 CURVE SMOOTH",
"252 195 OFFCURVE",
"293 106 OFFCURVE",
"374 106 CURVE SMOOTH",
"465 106 OFFCURVE",
"569 200 OFFCURVE",
"640 300 CURVE"
);
},
{
closed = 1;
nodes = (
"392 1394 OFFCURVE",
"458 1473 OFFCURVE",
"551 1510 CURVE SMOOTH",
"597 1528 OFFCURVE",
"645 1537 OFFCURVE",
"694 1537 CURVE SMOOTH",
"842 1537 OFFCURVE",
"930 1465 OFFCURVE",
"930 1341 CURVE SMOOTH",
"930 1225 OFFCURVE",
"868 1145 OFFCURVE",
"777 1107 CURVE SMOOTH",
"732 1088 OFFCURVE",
"684 1078 OFFCURVE",
"633 1078 CURVE SMOOTH",
"477 1078 OFFCURVE",
"392 1153 OFFCURVE",
"392 1278 CURVE SMOOTH"
);
},
{
closed = 1;
nodes = (
"808 1403 OFFCURVE",
"756 1459 OFFCURVE",
"680 1459 CURVE SMOOTH",
"584 1459 OFFCURVE",
"516 1408 OFFCURVE",
"516 1295 CURVE SMOOTH",
"516 1243 OFFCURVE",
"540 1197 OFFCURVE",
"580 1172 CURVE",
"599 1159 OFFCURVE",
"621 1153 OFFCURVE",
"646 1153 CURVE SMOOTH",
"743 1153 OFFCURVE",
"808 1202 OFFCURVE",
"808 1323 CURVE SMOOTH"
);
}
);
width = 1010;
}
);
note = aring;
unicode = 00E5;
},
{
glyphname = atilde;
layers = (
{
layerId = "19CE7369-CF6C-4B47-B909-15D5A24EDA33";
name = "Regular Italic";
paths = (
{
closed = 1;
nodes = (
"682 1000 OFFCURVE",
"746 987 OFFCURVE",
"801 970 CURVE",
"905 999 LINE",
"792 163 LINE",
"791 158 OFFCURVE",
"791 152 OFFCURVE",
"791 144 CURVE SMOOTH",
"791 113 OFFCURVE",
"803 97 OFFCURVE",
"818 97 CURVE SMOOTH",
"827 97 OFFCURVE",
"837 100 OFFCURVE",
"848 106 CURVE",
"859 111 OFFCURVE",
"875 122 OFFCURVE",
"894 137 CURVE",
"920 90 LINE",
"909 71 OFFCURVE",
"869 31 OFFCURVE",
"813 4 CURVE SMOOTH",
"785 -10 OFFCURVE",
"756 -17 OFFCURVE",
"727 -17 CURVE SMOOTH",
"654 -17 OFFCURVE",
"611 19 OFFCURVE",
"616 99 CURVE",
"622 156 LINE",
"546 59 OFFCURVE",
"443 -17 OFFCURVE",
"339 -17 CURVE SMOOTH",
"154 -17 OFFCURVE",
"71 125 OFFCURVE",
"71 354 CURVE SMOOTH",
"71 541 OFFCURVE",
"164 763 OFFCURVE",
"335 899 CURVE SMOOTH",
"420 966 OFFCURVE",
"519 1000 OFFCURVE",
"630 1000 CURVE SMOOTH"
);
},
{
closed = 1;
nodes = (
"714 868 LINE",
"686 885 OFFCURVE",
"649 894 OFFCURVE",
"603 894 CURVE SMOOTH",
"450 894 OFFCURVE",
"343 770 OFFCURVE",
"291 609 CURVE SMOOTH",
"265 528 OFFCURVE",
"252 450 OFFCURVE",
"252 374 CURVE SMOOTH",
"252 195 OFFCURVE",
"293 106 OFFCURVE",
"374 106 CURVE SMOOTH",
"465 106 OFFCURVE",
"569 200 OFFCURVE",
"640 300 CURVE"
);
},
{
closed = 1;
nodes = (
"327 1275 LINE",
"352 1324 OFFCURVE",
"399 1372 OFFCURVE",
"455 1400 CURVE SMOOTH",
"483 1413 OFFCURVE",
"511 1420 OFFCURVE",
"540 1420 CURVE SMOOTH",
"595 1420 OFFCURVE",
"626 1396 OFFCURVE",
"673 1351 CURVE SMOOTH",
"709 1315 OFFCURVE",
"729 1299 OFFCURVE",
"761 1299 CURVE SMOOTH",
"801 1299 OFFCURVE",
"833 1322 OFFCURVE",
"853 1343 CURVE",
"862 1354 OFFCURVE",
"876 1370 OFFCURVE",
"894 1393 CURVE",
"945 1314 LINE",
"925 1255 OFFCURVE",
"880 1207 OFFCURVE",
"821 1179 CURVE SMOOTH",
"792 1165 OFFCURVE",
"761 1158 OFFCURVE",
"729 1158 CURVE SMOOTH",
"660 1158 OFFCURVE",
"628 1183 OFFCURVE",
"587 1227 CURVE SMOOTH",
"552 1263 OFFCURVE",
"533 1279 OFFCURVE",
"494 1279 CURVE SMOOTH",
"458 1279 OFFCURVE",
"408 1242 OFFCURVE",
"368 1201 CURVE"
);
}
);
width = 1010;
}
);
note = atilde;
unicode = 00E3;
},
{
glyphname = ae;
layers = (
{
layerId = "19CE7369-CF6C-4B47-B909-15D5A24EDA33";
name = "Regular Italic";
paths = (
{
closed = 1;
nodes = (
"71 541 OFFCURVE",
"165 762 OFFCURVE",
"336 898 CURVE SMOOTH",
"421 965 OFFCURVE",
"520 999 OFFCURVE",
"631 999 CURVE SMOOTH",
"686 999 OFFCURVE",
"749 987 OFFCURVE",
"802 970 CURVE",
"903 999 LINE",
"888 885 LINE",
"969 958 OFFCURVE",
"1067 999 OFFCURVE",
"1168 999 CURVE SMOOTH",
"1269 999 OFFCURVE",
"1338 957 OFFCURVE",
"1371 892 CURVE SMOOTH",
"1388 859 OFFCURVE",
"1396 823 OFFCURVE",
"1396 782 CURVE SMOOTH",
"1396 618 OFFCURVE",
"1244 502 OFFCURVE",
"1068 443 CURVE SMOOTH",
"979 414 OFFCURVE",
"903 398 OFFCURVE",
"838 396 CURVE",
"837 371 OFFCURVE",
"836 352 OFFCURVE",
"836 340 CURVE SMOOTH",
"836 196 OFFCURVE",
"875 104 OFFCURVE",
"998 104 CURVE SMOOTH",
"1097 104 OFFCURVE",
"1208 143 OFFCURVE",
"1305 230 CURVE",
"1345 157 LINE",
"1308 108 OFFCURVE",
"1232 48 OFFCURVE",
"1132 11 CURVE SMOOTH",
"1081 -8 OFFCURVE",
"1029 -17 OFFCURVE",
"974 -17 CURVE SMOOTH",
"791 -17 OFFCURVE",
"688 79 OFFCURVE",
"660 251 CURVE",
"617 159 OFFCURVE",
"551 73 OFFCURVE",
"468 22 CURVE SMOOTH",
"426 -4 OFFCURVE",
"382 -17 OFFCURVE",
"337 -17 CURVE SMOOTH",
"161 -17 OFFCURVE",
"71 118 OFFCURVE",
"71 353 CURVE SMOOTH"
);
},
{
closed = 1;
nodes = (
"1215 857 OFFCURVE",
"1178 899 OFFCURVE",
"1113 899 CURVE SMOOTH",
"1009 899 OFFCURVE",
"929 796 OFFCURVE",
"885 669 CURVE SMOOTH",
"862 606 OFFCURVE",
"848 546 OFFCURVE",
"842 490 CURVE",
"941 495 OFFCURVE",
"1071 542 OFFCURVE",
"1154 626 CURVE SMOOTH",
"1195 668 OFFCURVE",
"1216 716 OFFCURVE",
"1216 770 CURVE"
);
},
{
closed = 1;
nodes = (
"726 861 LINE",
"697 883 OFFCURVE",
"657 894 OFFCURVE",
"605 894 CURVE SMOOTH",
"453 894 OFFCURVE",
"344 770 OFFCURVE",
"292 609 CURVE SMOOTH",
"265 528 OFFCURVE",
"252 450 OFFCURVE",
"252 374 CURVE SMOOTH",
"252 285 OFFCURVE",
"262 218 OFFCURVE",
"283 174 CURVE SMOOTH",
"303 129 OFFCURVE",
"333 107 OFFCURVE",
"372 107 CURVE SMOOTH",
"449 107 OFFCURVE",
"528 174 OFFCURVE",
"584 254 CURVE SMOOTH",
"612 294 OFFCURVE",
"635 332 OFFCURVE",
"654 369 CURVE",
"654 370 LINE SMOOTH",
"654 405 OFFCURVE",
"657 441 OFFCURVE",
"664 476 CURVE",
"662 473 LINE"
);
}
);
width = 1472;
}
);
note = ae;
unicode = 00E6;
},
